{
.appVersion = "1192";
copyright = "Copyright (c) 2011 by Marcelo Magalhães (marcelomagalhaes.net), with Reserved Font Name \"Londrina Thin\"";
customParameters = (
{
name = trademark;
value = "Londrina Thin is a trademark of Marcelo Magalh„es.";
},
{
name = vendorID;
value = PYRS;
},
{
name = panose;
value = (
2,
0,
5,
6,
0,
0,
0,
2,
0,
4
);
},
{
name = unicodeRanges;
value = (
0,
1,
2,
3,
5,
31,
33,
35,
36,
45,
62
);
},
{
name = codePageRanges;
value = (
1252
);
},
{
name = blueScale;
value = 0.037;
},
{
name = glyphOrder;
value = (
.notdef,
.null,
CR,
space,
h,
i,
j,
k,
l,
m,
n,
o,
p,
q,
r,
s,
t,
u,
v,
w,
x,
y,
z,
A,
B,
C,
D,
E,
F,
G,
H,
I,
J,
K,
L,
M,
N,
O,
P,
Q,
R,
S,
T,
U,
V,
W,
X,
Y,
Z,
bracketleft,
bracketright,
exclam,
dollar,
parenleft,
parenright,
plus,
hyphen,
slash,
question,
zero,
one,
two,
three,
four,
five,
six,
seven,
eight,
nine,
braceleft,
braceright,
Euro,
plusminus,
Agrave,
Aacute,
Acircumflex,
Atilde,
Egrave,
Eacute,
Ecircumflex,
Ugrave,
Uacute,
Ucircumflex,
ugrave,
uacute,
ucircumflex,
egrave,
eacute,
ecircumflex,
igrave,
iacute,
icircumflex,
Ograve,
Oacute,
Ocircumflex,
Otilde,
agrave,
aacute,
acircumflex,
ograve,
oacute,
ocircumflex,
otilde,
Edieresis,
exclamdown,
Odieresis,
Udieresis,
atilde,
adieresis,
edieresis,
idieresis,
odieresis,
udieresis,
yacute,
ydieresis,
Igrave,
Iacute,
Icircumflex,
d,
period,
ellipsis,
equal,
grave,
Adieresis,
Idieresis,
colon,
divide,
semicolon,
comma,
quotesinglbase,
quotedblleft,
quotedblright,
quoteleft,
quoteright,
quotedblbase,
questiondown,
bar,
backslash,
percent,
less,
greater,
endash,
at,
quotesingle,
quotedbl,
emdash,
underscore,
a,
Ccedilla,
ccedilla,
AE,
ae,
Oslash,
oslash,
numbersign,
ampersand,
asterisk,
bullet,
Ntilde,
aring,
Yacute,
cent,
sterling,
yen,
Ydieresis,
oe,
tilde,
dagger,
daggerdbl,
OE,
florin,
asciitilde,
copyright,
ordfeminine,
dieresis,
circumflex,
registered,
degree,
perthousand,
Aring,
ordmasculine,
ntilde,
onequarter,
onehalf,
threequarters,
acute,
guillemotleft,

glyphs = (
{
glyphname = h;
layers = (
{
hints = (
{
horizontal = 1;
place = "{-3, 21}";
target = up;
type = BottomGhost;
},
{
horizontal = 1;
place = "{508, -20}";
target = down;
type = TopGhost;
},
{
horizontal = 1;
place = "{723, -20}";
target = down;
type = TopGhost;
},
{
place = "{36, 49}";
type = Stem;
},
{
place = "{368, 46}";
type = Stem;
}
);
layerId = "09B19460-4606-4A98-AA02-96D7DF647D82";
paths = (
{
closed = 1;
nodes = (
"85 472 OFFCURVE",
"85 507 OFFCURVE",
"84 527 CURVE",
"84 575 LINE SMOOTH",
"84 641 OFFCURVE",
"85 706 OFFCURVE",
"83 716 CURVE",
"83 720 OFFCURVE",
"57 721 OFFCURVE",
"36 723 CURVE",
"32 547 OFFCURVE",
"36 161 OFFCURVE",
"36 -3 CURVE",
"52 -2 OFFCURVE",
"60 -1 OFFCURVE",
"60 -2 CURVE SMOOTH",
"60 -3 OFFCURVE",
"68 -2 OFFCURVE",
"83 1 CURVE",
"83 5 LINE SMOOTH",
"84 116 OFFCURVE",
"83 195 OFFCURVE",
"81 244 CURVE SMOOTH",
"80 293 OFFCURVE",
"84 336 OFFCURVE",
"94 372 CURVE SMOOTH",
"105 408 OFFCURVE",
"126 435 OFFCURVE",
"159 453 CURVE SMOOTH",
"192 472 OFFCURVE",
"235 476 OFFCURVE",
"288 466 CURVE SMOOTH",
"342 457 OFFCURVE",
"369 429 OFFCURVE",
"368 382 CURVE SMOOTH",
"367 335 OFFCURVE",
"367 294 OFFCURVE",
"367 257 CURVE SMOOTH",
"366 180 OFFCURVE",
"366 131 OFFCURVE",
"365 110 CURVE",
"365 50 LINE SMOOTH",
"365 31 OFFCURVE",
"366 13 OFFCURVE",
"367 -2 CURVE",
"375 -3 OFFCURVE",
"391 -1 OFFCURVE",
"414 2 CURVE",
"406 140 OFFCURVE",
"435 426 OFFCURVE",
"393 464 CURVE SMOOTH",
"365 488 OFFCURVE",
"324 509 OFFCURVE",
"229 508 CURVE SMOOTH",
"182 508 OFFCURVE",
"149 501 OFFCURVE",
"130 488 CURVE SMOOTH",
"111 475 OFFCURVE",
"96 461 OFFCURVE",
"85 448 CURVE"
);
}
);
width = 448;
}
);
note = h;
rightKerningGroup = h;
unicode = 0068;
},
{
glyphname = i;
layers = (
{
hints = (
{
horizontal = 1;
place = "{-2, 21}";
target = up;
type = BottomGhost;
},
{
horizontal = 1;
place = "{719, -20}";
target = down;
type = TopGhost;
},
{
place = "{83, 56}";
type = Stem;
}
);
layerId = "09B19460-4606-4A98-AA02-96D7DF647D82";
paths = (
{
closed = 1;
nodes = (
"83 719 LINE",
"82 658 OFFCURVE",
"87 620 OFFCURVE",
"87 581 CURVE",
"97 581 OFFCURVE",
"114 582 OFFCURVE",
"138 583 CURVE",
"136 639 OFFCURVE",
"135 697 OFFCURVE",
"135 718 CURVE"
);
},
{
closed = 1;
nodes = (
"139 503 LINE",
"107 504 OFFCURVE",
"90 505 OFFCURVE",
"87 504 CURVE",
"87 503 LINE",
"79 424 OFFCURVE",
"83 337 OFFCURVE",
"83 266 CURVE SMOOTH",
"83 -2 LINE",
"92 1 OFFCURVE",
"103 3 OFFCURVE",
"139 0 CURVE",
"128 169 OFFCURVE",
"138 339 OFFCURVE",
"139 500 CURVE SMOOTH"
);
}
);
width = 207;
}
);
note = i;
unicode = 0069;
},
{
glyphname = j;
layers = (
{
hints = (
{
horizontal = 1;
place = "{719, -20}";
target = down;
type = TopGhost;
},
{
place = "{115, 54}";
type = Stem;
},
{
place = "{127, 42}";
type = Stem;
}
);
layerId = "09B19460-4606-4A98-AA02-96D7DF647D82";
paths = (
{
closed = 1;
nodes = (
"115 719 LINE",
"114 658 OFFCURVE",
"119 618 OFFCURVE",
"119 585 CURVE",
"144 581 OFFCURVE",
"163 582 OFFCURVE",
"168 590 CURVE",
"168 630 OFFCURVE",
"165 701 OFFCURVE",
"165 718 CURVE"
);
},
{
closed = 1;
nodes = (
"127 361 LINE",
"116 165 OFFCURVE",
"151 -85 OFFCURVE",
"82 -113 CURVE",
"60 -124 OFFCURVE",
"31 -131 OFFCURVE",
"-4 -134 CURVE SMOOTH",
"-40 -137 OFFCURVE",
"-65 -138 OFFCURVE",
"-80 -139 CURVE SMOOTH",
"-95 -140 OFFCURVE",
"-109 -140 OFFCURVE",
"-120 -139 CURVE",
"-121 -148 OFFCURVE",
"-121 -164 OFFCURVE",
"-120 -187 CURVE",
"-14 -192 OFFCURVE",
"120 -180 OFFCURVE",
"154 -99 CURVE",
"173 -22 OFFCURVE",
"169 24 OFFCURVE",
"169 81 CURVE SMOOTH",
"170 140 OFFCURVE",
"169 198 OFFCURVE",
"169 263 CURVE",
"164 312 OFFCURVE",
"175 435 OFFCURVE",
"167 500 CURVE",
"158 501 OFFCURVE",
"144 501 OFFCURVE",
"125 500 CURVE"
);
}
);
width = 204;
}
);
note = j;
unicode = 006A;
},
{
glyphname = k;
layers = (
{
hints = (
{
horizontal = 1;
place = "{0, 21}";
target = up;
type = BottomGhost;
},
{
horizontal = 1;
place = "{728, -20}";
target = down;
type = TopGhost;
},
{
place = "{38, 41}";
type = Stem;
}
);
layerId = "09B19460-4606-4A98-AA02-96D7DF647D82";
paths = (
{
closed = 1;
nodes = (
"419 -5 OFFCURVE",
"424 0 OFFCURVE",
"443 0 CURVE",
"390 47 OFFCURVE",
"346 86 OFFCURVE",
"312 115 CURVE SMOOTH",
"113 285 LINE",
"272 396 LINE",
"293 412 OFFCURVE",
"347 451 OFFCURVE",
"434 512 CURVE",
"425 513 OFFCURVE",
"405 513 OFFCURVE",
"375 514 CURVE",
"348 496 OFFCURVE",
"313 473 OFFCURVE",
"271 444 CURVE SMOOTH",
"229 415 OFFCURVE",
"165 371 OFFCURVE",
"79 310 CURVE",
"77 325 OFFCURVE",
"76 357 OFFCURVE",
"77 404 CURVE SMOOTH",
"78 452 OFFCURVE",
"79 487 OFFCURVE",
"79 509 CURVE SMOOTH",
"79 728 LINE",
"62 727 OFFCURVE",
"48 726 OFFCURVE",
"38 726 CURVE",
"39 483 OFFCURVE",
"29 248 OFFCURVE",
"38 0 CURVE",
"53 0 OFFCURVE",
"68 1 OFFCURVE",
"84 2 CURVE",
"80 46 OFFCURVE",
"81 68 OFFCURVE",
"81 103 CURVE SMOOTH",
"81 120 OFFCURVE",
"81 147 OFFCURVE",
"80 183 CURVE SMOOTH",
"79 219 OFFCURVE",
"79 244 OFFCURVE",
"79 259 CURVE",
"184 172 OFFCURVE",
"253 114 OFFCURVE",
"287 85 CURVE SMOOTH",
"321 56 OFFCURVE",
"354 26 OFFCURVE",
"386 -4 CURVE"
);
}
);
width = 435;
}
);
note = k;
rightKerningGroup = k;
unicode = 006B;
},
{
glyphname = l;
layers = (
{
hints = (
{
horizontal = 1;
place = "{727, -20}";
target = down;
type = TopGhost;
},
{
place = "{78, 51}";
type = Stem;
}
);
layerId = "09B19460-4606-4A98-AA02-96D7DF647D82";
paths = (
{
closed = 1;
nodes = (
"84 727 LINE",
"60 485 OFFCURVE",
"97 241 OFFCURVE",
"78 0 CURVE",
"88 3 OFFCURVE",
"117 -7 OFFCURVE",
"128 6 CURVE",
"120 167 OFFCURVE",
"129 560 OFFCURVE",
"129 724 CURVE"
);
}
);
width = 206;
}
);
note = l;
unicode = 006C;
},
{
glyphname = m;
layers = (
{
hints = (
{
horizontal = 1;
place = "{-2, 21}";
target = up;
type = BottomGhost;
},
{
horizontal = 1;
place = "{454, 43}";
type = Stem;
},
{
place = "{36, 48}";
type = Stem;
},
{
place = "{331, 46}";
type = Stem;
},
{
place = "{607, 43}";
type = Stem;
}
);
layerId = "09B19460-4606-4A98-AA02-96D7DF647D82";
paths = (
{
closed = 1;
nodes = (
"90 459 OFFCURVE",
"92 470 OFFCURVE",
"89 493 CURVE",
"89 499 OFFCURVE",
"61 496 OFFCURVE",
"36 498 CURVE",
"31 322 OFFCURVE",
"37 161 OFFCURVE",
"37 -3 CURVE",
"53 -2 OFFCURVE",
"69 -2 OFFCURVE",
"84 -3 CURVE",
"84 138 LINE SMOOTH",
"85 177 OFFCURVE",
"82 222 OFFCURVE",
"85 269 CURVE SMOOTH",
"86 287 OFFCURVE",
"87 308 OFFCURVE",
"86 333 CURVE SMOOTH",
"85 358 OFFCURVE",
"96 384 OFFCURVE",
"118 410 CURVE SMOOTH",
"140 437 OFFCURVE",
"175 451 OFFCURVE",
"222 454 CURVE SMOOTH",
"269 457 OFFCURVE",
"300 449 OFFCURVE",
"313 430 CURVE",
"327 411 OFFCURVE",
"333 379 OFFCURVE",
"331 334 CURVE SMOOTH",
"327 245 OFFCURVE",
"325 151 OFFCURVE",
"324 110 CURVE SMOOTH",
"324 69 OFFCURVE",
"323 29 OFFCURVE",
"326 -2 CURVE",
"346 -2 OFFCURVE",
"363 -1 OFFCURVE",
"377 1 CURVE",
"374 41 OFFCURVE",
"376 99 OFFCURVE",
"377 155 CURVE SMOOTH",
"378 212 OFFCURVE",
"381 275 OFFCURVE",
"378 314 CURVE",
"377 345 OFFCURVE",
"378 372 OFFCURVE",
"381 395 CURVE SMOOTH",
"384 418 OFFCURVE",
"398 436 OFFCURVE",
"424 448 CURVE SMOOTH",
"450 461 OFFCURVE",
"484 465 OFFCURVE",
"525 461 CURVE SMOOTH",
"566 458 OFFCURVE",
"591 443 OFFCURVE",
"599 418 CURVE SMOOTH",
"606 398 OFFCURVE",
"609 373 OFFCURVE",
"608 344 CURVE SMOOTH",
"608 315 OFFCURVE",
"608 297 OFFCURVE",
"609 289 CURVE",
"606 172 LINE",
"604 110 LINE SMOOTH",
"604 69 OFFCURVE",
"603 29 OFFCURVE",
"606 -2 CURVE",
"619 -3 OFFCURVE",
"634 -1 OFFCURVE",
"650 2 CURVE",
"642 140 OFFCURVE",
"671 426 OFFCURVE",
"629 464 CURVE SMOOTH",
"615 476 OFFCURVE",
"599 484 OFFCURVE",
"582 489 CURVE SMOOTH",
"565 494 OFFCURVE",
"534 496 OFFCURVE",
"491 497 CURVE SMOOTH",
"448 498 OFFCURVE",
"416 495 OFFCURVE",
"397 487 CURVE SMOOTH",
"360 471 OFFCURVE",
"355 458 OFFCURVE",
"348 454 CURVE",
"345 462 OFFCURVE",
"341 468 OFFCURVE",
"338 471 CURVE",
"310 495 OFFCURVE",
"261 500 OFFCURVE",
"205 496 CURVE SMOOTH",
"149 492 OFFCURVE",
"114 471 OFFCURVE",
"91 440 CURVE"
);
}
);
width = 684;
}
);
leftKerningGroup = m;
note = m;
rightKerningGroup = h;
unicode = 006D;
},
{
glyphname = n;
layers = (
{
hints = (
{
horizontal = 1;
place = "{0, 21}";
target = up;
type = BottomGhost;
},
{
place = "{37, 56}";
type = Stem;
},
{
place = "{366, 50}";
type = Stem;
},
{
horizontal = 1;
place = "{-3, 21}";
target = up;
type = BottomGhost;
}
);
layerId = "09B19460-4606-4A98-AA02-96D7DF647D82";
paths = (
{
closed = 1;
nodes = (
"96 461 OFFCURVE",
"98 472 OFFCURVE",
"95 495 CURVE",
"95 502 OFFCURVE",
"65 496 OFFCURVE",
"37 498 CURVE",
"32 322 OFFCURVE",
"38 161 OFFCURVE",
"38 -3 CURVE",
"54 -2 OFFCURVE",
"72 -1 OFFCURVE",
"93 -1 CURVE",
"93 3 LINE SMOOTH",
"94 47 OFFCURVE",
"95 91 OFFCURVE",
"92 135 CURVE SMOOTH",
"91 158 OFFCURVE",
"91 191 OFFCURVE",
"90 235 CURVE SMOOTH",
"89 280 OFFCURVE",
"90 314 OFFCURVE",
"91 337 CURVE",
"94 373 OFFCURVE",
"110 404 OFFCURVE",
"151 427 CURVE SMOOTH",
"172 438 OFFCURVE",
"213 446 OFFCURVE",
"273 451 CURVE SMOOTH",
"333 456 OFFCURVE",
"364 436 OFFCURVE",
"366 389 CURVE SMOOTH",
"368 343 OFFCURVE",
"369 307 OFFCURVE",
"369 280 CURVE SMOOTH",
"369 227 OFFCURVE",
"364 153 OFFCURVE",
"363 112 CURVE SMOOTH",
"363 71 OFFCURVE",
"362 31 OFFCURVE",
"365 0 CURVE",
"391 0 OFFCURVE",
"408 1 OFFCURVE",
"416 2 CURVE",
"408 140 OFFCURVE",
"437 426 OFFCURVE",
"395 464 CURVE SMOOTH",
"367 488 OFFCURVE",
"331 496 OFFCURVE",
"294 495 CURVE SMOOTH",
"276 494 OFFCURVE",
"246 490 OFFCURVE",
"205 483 CURVE SMOOTH",
"164 476 OFFCURVE",
"136 467 OFFCURVE",
"122 457 CURVE SMOOTH",
"115 452 OFFCURVE",
"104 446 OFFCURVE",
"97 442 CURVE"
);
}
);
width = 450;
}
);
leftKerningGroup = m;
note = n;
rightKerningGroup = h;
unicode = 006E;
},
{
glyphname = o;
layers = (
{
hints = (
{
horizontal = 1;
place = "{-7, 21}";
target = up;
type = BottomGhost;
},
{
horizontal = 1;
place = "{514, -20}";
target = down;
type = TopGhost;
},
{
place = "{379, 46}";
type = Stem;
}
);
layerId = "09B19460-4606-4A98-AA02-96D7DF647D82";
paths = (
{
closed = 1;
nodes = (
"34 427 OFFCURVE",
"30 412 OFFCURVE",
"29 397 CURVE",
"25 372 OFFCURVE",
"24 349 OFFCURVE",
"24 325 CURVE",
"32 238 OFFCURVE",
"3 101 OFFCURVE",
"75 37 CURVE",
"98 14 OFFCURVE",
"127 -1 OFFCURVE",
"161 -7 CURVE",
"238 -7 OFFCURVE",
"347 -28 OFFCURVE",
"393 37 CURVE",
"419 63 OFFCURVE",
"422 194 OFFCURVE",
"425 272 CURVE",
"422 360 OFFCURVE",
"422 445 OFFCURVE",
"384 470 CURVE",
"356 497 OFFCURVE",
"316 510 OFFCURVE",
"273 513 CURVE",
"245 516 OFFCURVE",
"222 511 OFFCURVE",
"195 514 CURVE",
"132 514 OFFCURVE",
"64 497 OFFCURVE",
"45 456 CURVE"
);
},
{
closed = 1;
nodes = (
"107 454 OFFCURVE",
"142 469 OFFCURVE",
"194 476 CURVE",
"238 480 OFFCURVE",
"279 476 OFFCURVE",
"318 465 CURVE SMOOTH",
"357 454 OFFCURVE",
"377 425 OFFCURVE",
"377 378 CURVE",
"386 271 OFFCURVE",
"379 208 OFFCURVE",
"379 157 CURVE SMOOTH",
"379 92 OFFCURVE",
"361 53 OFFCURVE",
"326 41 CURVE SMOOTH",
"279 25 OFFCURVE",
"221 23 OFFCURVE",
"177 28 CURVE SMOOTH",
"156 31 OFFCURVE",
"135 39 OFFCURVE",
"114 51 CURVE SMOOTH",
"94 63 OFFCURVE",
"81 90 OFFCURVE",
"76 133 CURVE SMOOTH",
"69 202 OFFCURVE",
"65 253 OFFCURVE",
"64 286 CURVE SMOOTH",
"63 319 OFFCURVE",
"64 347 OFFCURVE",
"67 369 CURVE SMOOTH",
"70 392 OFFCURVE",
"77 413 OFFCURVE",
"90 432 CURVE"
);
}
);
width = 448;
}
);
leftKerningGroup = o;
note = o;
rightKerningGroup = o;
unicode = 006F;
},
{
glyphname = p;
layers = (
{
hints = (
{
horizontal = 1;
place = "{0, 37}";
type = Stem;
},
{
horizontal = 1;
place = "{500, -20}";
target = down;
type = TopGhost;
},
{
place = "{41, 48}";
type = Stem;
}
);
layerId = "09B19460-4606-4A98-AA02-96D7DF647D82";
paths = (
{
closed = 1;
nodes = (
"86 -190 LINE",
"90 -111 OFFCURVE",
"93 -161 OFFCURVE",
"89 27 CURVE",
"90 21 OFFCURVE",
"98 16 OFFCURVE",
"111 11 CURVE SMOOTH",
"124 6 OFFCURVE",
"154 3 OFFCURVE",
"200 0 CURVE SMOOTH",
"247 -2 OFFCURVE",
"281 -2 OFFCURVE",
"302 0 CURVE",
"324 1 OFFCURVE",
"344 5 OFFCURVE",
"362 12 CURVE SMOOTH",
"421 33 OFFCURVE",
"443 122 OFFCURVE",
"443 215 CURVE SMOOTH",
"443 298 OFFCURVE",
"437 350 OFFCURVE",
"414 402 CURVE",
"393 455 OFFCURVE",
"351 492 OFFCURVE",
"275 497 CURVE",
"256 500 OFFCURVE",
"228 499 OFFCURVE",
"189 495 CURVE SMOOTH",
"151 491 OFFCURVE",
"122 478 OFFCURVE",
"101 456 CURVE",
"94 445 OFFCURVE",
"90 442 OFFCURVE",
"91 447 CURVE SMOOTH",
"92 452 OFFCURVE",
"92 457 OFFCURVE",
"91 460 CURVE",
"90 475 OFFCURVE",
"90 486 OFFCURVE",
"90 493 CURVE SMOOTH",
"90 496 OFFCURVE",
"90 499 OFFCURVE",
"89 500 CURVE",
"74 499 OFFCURVE",
"56 499 OFFCURVE",
"35 499 CURVE",
"30 307 OFFCURVE",
"41 84 OFFCURVE",
"41 -138 CURVE SMOOTH",
"41 -204 LINE",
"62 -208 OFFCURVE",
"86 -208 OFFCURVE",
"86 -201 CURVE SMOOTH"
);
},
{
closed = 1;
nodes = (
"378 73 OFFCURVE",
"355 45 OFFCURVE",
"328 42 CURVE SMOOTH",
"301 39 OFFCURVE",
"261 37 OFFCURVE",
"207 37 CURVE SMOOTH",
"151 37 OFFCURVE",
"115 55 OFFCURVE",
"99 78 CURVE SMOOTH",
"83 102 OFFCURVE",
"82 143 OFFCURVE",
"82 226 CURVE SMOOTH",
"82 291 OFFCURVE",
"77 345 OFFCURVE",
"96 385 CURVE SMOOTH",
"115 426 OFFCURVE",
"163 453 OFFCURVE",
"220 461 CURVE SMOOTH",
"296 469 OFFCURVE",
"360 450 OFFCURVE",
"380 385 CURVE SMOOTH",
"390 352 OFFCURVE",
"396 325 OFFCURVE",
"399 302 CURVE SMOOTH",
"402 280 OFFCURVE",
"404 257 OFFCURVE",
"405 232 CURVE",
"407 208 OFFCURVE",
"404 172 OFFCURVE",
"397 124 CURVE"
);
}
);
width = 464;
}
);
leftKerningGroup = m;
note = p;
rightKerningGroup = p;
unicode = 0070;
},
{
glyphname = q;
layers = (
{
hints = (
{
horizontal = 1;
place = "{0, 37}";
type = Stem;
},
{
horizontal = 1;
place = "{500, -20}";
target = down;
type = TopGhost;
},
{
place = "{20, 37}";
type = Stem;
},
{
place = "{374, 48}";
type = Stem;
}
);
layerId = "09B19460-4606-4A98-AA02-96D7DF647D82";
paths = (
{
closed = 1;
nodes = (
"377 -201 LINE SMOOTH",
"377 -208 OFFCURVE",
"401 -208 OFFCURVE",
"422 -204 CURVE",
"422 -138 LINE SMOOTH",
"422 84 OFFCURVE",
"433 307 OFFCURVE",
"428 499 CURVE",
"407 499 OFFCURVE",
"389 499 OFFCURVE",
"374 500 CURVE",
"373 499 OFFCURVE",
"373 496 OFFCURVE",
"373 493 CURVE SMOOTH",
"373 486 OFFCURVE",
"373 475 OFFCURVE",
"372 460 CURVE",
"371 457 OFFCURVE",
"370 452 OFFCURVE",
"371 447 CURVE SMOOTH",
"372 442 OFFCURVE",
"369 445 OFFCURVE",
"362 456 CURVE",
"341 478 OFFCURVE",
"312 491 OFFCURVE",
"273 495 CURVE SMOOTH",
"235 499 OFFCURVE",
"207 500 OFFCURVE",
"188 497 CURVE",
"112 492 OFFCURVE",
"71 455 OFFCURVE",
"48 402 CURVE SMOOTH",
"27 350 OFFCURVE",
"20 298 OFFCURVE",
"20 215 CURVE SMOOTH",
"20 122 OFFCURVE",
"42 33 OFFCURVE",
"101 12 CURVE SMOOTH",
"119 5 OFFCURVE",
"139 1 OFFCURVE",
"160 0 CURVE",
"182 -2 OFFCURVE",
"216 -2 OFFCURVE",
"262 0 CURVE SMOOTH",
"309 3 OFFCURVE",
"339 6 OFFCURVE",
"352 11 CURVE SMOOTH",
"365 16 OFFCURVE",
"373 21 OFFCURVE",
"374 27 CURVE",
"370 -161 OFFCURVE",
"373 -111 OFFCURVE",
"377 -190 CURVE"
);
},
{
closed = 1;
nodes = (
"59 172 OFFCURVE",
"56 208 OFFCURVE",
"57 232 CURVE",
"59 257 OFFCURVE",
"61 280 OFFCURVE",
"64 302 CURVE SMOOTH",
"67 325 OFFCURVE",
"73 352 OFFCURVE",
"83 385 CURVE SMOOTH",
"103 450 OFFCURVE",
"167 469 OFFCURVE",
"243 461 CURVE SMOOTH",
"300 453 OFFCURVE",
"348 426 OFFCURVE",
"367 385 CURVE SMOOTH",
"386 345 OFFCURVE",
"381 291 OFFCURVE",
"381 226 CURVE SMOOTH",
"381 143 OFFCURVE",
"380 102 OFFCURVE",
"364 78 CURVE SMOOTH",
"348 55 OFFCURVE",
"312 37 OFFCURVE",
"256 37 CURVE SMOOTH",
"202 37 OFFCURVE",
"161 39 OFFCURVE",
"134 42 CURVE SMOOTH",
"107 45 OFFCURVE",
"85 73 OFFCURVE",
"66 124 CURVE"
);
}
);
width = 463;
}
);
leftKerningGroup = q;
note = q;
rightKerningGroup = q;
unicode = 0071;
},
{
glyphname = r;
layers = (
{
hints = (
{
place = "{37, 45}";
type = Stem;
}
);
layerId = "09B19460-4606-4A98-AA02-96D7DF647D82";
paths = (
{
closed = 1;
nodes = (
"83 480 OFFCURVE",
"82 474 OFFCURVE",
"82 496 CURVE SMOOTH",
"82 501 OFFCURVE",
"55 497 OFFCURVE",
"37 498 CURVE",
"32 322 OFFCURVE",
"38 161 OFFCURVE",
"38 -3 CURVE",
"56 -4 OFFCURVE",
"71 -3 OFFCURVE",
"82 0 CURVE",
"82 240 LINE SMOOTH",
"82 283 OFFCURVE",
"80 324 OFFCURVE",
"79 363 CURVE SMOOTH",
"78 394 OFFCURVE",
"80 414 OFFCURVE",
"87 422 CURVE",
"94 431 OFFCURVE",
"106 437 OFFCURVE",
"124 442 CURVE SMOOTH",
"142 447 OFFCURVE",
"157 451 OFFCURVE",
"170 453 CURVE SMOOTH",
"197 457 OFFCURVE",
"234 460 OFFCURVE",
"257 449 CURVE",
"268 443 LINE",
"268 494 LINE SMOOTH",
"268 498 OFFCURVE",
"181 497 OFFCURVE",
"130 481 CURVE",
"111 474 OFFCURVE",
"88 465 OFFCURVE",
"83 462 CURVE"
);
}
);
width = 296;
}
);
leftKerningGroup = m;
note = r;
rightKerningGroup = r;
unicode = 0072;
},
{
glyphname = s;
layers = (
{
hints = (
{
horizontal = 1;
place = "{-16, 36}";
type = Stem;
},
{
horizontal = 1;
place = "{230, 40}";
type = Stem;
}
);
layerId = "09B19460-4606-4A98-AA02-96D7DF647D82";
paths = (
{
closed = 1;
nodes = (
"436 418 OFFCURVE",
"407 480 OFFCURVE",
"362 499 CURVE SMOOTH",
"340 509 OFFCURVE",
"318 515 OFFCURVE",
"295 517 CURVE SMOOTH",
"228 523 OFFCURVE",
"164 519 OFFCURVE",
"125 509 CURVE SMOOTH",
"60 492 OFFCURVE",
"24 437 OFFCURVE",
"21 378 CURVE SMOOTH",
"20 321 OFFCURVE",
"57 270 OFFCURVE",
"132 245 CURVE",
"169 229 OFFCURVE",
"209 227 OFFCURVE",
"281 230 CURVE SMOOTH",
"354 234 OFFCURVE",
"392 198 OFFCURVE",
"392 143 CURVE",
"393 116 OFFCURVE",
"379 88 OFFCURVE",
"352 57 CURVE SMOOTH",
"325 27 OFFCURVE",
"278 15 OFFCURVE",
"212 20 CURVE SMOOTH",
"146 25 OFFCURVE",
"103 43 OFFCURVE",
"82 73 CURVE SMOOTH",
"61 104 OFFCURVE",
"53 132 OFFCURVE",
"56 158 CURVE",
"48 160 OFFCURVE",
"33 160 OFFCURVE",
"11 157 CURVE",
"11 152 LINE SMOOTH",
"11 45 OFFCURVE",
"102 -21 OFFCURVE",
"236 -16 CURVE",
"313 -17 OFFCURVE",
"384 9 OFFCURVE",
"415 74 CURVE",
"440 147 OFFCURVE",
"436 193 OFFCURVE",
"389 238 CURVE SMOOTH",
"366 261 OFFCURVE",
"325 271 OFFCURVE",
"266 270 CURVE SMOOTH",
"208 269 OFFCURVE",
"167 273 OFFCURVE",
"143 282 CURVE",
"119 292 OFFCURVE",
"101 304 OFFCURVE",
"89 318 CURVE SMOOTH",
"77 333 OFFCURVE",
"70 350 OFFCURVE",
"68 370 CURVE",
"67 390 OFFCURVE",
"71 411 OFFCURVE",
"81 433 CURVE SMOOTH",
"91 456 OFFCURVE",
"121 472 OFFCURVE",
"170 482 CURVE SMOOTH",
"219 492 OFFCURVE",
"266 490 OFFCURVE",
"311 476 CURVE SMOOTH",
"356 462 OFFCURVE",
"381 439 OFFCURVE",
"385 407 CURVE SMOOTH",
"390 375 OFFCURVE",
"391 355 OFFCURVE",
"389 347 CURVE",
"405 343 OFFCURVE",
"421 343 OFFCURVE",
"436 346 CURVE"
);
}
);
width = 450;
}
);
leftKerningGroup = s;
note = s;
rightKerningGroup = s;
unicode = 0073;
},
{
glyphname = t;
layers = (
{
hints = (
{
horizontal = 1;
place = "{-2, 43}";
type = Stem;
},
{
horizontal = 1;
place = "{420, 36}";
type = Stem;
},
{
horizontal = 1;
place = "{686, -20}";
target = down;
type = TopGhost;
},
{
place = "{154, 48}";
type = Stem;
}
);
layerId = "09B19460-4606-4A98-AA02-96D7DF647D82";
paths = (
{
closed = 1;
nodes = (
"199 686 LINE",
"171 686 LINE",
"170 687 OFFCURVE",
"166 686 OFFCURVE",
"157 685 CURVE",
"154 660 OFFCURVE",
"154 628 OFFCURVE",
"154 587 CURVE SMOOTH",
"154 546 OFFCURVE",
"156 484 OFFCURVE",
"156 455 CURVE",
"145 455 OFFCURVE",
"123 455 OFFCURVE",
"88 456 CURVE SMOOTH",
"54 457 OFFCURVE",
"30 457 OFFCURVE",
"17 458 CURVE",
"14 416 LINE",
"28 416 OFFCURVE",
"52 416 OFFCURVE",
"86 415 CURVE SMOOTH",
"121 414 OFFCURVE",
"143 414 OFFCURVE",
"154 415 CURVE",
"153 295 OFFCURVE",
"156 184 OFFCURVE",
"160 100 CURVE SMOOTH",
"162 58 OFFCURVE",
"173 30 OFFCURVE",
"192 17 CURVE SMOOTH",
"212 4 OFFCURVE",
"240 -2 OFFCURVE",
"277 -2 CURVE SMOOTH",
"314 -2 OFFCURVE",
"346 -1 OFFCURVE",
"373 0 CURVE",
"376 10 OFFCURVE",
"376 23 OFFCURVE",
"373 40 CURVE",
"350 39 OFFCURVE",
"328 41 OFFCURVE",
"260 41 CURVE SMOOTH",
"226 42 OFFCURVE",
"208 60 OFFCURVE",
"205 95 CURVE SMOOTH",
"203 117 OFFCURVE",
"202 166 OFFCURVE",
"202 242 CURVE SMOOTH",
"202 421 LINE",
"373 419 LINE",
"377 444 OFFCURVE",
"375 453 OFFCURVE",
"371 464 CURVE",
"298 460 OFFCURVE",
"241 459 OFFCURVE",
"200 458 CURVE",
"200 478 OFFCURVE",
"199 497 OFFCURVE",
"199 514 CURVE SMOOTH"
);
}
);
width = 387;
}
);
leftKerningGroup = t;
note = t;
rightKerningGroup = t;
unicode = 0074;
},
{
glyphname = u;
layers = (
{
hints = (
{
horizontal = 1;
place = "{503, -20}";
target = down;
type = TopGhost;
},
{
place = "{31, 43}";
type = Stem;
},
{
place = "{370, 43}";
type = Stem;
}
);
layerId = "09B19460-4606-4A98-AA02-96D7DF647D82";
paths = (
{
closed = 1;
nodes = (
"369 44 OFFCURVE",
"369 26 OFFCURVE",
"370 0 CURVE",
"370 -4 OFFCURVE",
"379 -4 OFFCURVE",
"386 -3 CURVE",
"413 2 LINE",
"418 178 OFFCURVE",
"412 339 OFFCURVE",
"412 503 CURVE",
"395 502 OFFCURVE",
"381 499 OFFCURVE",
"369 496 CURVE",
"369 492 LINE",
"370 470 OFFCURVE",
"370 448 OFFCURVE",
"370 426 CURVE",
"371 404 OFFCURVE",
"371 369 OFFCURVE",
"372 322 CURVE SMOOTH",
"375 217 LINE SMOOTH",
"376 194 OFFCURVE",
"375 168 OFFCURVE",
"373 138 CURVE SMOOTH",
"371 109 OFFCURVE",
"346 83 OFFCURVE",
"298 62 CURVE SMOOTH",
"251 41 OFFCURVE",
"201 34 OFFCURVE",
"150 40 CURVE SMOOTH",
"99 46 OFFCURVE",
"73 85 OFFCURVE",
"74 158 CURVE SMOOTH",
"75 231 OFFCURVE",
"75 282 OFFCURVE",
"75 311 CURVE SMOOTH",
"75 386 LINE SMOOTH",
"76 427 OFFCURVE",
"77 467 OFFCURVE",
"74 498 CURVE",
"34 498 LINE",
"38 430 OFFCURVE",
"33 323 OFFCURVE",
"31 229 CURVE",
"34 131 OFFCURVE",
"26 65 OFFCURVE",
"59 33 CURVE",
"87 0 OFFCURVE",
"162 -6 OFFCURVE",
"270 11 CURVE SMOOTH",
"339 24 OFFCURVE",
"361 49 OFFCURVE",
"368 53 CURVE"
);
}
);
width = 450;
}
);
leftKerningGroup = u;
note = u;
rightKerningGroup = q;
unicode = 0075;
},
{
glyphname = v;
layers = (
{
hints = (
{
horizontal = 1;
place = "{500, -20}";
target = down;
type = TopGhost;
}
);
layerId = "09B19460-4606-4A98-AA02-96D7DF647D82";
paths = (
{
closed = 1;
nodes = (
"46 497 OFFCURVE",
"32 497 OFFCURVE",
"11 500 CURVE",
"32 421 OFFCURVE",
"47 371 OFFCURVE",
"55 349 CURVE SMOOTH",
"186 2 LINE",
"219 2 OFFCURVE",
"222 0 OFFCURVE",
"243 4 CURVE",
"333 233 LINE SMOOTH",
"349 272 OFFCURVE",
"365 316 OFFCURVE",
"382 366 CURVE SMOOTH",
"399 417 OFFCURVE",
"414 461 OFFCURVE",
"428 499 CURVE",
"414 500 OFFCURVE",
"400 499 OFFCURVE",
"385 497 CURVE",
"325 321 OFFCURVE",
"273 189 OFFCURVE",
"248 126 CURVE SMOOTH",
"236 95 OFFCURVE",
"225 70 OFFCURVE",
"216 51 CURVE",
"200 86 OFFCURVE",
"182 128 OFFCURVE",
"163 175 CURVE SMOOTH",
"144 223 OFFCURVE",
"108 331 OFFCURVE",
"55 499 CURVE"
);
}
);
width = 429;
}
);
leftKerningGroup = v;
note = v;
rightKerningGroup = v;
unicode = 0076;
},
{
glyphname = w;
layers = (
{
hints = (
{
horizontal = 1;
place = "{-2, 21}";
target = up;
type = BottomGhost;
},
{
horizontal = 1;
place = "{501, -20}";
target = down;
type = TopGhost;
}
);
layerId = "09B19460-4606-4A98-AA02-96D7DF647D82";
paths = (
{
closed = 1;
nodes = (
"11 500 LINE",
"51 312 OFFCURVE",
"86 144 OFFCURVE",
"115 -3 CURVE",
"178 -3 LINE",
"233 142 OFFCURVE",
"291 297 OFFCURVE",
"350 462 CURVE",
"421 261 OFFCURVE",
"473 107 OFFCURVE",
"507 -2 CURVE",
"520 -2 OFFCURVE",
"528 -2 OFFCURVE",
"531 -3 CURVE",
"535 -4 OFFCURVE",
"544 -3 OFFCURVE",
"557 -1 CURVE",
"590 124 OFFCURVE",
"611 206 OFFCURVE",
"620 243 CURVE SMOOTH",
"682 499 LINE",
"655 501 OFFCURVE",
"636 502 OFFCURVE",
"624 501 CURVE",
"532 57 LINE",
"481 224 OFFCURVE",
"447 334 OFFCURVE",
"430 385 CURVE SMOOTH",
"413 437 OFFCURVE",
"403 475 OFFCURVE",
"398 499 CURVE",
"388 501 OFFCURVE",
"370 502 OFFCURVE",
"345 501 CURVE",
"320 501 OFFCURVE",
"308 501 OFFCURVE",
"309 500 CURVE",
"310 500 OFFCURVE",
"256 342 OFFCURVE",
"151 43 CURVE",
"134 134 OFFCURVE",
"122 193 OFFCURVE",
"116 222 CURVE SMOOTH",
"110 251 OFFCURVE",
"104 282 OFFCURVE",
"99 314 CURVE SMOOTH",
"90 378 OFFCURVE",
"80 441 OFFCURVE",
"71 498 CURVE"
);
}
);
width = 683;
}
);
leftKerningGroup = w;
note = w;
rightKerningGroup = w;
unicode = 0077;
},
{
glyphname = x;
layers = (
{
hints = (
{
horizontal = 1;
place = "{0, 21}";
target = up;
type = BottomGhost;
},
{
horizontal = 1;
place = "{500, -20}";
target = down;
type = TopGhost;
},
{
horizontal = 1;
place = "{1, 21}";
target = up;
type = BottomGhost;
}
);
layerId = "09B19460-4606-4A98-AA02-96D7DF647D82";
paths = (
{
closed = 1;
nodes = (
"413 500 OFFCURVE",
"413 500 OFFCURVE",
"413 501 CURVE",
"412 501 LINE SMOOTH",
"395 501 OFFCURVE",
"371 500 OFFCURVE",
"359 499 CURVE",
"295 412 OFFCURVE",
"246 344 OFFCURVE",
"211 295 CURVE",
"168 347 OFFCURVE",
"116 414 OFFCURVE",
"54 495 CURVE",
"53 496 OFFCURVE",
"50 496 OFFCURVE",
"45 496 CURVE SMOOTH",
"2 497 LINE",
"44 446 OFFCURVE",
"70 413 OFFCURVE",
"81 397 CURVE",
"184 260 LINE",
"149 204 OFFCURVE",
"122 163 OFFCURVE",
"102 136 CURVE SMOOTH",
"83 110 OFFCURVE",
"52 65 OFFCURVE",
"9 1 CURVE",
"57 1 LINE",
"210 222 LINE",
"244 177 OFFCURVE",
"291 103 OFFCURVE",
"351 2 CURVE",
"352 2 LINE",
"365 1 OFFCURVE",
"394 1 OFFCURVE",
"401 0 CURVE",
"368 55 OFFCURVE",
"346 89 OFFCURVE",
"337 103 CURVE SMOOTH",
"328 118 OFFCURVE",
"295 170 OFFCURVE",
"237 259 CURVE",
"280 322 OFFCURVE",
"314 372 OFFCURVE",
"339 407 CURVE SMOOTH",
"365 443 OFFCURVE",
"389 474 OFFCURVE",
"412 500 CURVE"
);
}
);
width = 413;
}
);
leftKerningGroup = x;
note = x;
rightKerningGroup = x;
unicode = 0078;
},
{
glyphname = y;
layers = (
{
hints = (
{
horizontal = 1;
place = "{-177, 44.84}";
type = Stem;
},
{
place = "{-11.38, 452.38}";
type = Stem;
}
);
layerId = "09B19460-4606-4A98-AA02-96D7DF647D82";
paths = (
{
closed = 1;
nodes = (
"41 501 OFFCURVE",
"24 501 OFFCURVE",
"3 500 CURVE",
"24 425 OFFCURVE",
"44 356 OFFCURVE",
"64 294 CURVE SMOOTH",
"178 -53 LINE",
"185 -79 OFFCURVE",
"171 -100 OFFCURVE",
"135 -116 CURVE SMOOTH",
"99 -132 OFFCURVE",
"52 -136 OFFCURVE",
"-7 -129 CURVE",
"-13 -145 OFFCURVE",
"-13 -161 OFFCURVE",
"-6 -177 CURVE",
"220 -190 OFFCURVE",
"298 -71 OFFCURVE",
"338 69 CURVE SMOOTH",
"359 138 OFFCURVE",
"371 212 OFFCURVE",
"387 279 CURVE SMOOTH",
"404 347 OFFCURVE",
"420 419 OFFCURVE",
"441 499 CURVE",
"391 496 LINE",
"383 476 OFFCURVE",
"360 383 OFFCURVE",
"323 218 CURVE SMOOTH",
"286 53 OFFCURVE",
"255 -30 OFFCURVE",
"230 -33 CURVE",
"211 -20 OFFCURVE",
"153 157 OFFCURVE",
"55 498 CURVE"
);
}
);
width = 449;
}
);
leftKerningGroup = y;
note = y;
rightKerningGroup = y;
unicode = 0079;
},
{
glyphname = z;
layers = (
{
hints = (
{
horizontal = 1;
place = "{1, 48}";
type = Stem;
},
{
horizontal = 1;
place = "{452, 46}";
type = Stem;
}
);
layerId = "09B19460-4606-4A98-AA02-96D7DF647D82";
paths = (
{
closed = 1;
nodes = (
"434 497 LINE",
"431 498 OFFCURVE",
"424 499 OFFCURVE",
"412 498 CURVE",
"306 498 LINE SMOOTH",
"234 498 OFFCURVE",
"136 497 OFFCURVE",
"28 497 CURVE",
"29 482 OFFCURVE",
"29 466 OFFCURVE",
"28 449 CURVE",
"43 451 OFFCURVE",
"88 452 OFFCURVE",
"164 452 CURVE SMOOTH",
"240 452 OFFCURVE",
"288 452 OFFCURVE",
"308 453 CURVE SMOOTH",
"382 456 LINE",
"353 421 OFFCURVE",
"311 375 OFFCURVE",
"256 317 CURVE SMOOTH",
"201 259 OFFCURVE",
"152 205 OFFCURVE",
"110 154 CURVE SMOOTH",
"68 103 OFFCURVE",
"39 68 OFFCURVE",
"23 47 CURVE",
"24 32 OFFCURVE",
"25 16 OFFCURVE",
"24 1 CURVE",
"151 1 OFFCURVE",
"308 4 OFFCURVE",
"431 7 CURVE",
"430 54 LINE",
"394 49 OFFCURVE",
"336 47 OFFCURVE",
"256 49 CURVE SMOOTH",
"176 51 OFFCURVE",
"119 51 OFFCURVE",
"86 48 CURVE",
"191 175 OFFCURVE",
"271 267 OFFCURVE",
"326 322 CURVE SMOOTH",
"381 378 OFFCURVE",
"417 422 OFFCURVE",
"434 453 CURVE"
);
}
);
width = 456;
}
);
leftKerningGroup = z;
note = z;
rightKerningGroup = z;
unicode = 007A;
},
{
glyphname = A;
layers = (
{
hints = (
{
horizontal = 1;
place = "{0, 21}";
target = up;
type = BottomGhost;
},
{
horizontal = 1;
place = "{170, 43}";
type = Stem;
},
{
horizontal = 1;
place = "{705, -20}";
target = down;
type = TopGhost;
}
);
layerId = "09B19460-4606-4A98-AA02-96D7DF647D82";
paths = (
{
closed = 1;
nodes = (
"437 1 LINE",
"362 351 LINE",
"280 705 LINE",
"187 697 OFFCURVE",
"190 703 OFFCURVE",
"166 700 CURVE",
"102 539 OFFCURVE",
"75 373 OFFCURVE",
"46 241 CURVE",
"22 110 OFFCURVE",
"8 15 OFFCURVE",
"4 2 CURVE",
"47 2 LINE",
"50 3 OFFCURVE",
"51 3 OFFCURVE",
"52 3 CURVE",
"67 87 LINE SMOOTH",
"70 103 OFFCURVE",
"76 131 OFFCURVE",
"83 172 CURVE",
"348 169 LINE",
"359 127 OFFCURVE",
"367 98 OFFCURVE",
"370 83 CURVE",
"374 68 OFFCURVE",
"378 53 OFFCURVE",
"381 38 CURVE",
"385 23 OFFCURVE",
"389 11 OFFCURVE",
"393 0 CURVE",
"394 0 LINE",
"392 -4 OFFCURVE",
"406 -4 OFFCURVE",
"437 0 CURVE"
);
},
{
closed = 1;
nodes = (
"259 211 OFFCURVE",
"196 210 OFFCURVE",
"157 211 CURVE SMOOTH",
"119 212 OFFCURVE",
"96 212 OFFCURVE",
"88 213 CURVE",
"120 372 OFFCURVE",
"144 485 OFFCURVE",
"159 554 CURVE SMOOTH",
"175 623 OFFCURVE",
"186 658 OFFCURVE",
"192 658 CURVE",
"199 659 OFFCURVE",
"208 659 OFFCURVE",
"220 659 CURVE SMOOTH",
"247 659 LINE SMOOTH",
"253 659 OFFCURVE",
"286 510 OFFCURVE",
"347 213 CURVE"
);
}
);
width = 434;
}
);
leftKerningGroup = A;
note = A;
rightKerningGroup = A;
unicode = 0041;
},
{
glyphname = B;
layers = (
{
hints = (
{
horizontal = 1;
place = "{298, 48}";
type = Stem;
},
{
place = "{41, 41}";
type = Stem;
},
{
place = "{391, 48}";
type = Stem;
}
);
layerId = "09B19460-4606-4A98-AA02-96D7DF647D82";
paths = (
{
closed = 1;
nodes = (
"388 339 OFFCURVE",
"385 343 OFFCURVE",
"390 352 CURVE SMOOTH",
"417 397 OFFCURVE",
"439 452 OFFCURVE",
"439 508 CURVE SMOOTH",
"439 732 OFFCURVE",
"202 737 OFFCURVE",
"42 693 CURVE",
"41 692 LINE",
"45 460 OFFCURVE",
"36 235 OFFCURVE",
"44 4 CURVE",
"51 1 OFFCURVE",
"58 2 OFFCURVE",
"66 2 CURVE SMOOTH",
"211 -2 OFFCURVE",
"431 -44 OFFCURVE",
"463 145 CURVE SMOOTH",
"479 231 OFFCURVE",
"437 279 OFFCURVE",
"395 331 CURVE"
);
},
{
closed = 1;
nodes = (
"361 381 OFFCURVE",
"350 363 OFFCURVE",
"342 359 CURVE SMOOTH",
"334 355 OFFCURVE",
"312 351 OFFCURVE",
"275 347 CURVE SMOOTH",
"238 343 OFFCURVE",
"200 343 OFFCURVE",
"161 346 CURVE SMOOTH",
"122 349 OFFCURVE",
"98 352 OFFCURVE",
"88 353 CURVE",
"82 376 OFFCURVE",
"80 430 OFFCURVE",
"82 514 CURVE SMOOTH",
"84 599 OFFCURVE",
"84 649 OFFCURVE",
"83 664 CURVE",
"93 669 OFFCURVE",
"112 672 OFFCURVE",
"140 673 CURVE SMOOTH",
"169 674 OFFCURVE",
"197 675 OFFCURVE",
"226 675 CURVE SMOOTH",
"255 676 OFFCURVE",
"288 668 OFFCURVE",
"327 652 CURVE SMOOTH",
"366 637 OFFCURVE",
"387 601 OFFCURVE",
"391 544 CURVE SMOOTH",
"396 488 OFFCURVE",
"390 445 OFFCURVE",
"375 414 CURVE"
);
},
{
closed = 1;
nodes = (
"386 86 OFFCURVE",
"369 62 OFFCURVE",
"353 53 CURVE SMOOTH",
"338 45 OFFCURVE",
"312 39 OFFCURVE",
"275 35 CURVE SMOOTH",
"238 31 OFFCURVE",
"201 31 OFFCURVE",
"164 34 CURVE SMOOTH",
"127 37 OFFCURVE",
"103 40 OFFCURVE",
"93 41 CURVE",
"86 206 OFFCURVE",
"70 295 OFFCURVE",
"87 298 CURVE",
"164 303 OFFCURVE",
"209 305 OFFCURVE",
"222 304 CURVE",
"235 304 OFFCURVE",
"263 304 OFFCURVE",
"306 303 CURVE SMOOTH",
"349 303 OFFCURVE",
"379 279 OFFCURVE",
"395 232 CURVE SMOOTH",
"411 185 OFFCURVE",
"414 150 OFFCURVE",
"404 126 CURVE SMOOTH"
);
}
);
width = 477;
}
);
note = B;
rightKerningGroup = B;
unicode = 0042;
},
{
glyphname = C;
layers = (
{
hints = (
{
place = "{33, 43}";
type = Stem;
}
);
layerId = "09B19460-4606-4A98-AA02-96D7DF647D82";
paths = (
{
closed = 1;
nodes = (
"68 575 OFFCURVE",
"113 682 OFFCURVE",
"212 680 CURVE SMOOTH",
"294 678 OFFCURVE",
"348 661 OFFCURVE",
"373 628 CURVE SMOOTH",
"398 595 OFFCURVE",
"413 570 OFFCURVE",
"416 553 CURVE",
"420 536 OFFCURVE",
"423 512 OFFCURVE",
"425 480 CURVE SMOOTH",
"427 449 OFFCURVE",
"427 428 OFFCURVE",
"426 418 CURVE",
"422 415 OFFCURVE",
"437 415 OFFCURVE",
"471 420 CURVE",
"479 517 OFFCURVE",
"464 598 OFFCURVE",
"397 659 CURVE SMOOTH",
"334 716 OFFCURVE",
"243 744 OFFCURVE",
"150 714 CURVE",
"131 709 OFFCURVE",
"114 702 OFFCURVE",
"99 691 CURVE",
"74 668 OFFCURVE",
"56 639 OFFCURVE",
"44 604 CURVE",
"40 594 OFFCURVE",
"36 572 OFFCURVE",
"33 537 CURVE",
"30 321 OFFCURVE",
"31 218 OFFCURVE",
"36 122 CURVE",
"47 10 OFFCURVE",
"168 -24 OFFCURVE",
"263 -11 CURVE",
"412 -4 OFFCURVE",
"496 134 OFFCURVE",
"465 287 CURVE",
"451 285 OFFCURVE",
"436 284 OFFCURVE",
"421 283 CURVE",
"430 200 OFFCURVE",
"419 139 OFFCURVE",
"387 98 CURVE SMOOTH",
"355 57 OFFCURVE",
"316 34 OFFCURVE",
"269 28 CURVE SMOOTH",
"220 23 OFFCURVE",
"176 32 OFFCURVE",
"137 55 CURVE SMOOTH",
"98 78 OFFCURVE",
"77 125 OFFCURVE",
"76 197 CURVE SMOOTH",
"75 235 OFFCURVE",
"75 289 OFFCURVE",
"76 360 CURVE"
);
}
);
width = 488;
}
);
leftKerningGroup = C;
note = C;
rightKerningGroup = C;
unicode = 0043;
},
{
glyphname = D;
layers = (
{
hints = (
{
horizontal = 1;
place = "{1, 21}";
target = up;
type = BottomGhost;
},
{
horizontal = 1;
place = "{657, 44}";
type = Stem;
},
{
place = "{40, 50}";
type = Stem;
},
{
horizontal = 1;
place = "{5, 41}";
type = Stem;
}
);
layerId = "09B19460-4606-4A98-AA02-96D7DF647D82";
paths = (
{
closed = 1;
nodes = (
"369 656 OFFCURVE",
"327 690 OFFCURVE",
"284 701 CURVE",
"207 698 OFFCURVE",
"119 710 OFFCURVE",
"43 691 CURVE",
"40 687 LINE",
"45 455 OFFCURVE",
"27 212 OFFCURVE",
"56 1 CURVE",
"57 2 LINE",
"141 2 OFFCURVE",
"232 2 OFFCURVE",
"320 5 CURVE",
"345 36 OFFCURVE",
"369 70 OFFCURVE",
"392 105 CURVE SMOOTH",
"415 140 OFFCURVE",
"430 168 OFFCURVE",
"437 188 CURVE SMOOTH",
"444 208 OFFCURVE",
"447 218 OFFCURVE",
"447 218 CURVE",
"448 218 OFFCURVE",
"448 218 OFFCURVE",
"448 219 CURVE",
"460 280 OFFCURVE",
"459 344 OFFCURVE",
"462 407 CURVE",
"461 428 OFFCURVE",
"460 449 OFFCURVE",
"453 470 CURVE",
"441 523 OFFCURVE",
"421 572 OFFCURVE",
"393 617 CURVE SMOOTH"
);
},
{
closed = 1;
nodes = (
"400 206 OFFCURVE",
"380 148 OFFCURVE",
"358 121 CURVE SMOOTH",
"336 95 OFFCURVE",
"313 71 OFFCURVE",
"290 50 CURVE",
"259 50 LINE",
"247 49 OFFCURVE",
"218 47 OFFCURVE",
"173 46 CURVE SMOOTH",
"128 45 OFFCURVE",
"101 46 OFFCURVE",
"94 49 CURVE",
"86 201 LINE SMOOTH",
"82 282 OFFCURVE",
"81 334 OFFCURVE",
"83 356 CURVE",
"86 379 OFFCURVE",
"87 429 OFFCURVE",
"87 508 CURVE SMOOTH",
"87 587 OFFCURVE",
"85 636 OFFCURVE",
"80 657 CURVE",
"88 657 LINE",
"165 661 OFFCURVE",
"210 663 OFFCURVE",
"223 662 CURVE",
"236 662 OFFCURVE",
"253 662 OFFCURVE",
"273 661 CURVE SMOOTH",
"293 660 OFFCURVE",
"318 643 OFFCURVE",
"347 608 CURVE SMOOTH",
"377 573 OFFCURVE",
"400 518 OFFCURVE",
"417 441 CURVE",
"422 393 OFFCURVE",
"423 345 OFFCURVE",
"418 296 CURVE"
);
}
);
width = 482;
}
);
note = D;
rightKerningGroup = D;
unicode = 0044;
},
{
glyphname = E;
layers = (
{
hints = (
{
horizontal = 1;
place = "{3, 38}";
type = Stem;
},
{
horizontal = 1;
place = "{324, 43}";
type = Stem;
},
{
horizontal = 1;
place = "{653, 36}";
type = Stem;
},
{
place = "{45, 41}";
type = Stem;
}
);
layerId = "09B19460-4606-4A98-AA02-96D7DF647D82";
paths = (
{
closed = 1;
nodes = (
"165 655 OFFCURVE",
"239 657 OFFCURVE",
"269 657 CURVE SMOOTH",
"291 657 OFFCURVE",
"313 657 OFFCURVE",
"335 656 CURVE",
"379 656 OFFCURVE",
"416 660 OFFCURVE",
"459 657 CURVE",
"460 695 LINE SMOOTH",
"460 701 OFFCURVE",
"201 697 OFFCURVE",
"46 689 CURVE",
"33 460 OFFCURVE",
"45 237 OFFCURVE",
"45 5 CURVE",
"174 -6 OFFCURVE",
"319 4 OFFCURVE",
"455 3 CURVE",
"457 41 LINE",
"412 40 OFFCURVE",
"368 40 OFFCURVE",
"325 42 CURVE SMOOTH",
"206 50 OFFCURVE",
"189 40 OFFCURVE",
"86 46 CURVE",
"91 205 OFFCURVE",
"85 280 OFFCURVE",
"92 319 CURVE",
"95 322 OFFCURVE",
"120 323 OFFCURVE",
"165 324 CURVE SMOOTH",
"210 325 OFFCURVE",
"239 326 OFFCURVE",
"250 325 CURVE SMOOTH",
"262 324 OFFCURVE",
"270 324 OFFCURVE",
"274 325 CURVE SMOOTH",
"278 326 OFFCURVE",
"294 328 OFFCURVE",
"320 329 CURVE",
"320 332 OFFCURVE",
"320 345 OFFCURVE",
"319 364 CURVE",
"298 366 OFFCURVE",
"278 366 OFFCURVE",
"257 366 CURVE SMOOTH",
"166 366 OFFCURVE",
"182 366 OFFCURVE",
"87 368 CURVE",
"82 386 OFFCURVE",
"82 433 OFFCURVE",
"86 509 CURVE SMOOTH",
"89 571 OFFCURVE",
"92 649 OFFCURVE",
"92 653 CURVE"
);
},
{
closed = 1;
nodes = (
"320 329 LINE",
"321 328 OFFCURVE",
"321 328 OFFCURVE",
"321 329 CURVE"
);
}
);
width = 481;
}
);
note = E;
rightKerningGroup = E;
unicode = 0045;
},
{
glyphname = F;
layers = (
{
hints = (
{
place = "{43, 42}";
type = Stem;
}
);
layerId = "09B19460-4606-4A98-AA02-96D7DF647D82";
paths = (
{
closed = 1;
nodes = (
"353 318 LINE",
"353 317 OFFCURVE",
"359 347 OFFCURVE",
"353 358 CURVE",
"338 357 OFFCURVE",
"324 357 OFFCURVE",
"297 357 CURVE",
"270 358 OFFCURVE",
"207 358 OFFCURVE",
"90 358 CURVE SMOOTH",
"89 358 OFFCURVE",
"89 358 OFFCURVE",
"88 359 CURVE",
"85 376 OFFCURVE",
"83 401 OFFCURVE",
"84 434 CURVE SMOOTH",
"85 467 OFFCURVE",
"85 536 OFFCURVE",
"85 643 CURVE",
"232 651 LINE",
"303 654 LINE SMOOTH",
"327 655 OFFCURVE",
"350 655 OFFCURVE",
"373 654 CURVE SMOOTH",
"489 648 LINE",
"490 662 OFFCURVE",
"490 673 OFFCURVE",
"490 682 CURVE",
"378 710 OFFCURVE",
"112 692 OFFCURVE",
"43 680 CURVE",
"43 679 LINE SMOOTH",
"43 368 OFFCURVE",
"41 244 OFFCURVE",
"41 2 CURVE",
"42 1 LINE",
"45 0 OFFCURVE",
"54 -1 OFFCURVE",
"70 -2 CURVE SMOOTH",
"86 -3 OFFCURVE",
"88 -3 OFFCURVE",
"76 -2 CURVE SMOOTH",
"65 -1 OFFCURVE",
"68 0 OFFCURVE",
"86 1 CURVE",
"88 120 LINE SMOOTH",
"89 162 OFFCURVE",
"88 227 OFFCURVE",
"87 314 CURVE",
"88 314 LINE SMOOTH",
"199 317 OFFCURVE",
"263 319 OFFCURVE",
"280 319 CURVE SMOOTH",
"297 319 OFFCURVE",
"321 319 OFFCURVE",
"351 318 CURVE SMOOTH"
);
}
);
width = 494;
}
);
note = F;
rightKerningGroup = F;
unicode = 0046;
},
{
glyphname = G;
layers = (
{
hints = (
{
horizontal = 1;
place = "{-15.65, 35.78}";
type = Stem;
},
{
horizontal = 1;
place = "{314, 44.5}";
type = Stem;
},
{
horizontal = 1;
place = "{665.04, 36.74}";
type = Stem;
},
{
place = "{38, 33}";
type = Stem;
},
{
place = "{413.73, 37.27}";
type = Stem;
},
{
place = "{402, 47.5}";
type = Stem;
}
);
layerId = "09B19460-4606-4A98-AA02-96D7DF647D82";
paths = (
{
closed = 1;
nodes = (
"242 347 OFFCURVE",
"241 347 OFFCURVE",
"241 347 CURVE SMOOTH",
"240 347 OFFCURVE",
"240 347 OFFCURVE",
"240 346 CURVE SMOOTH",
"240 345 LINE",
"241 333 OFFCURVE",
"243 324 OFFCURVE",
"245 317 CURVE",
"252 314 OFFCURVE",
"265 314 OFFCURVE",
"280 314 CURVE",
"288 315 OFFCURVE",
"309 315 OFFCURVE",
"342 314 CURVE SMOOTH",
"376 314 OFFCURVE",
"395 314 OFFCURVE",
"399 313 CURVE SMOOTH",
"403 312 OFFCURVE",
"402 299 OFFCURVE",
"406 286 CURVE SMOOTH",
"410 273 OFFCURVE",
"418 211 OFFCURVE",
"411 124 CURVE",
"395 80 OFFCURVE",
"381 55 OFFCURVE",
"369 50 CURVE SMOOTH",
"329 32 LINE SMOOTH",
"300 19 OFFCURVE",
"253 12 OFFCURVE",
"173 36 CURVE",
"158 45 OFFCURVE",
"148 52 OFFCURVE",
"142 56 CURVE",
"129 66 OFFCURVE",
"116 81 OFFCURVE",
"102 100 CURVE",
"89 119 OFFCURVE",
"78 170 OFFCURVE",
"71 253 CURVE SMOOTH",
"67 302 OFFCURVE",
"70 360 OFFCURVE",
"73 404 CURVE SMOOTH",
"77 449 OFFCURVE",
"77 509 OFFCURVE",
"86 541 CURVE",
"95 579 LINE SMOOTH",
"100 599 OFFCURVE",
"111 616 OFFCURVE",
"130 631 CURVE SMOOTH",
"167 660 OFFCURVE",
"220 676 OFFCURVE",
"307 657 CURVE SMOOTH",
"350 648 OFFCURVE",
"378 627 OFFCURVE",
"389 594 CURVE SMOOTH",
"400 561 OFFCURVE",
"405 536 OFFCURVE",
"402 519 CURVE SMOOTH",
"399 502 OFFCURVE",
"399 490 OFFCURVE",
"401 483 CURVE",
"444 468 OFFCURVE",
"446 471 OFFCURVE",
"449 475 CURVE",
"450 481 LINE",
"469 644 OFFCURVE",
"343 718 OFFCURVE",
"194 699 CURVE SMOOTH",
"158 694 OFFCURVE",
"124 685 OFFCURVE",
"97 662 CURVE",
"58 635 OFFCURVE",
"45 591 OFFCURVE",
"38 547 CURVE SMOOTH",
"31 504 OFFCURVE",
"29 459 OFFCURVE",
"28 416 CURVE SMOOTH",
"25 317 OFFCURVE",
"30 272 OFFCURVE",
"38 187 CURVE SMOOTH",
"41 160 OFFCURVE",
"46 132 OFFCURVE",
"50 117 CURVE SMOOTH",
"66 60 OFFCURVE",
"91 22 OFFCURVE",
"144 -1 CURVE SMOOTH",
"208 -28 OFFCURVE",
"290 -13 OFFCURVE",
"356 6 CURVE",
"407 25 OFFCURVE",
"444 57 OFFCURVE",
"451 125 CURVE",
"464 197 OFFCURVE",
"459 280 OFFCURVE",
"451 351 CURVE",
"450 352 LINE",
"448 352 LINE SMOOTH",
"421 352 OFFCURVE",
"277 369 OFFCURVE",
"243 348 CURVE"
);
}
);
width = 481;
}
);
leftKerningGroup = G;
note = G;
rightKerningGroup = G;
unicode = 0047;
},
{
glyphname = H;
layers = (
{
hints = (
{
horizontal = 1;
place = "{1, 21}";
target = up;
type = BottomGhost;
},
{
horizontal = 1;
place = "{317, 40}";
type = Stem;
},
{
place = "{54, 33}";
type = Stem;
},
{
place = "{402, 53}";
type = Stem;
},
{
place = "{40, 33}";
type = Stem;
},
{
place = "{422, 33}";
type = Stem;
}
);
layerId = "09B19460-4606-4A98-AA02-96D7DF647D82";
paths = (
{
closed = 1;
nodes = (
"442 706 LINE",
"432 707 OFFCURVE",
"419 706 OFFCURVE",
"402 705 CURVE",
"401 574 OFFCURVE",
"403 460 OFFCURVE",
"406 362 CURVE",
"405 362 LINE",
"372 359 OFFCURVE",
"261 356 OFFCURVE",
"88 357 CURVE SMOOTH",
"87 357 LINE",
"80 447 OFFCURVE",
"76 560 OFFCURVE",
"73 697 CURVE",
"43 699 LINE",
"40 699 LINE",
"40 698 LINE SMOOTH",
"36 494 OFFCURVE",
"46 114 OFFCURVE",
"54 1 CURVE",
"63 1 OFFCURVE",
"76 1 OFFCURVE",
"93 2 CURVE",
"90 45 OFFCURVE",
"92 88 OFFCURVE",
"91 133 CURVE SMOOTH",
"90 156 OFFCURVE",
"90 217 OFFCURVE",
"90 317 CURVE",
"179 323 OFFCURVE",
"255 324 OFFCURVE",
"318 321 CURVE",
"409 322 LINE",
"412 227 OFFCURVE",
"413 168 OFFCURVE",
"413 145 CURVE",
"414 122 OFFCURVE",
"417 75 OFFCURVE",
"422 6 CURVE",
"423 6 LINE",
"442 4 OFFCURVE",
"458 4 OFFCURVE",
"469 6 CURVE"
);
}
);
width = 499;
}
);
note = H;
unicode = 0048;
},
{
glyphname = I;
layers = (
{
hints = (
{
horizontal = 1;
place = "{-4, 21}";
target = up;
type = BottomGhost;
},
{
place = "{95, 59}";
type = Stem;
}
);
layerId = "09B19460-4606-4A98-AA02-96D7DF647D82";
paths = (
{
closed = 1;
nodes = (
"155 703 LINE",
"128 706 LINE",
"125 706 OFFCURVE",
"125 709 OFFCURVE",
"104 708 CURVE",
"104 706 LINE",
"98 650 OFFCURVE",
"95 593 OFFCURVE",
"95 534 CURVE SMOOTH",
"96 476 OFFCURVE",
"96 392 OFFCURVE",
"97 282 CURVE SMOOTH",
"98 173 OFFCURVE",
"97 77 OFFCURVE",
"96 -4 CURVE",
"122 1 OFFCURVE",
"140 -2 OFFCURVE",
"154 1 CURVE",
"147 236 OFFCURVE",
"152 469 OFFCURVE",
"155 699 CURVE SMOOTH"
);
}
);
width = 260;
}
);
note = I;
rightKerningGroup = I;
unicode = 0049;
},
{
glyphname = J;
layers = (
{
hints = (
{
horizontal = 1;
place = "{712, -20}";
target = down;
type = TopGhost;
},
{
place = "{379, 50}";
type = Stem;
}
);
layerId = "09B19460-4606-4A98-AA02-96D7DF647D82";
paths = (
{
closed = 1;
nodes = (
"379 710 LINE",
"379 703 LINE SMOOTH",
"374 544 OFFCURVE",
"378 381 OFFCURVE",
"378 250 CURVE",
"374 190 LINE SMOOTH",
"373 161 OFFCURVE",
"366 131 OFFCURVE",
"353 100 CURVE SMOOTH",
"340 70 OFFCURVE",
"299 49 OFFCURVE",
"230 38 CURVE SMOOTH",
"161 27 OFFCURVE",
"116 39 OFFCURVE",
"93 74 CURVE SMOOTH",
"70 109 OFFCURVE",
"57 143 OFFCURVE",
"54 176 CURVE SMOOTH",
"51 209 OFFCURVE",
"48 232 OFFCURVE",
"46 245 CURVE",
"43 280 LINE",
"43 286 LINE",
"31 288 OFFCURVE",
"18 289 OFFCURVE",
"4 288 CURVE",
"-1 186 OFFCURVE",
"17 32 OFFCURVE",
"126 0 CURVE",
"186 -13 OFFCURVE",
"257 -12 OFFCURVE",
"313 16 CURVE",
"437 62 OFFCURVE",
"424 220 OFFCURVE",
"429 329 CURVE SMOOTH",
"432 458 OFFCURVE",
"422 587 OFFCURVE",
"425 712 CURVE"
);
}
);
width = 463;
}
);
leftKerningGroup = J;
note = J;
rightKerningGroup = J;
unicode = 004A;
},
{
glyphname = K;
layers = (
{
hints = (
{
horizontal = 1;
place = "{699, -20}";
target = down;
type = TopGhost;
},
{
place = "{45, 53}";
type = Stem;
}
);
layerId = "09B19460-4606-4A98-AA02-96D7DF647D82";
paths = (
{
closed = 1;
nodes = (
"463 4 LINE",
"133 362 LINE",
"204 427 OFFCURVE",
"248 469 OFFCURVE",
"266 489 CURVE SMOOTH",
"284 509 OFFCURVE",
"312 538 OFFCURVE",
"350 575 CURVE SMOOTH",
"389 613 OFFCURVE",
"426 652 OFFCURVE",
"462 692 CURVE",
"398 692 LINE",
"381 671 OFFCURVE",
"361 649 OFFCURVE",
"338 627 CURVE SMOOTH",
"315 605 OFFCURVE",
"283 574 OFFCURVE",
"241 535 CURVE SMOOTH",
"138 438 LINE SMOOTH",
"111 413 OFFCURVE",
"98 400 OFFCURVE",
"98 401 CURVE",
"97 476 OFFCURVE",
"96 535 OFFCURVE",
"97 577 CURVE SMOOTH",
"98 619 OFFCURVE",
"97 659 OFFCURVE",
"96 697 CURVE",
"45 699 LINE",
"46 466 OFFCURVE",
"32 234 OFFCURVE",
"43 5 CURVE",
"60 1 OFFCURVE",
"80 0 OFFCURVE",
"99 5 CURVE",
"99 24 OFFCURVE",
"98 57 OFFCURVE",
"96 106 CURVE SMOOTH",
"94 155 OFFCURVE",
"94 199 OFFCURVE",
"96 236 CURVE SMOOTH",
"99 273 OFFCURVE",
"99 302 OFFCURVE",
"98 322 CURVE",
"124 299 OFFCURVE",
"154 268 OFFCURVE",
"189 229 CURVE SMOOTH",
"224 190 OFFCURVE",
"296 115 OFFCURVE",
"403 2 CURVE"
);
}
);
width = 459;
}
);
note = K;
rightKerningGroup = K;
unicode = 004B;
},
{
glyphname = L;
layers = (
{
hints = (
{
horizontal = 1;
place = "{0, 21}";
target = up;
type = BottomGhost;
},
{
place = "{36, 59}";
type = Stem;
},
{
horizontal = 1;
place = "{-1, 47}";
type = Stem;
}
);
layerId = "09B19460-4606-4A98-AA02-96D7DF647D82";
paths = (
{
closed = 1;
nodes = (
"455 22 OFFCURVE",
"456 36 OFFCURVE",
"456 43 CURVE",
"440 41 OFFCURVE",
"382 44 OFFCURVE",
"324 46 CURVE SMOOTH",
"269 49 LINE SMOOTH",
"252 50 OFFCURVE",
"219 49 OFFCURVE",
"172 48 CURVE SMOOTH",
"125 47 OFFCURVE",
"100 46 OFFCURVE",
"95 45 CURVE",
"98 161 OFFCURVE",
"99 242 OFFCURVE",
"98 287 CURVE",
"98 333 OFFCURVE",
"98 379 OFFCURVE",
"97 425 CURVE SMOOTH",
"96 517 OFFCURVE",
"94 609 OFFCURVE",
"97 696 CURVE",
"78 704 OFFCURVE",
"52 708 OFFCURVE",
"39 703 CURVE",
"43 422 OFFCURVE",
"48 317 OFFCURVE",
"36 17 CURVE",
"36 -1 LINE",
"358 -6 OFFCURVE",
"403 3 OFFCURVE",
"431 0 CURVE",
"438 0 OFFCURVE",
"446 0 OFFCURVE",
"454 1 CURVE"
);
}
);
width = 461;
}
);
note = L;
rightKerningGroup = L;
unicode = 004C;
},
{
glyphname = M;
layers = (
{
hints = (
{
horizontal = 1;
place = "{-1, 21}";
target = up;
type = BottomGhost;
},
{
horizontal = 1;
place = "{697, -20}";
target = down;
type = TopGhost;
},
{
place = "{44, 48}";
type = Stem;
},
{
place = "{407, 52}";
type = Stem;
}
);
layerId = "09B19460-4606-4A98-AA02-96D7DF647D82";
paths = (
{
closed = 1;
nodes = (
"459 318 LINE",
"466 446 OFFCURVE",
"455 569 OFFCURVE",
"460 697 CURVE",
"439 697 OFFCURVE",
"406 694 OFFCURVE",
"397 695 CURVE",
"391 687 OFFCURVE",
"370 649 OFFCURVE",
"335 581 CURVE SMOOTH",
"300 514 OFFCURVE",
"280 471 OFFCURVE",
"273 453 CURVE SMOOTH",
"267 436 OFFCURVE",
"257 415 OFFCURVE",
"244 391 CURVE",
"227 427 OFFCURVE",
"203 477 OFFCURVE",
"171 542 CURVE SMOOTH",
"139 607 OFFCURVE",
"120 647 OFFCURVE",
"114 660 CURVE SMOOTH",
"108 674 OFFCURVE",
"102 684 OFFCURVE",
"96 691 CURVE",
"95 691 LINE",
"70 690 OFFCURVE",
"53 689 OFFCURVE",
"44 686 CURVE",
"40 143 OFFCURVE",
"40 21 OFFCURVE",
"45 3 CURVE",
"46 1 OFFCURVE",
"47 0 OFFCURVE",
"48 0 CURVE",
"103 3 LINE",
"99 65 OFFCURVE",
"96 128 OFFCURVE",
"95 192 CURVE SMOOTH",
"89 613 LINE",
"138 514 LINE SMOOTH",
"171 448 OFFCURVE",
"194 400 OFFCURVE",
"207 371 CURVE SMOOTH",
"220 342 OFFCURVE",
"234 320 OFFCURVE",
"248 304 CURVE",
"251 304 OFFCURVE",
"255 310 OFFCURVE",
"260 323 CURVE SMOOTH",
"265 336 OFFCURVE",
"287 381 OFFCURVE",
"326 460 CURVE SMOOTH",
"392 595 LINE",
"397 607 OFFCURVE",
"402 617 OFFCURVE",
"407 624 CURVE",
"406 441 OFFCURVE",
"406 332 OFFCURVE",
"407 299 CURVE SMOOTH",
"409 266 OFFCURVE",
"409 232 OFFCURVE",
"408 197 CURVE SMOOTH",
"405 128 OFFCURVE",
"406 59 OFFCURVE",
"409 2 CURVE",
"425 2 OFFCURVE",
"436 2 OFFCURVE",
"456 -1 CURVE"
);
}
);
width = 501;
}
);
note = M;
rightKerningGroup = I;
unicode = 004D;
},
{
glyphname = N;
layers = (
{
hints = (
{
place = "{39, 58}";
type = Stem;
},
{
place = "{407, 49}";
type = Stem;
}
);
layerId = "09B19460-4606-4A98-AA02-96D7DF647D82";
paths = (
{
closed = 1;
nodes = (
"441 1 OFFCURVE",
"456 -1 OFFCURVE",
"457 0 CURVE",
"457 20 LINE",
"453 51 OFFCURVE",
"453 77 OFFCURVE",
"456 100 CURVE",
"456 137 OFFCURVE",
"457 172 OFFCURVE",
"457 211 CURVE SMOOTH",
"457 268 OFFCURVE",
"457 326 OFFCURVE",
"456 382 CURVE",
"456 704 LINE",
"437 708 OFFCURVE",
"417 709 OFFCURVE",
"398 708 CURVE",
"398 691 OFFCURVE",
"399 676 OFFCURVE",
"400 661 CURVE SMOOTH",
"401 647 OFFCURVE",
"404 542 OFFCURVE",
"407 347 CURVE SMOOTH",
"407 299 OFFCURVE",
"410 259 OFFCURVE",
"410 190 CURVE SMOOTH",
"410 124 LINE",
"405 131 OFFCURVE",
"397 144 OFFCURVE",
"387 163 CURVE",
"378 182 OFFCURVE",
"336 255 OFFCURVE",
"263 384 CURVE SMOOTH",
"190 513 OFFCURVE",
"152 579 OFFCURVE",
"151 582 CURVE",
"139 610 OFFCURVE",
"117 648 OFFCURVE",
"109 664 CURVE",
"96 694 LINE",
"96 695 OFFCURVE",
"90 697 OFFCURVE",
"77 699 CURVE SMOOTH",
"64 701 OFFCURVE",
"55 701 OFFCURVE",
"48 700 CURVE",
"41 615 OFFCURVE",
"39 524 OFFCURVE",
"39 432 CURVE SMOOTH",
"39 307 OFFCURVE",
"42 198 OFFCURVE",
"42 71 CURVE SMOOTH",
"42 1 LINE",
"73 1 OFFCURVE",
"87 -4 OFFCURVE",
"102 0 CURVE",
"101 23 OFFCURVE",
"101 52 OFFCURVE",
"101 83 CURVE SMOOTH",
"101 111 OFFCURVE",
"100 181 OFFCURVE",
"97 294 CURVE SMOOTH",
"94 407 OFFCURVE",
"93 475 OFFCURVE",
"94 500 CURVE SMOOTH",
"95 525 OFFCURVE",
"94 548 OFFCURVE",
"92 569 CURVE",
"96 593 OFFCURVE",
"96 580 OFFCURVE",
"119 533 CURVE",
"250 293 OFFCURVE",
"326 157 OFFCURVE",
"347 125 CURVE SMOOTH",
"368 94 OFFCURVE",
"390 53 OFFCURVE",
"412 4 CURVE"
);
}
);
width = 498;
}
);
note = N;
rightKerningGroup = I;
unicode = 004E;
},
{
glyphname = O;
layers = (
{
hints = (
{
place = "{31, 42}";
type = Stem;
},
{
place = "{408, 42}";
type = Stem;
}
);
layerId = "09B19460-4606-4A98-AA02-96D7DF647D82";
paths = (
{
closed = 1;
nodes = (
"429 615 OFFCURVE",
"415 636 OFFCURVE",
"396 653 CURVE",
"319 712 OFFCURVE",
"195 714 OFFCURVE",
"107 671 CURVE",
"98 666 OFFCURVE",
"91 660 OFFCURVE",
"84 653 CURVE",
"43 606 OFFCURVE",
"32 542 OFFCURVE",
"31 482 CURVE",
"24 377 OFFCURVE",
"32 272 OFFCURVE",
"36 168 CURVE SMOOTH",
"37 129 OFFCURVE",
"41 90 OFFCURVE",
"60 57 CURVE",
"84 4 OFFCURVE",
"137 -8 OFFCURVE",
"192 -13 CURVE SMOOTH",
"231 -16 OFFCURVE",
"269 -14 OFFCURVE",
"306 -3 CURVE SMOOTH",
"347 8 OFFCURVE",
"386 26 OFFCURVE",
"409 58 CURVE",
"433 97 OFFCURVE",
"444 146 OFFCURVE",
"447 193 CURVE SMOOTH",
"450 226 LINE SMOOTH",
"455 295 OFFCURVE",
"451 360 OFFCURVE",
"455 431 CURVE SMOOTH",
"456 464 OFFCURVE",
"456 497 OFFCURVE",
"453 530 CURVE",
"450 551 OFFCURVE",
"446 572 OFFCURVE",
"437 592 CURVE"
);
},
{
closed = 1;
nodes = (
"408 439 LINE",
"408 300 LINE",
"405 240 LINE",
"402 163 LINE",
"397 106 OFFCURVE",
"392 101 OFFCURVE",
"370 72 CURVE",
"360 61 OFFCURVE",
"348 50 OFFCURVE",
"333 41 CURVE SMOOTH",
"318 32 OFFCURVE",
"288 26 OFFCURVE",
"241 22 CURVE SMOOTH",
"195 18 OFFCURVE",
"162 22 OFFCURVE",
"141 35 CURVE SMOOTH",
"120 48 OFFCURVE",
"107 62 OFFCURVE",
"100 75 CURVE",
"93 97 OFFCURVE",
"88 120 OFFCURVE",
"83 144 CURVE SMOOTH",
"78 169 OFFCURVE",
"75 224 OFFCURVE",
"73 311 CURVE SMOOTH",
"72 400 OFFCURVE",
"73 458 OFFCURVE",
"76 486 CURVE",
"80 514 OFFCURVE",
"85 541 OFFCURVE",
"90 566 CURVE",
"98 594 OFFCURVE",
"114 617 OFFCURVE",
"137 635 CURVE",
"186 657 OFFCURVE",
"227 666 OFFCURVE",
"262 662 CURVE SMOOTH",
"297 659 OFFCURVE",
"321 654 OFFCURVE",
"334 649 CURVE",
"365 634 OFFCURVE",
"395 601 OFFCURVE",
"398 564 CURVE",
"399 541 OFFCURVE",
"402 508 OFFCURVE",
"402 507 CURVE"
);
}
);
width = 483;
}
);
leftKerningGroup = G;
note = O;
rightKerningGroup = O;
unicode = 004F;
},
{
glyphname = P;
layers = (
{
hints = (
{
horizontal = 1;
place = "{262, 41}";
type = Stem;
},
{
place = "{37, 55}";
type = Stem;
}
);
layerId = "09B19460-4606-4A98-AA02-96D7DF647D82";
paths = (
{
closed = 1;
nodes = (
"484 491 LINE",
"472 718 OFFCURVE",
"202 739 OFFCURVE",
"37 695 CURVE",
"45 473 OFFCURVE",
"36 200 OFFCURVE",
"44 6 CURVE",
"67 3 OFFCURVE",
"70 4 OFFCURVE",
"89 9 CURVE",
"90 9 OFFCURVE",
"91 10 OFFCURVE",
"92 10 CURVE",
"92 11 LINE",
"87 205 OFFCURVE",
"91 225 OFFCURVE",
"88 262 CURVE",
"206 261 OFFCURVE",
"279 263 OFFCURVE",
"307 270 CURVE SMOOTH",
"336 277 OFFCURVE",
"363 289 OFFCURVE",
"388 308 CURVE SMOOTH",
"439 345 OFFCURVE",
"476 402 OFFCURVE",
"484 466 CURVE"
);
},
{
closed = 1;
nodes = (
"327 661 OFFCURVE",
"354 649 OFFCURVE",
"379 633 CURVE SMOOTH",
"404 617 OFFCURVE",
"423 583 OFFCURVE",
"436 532 CURVE SMOOTH",
"449 481 OFFCURVE",
"444 437 OFFCURVE",
"421 401 CURVE SMOOTH",
"398 365 OFFCURVE",
"373 340 OFFCURVE",
"346 325 CURVE SMOOTH",
"320 311 OFFCURVE",
"274 304 OFFCURVE",
"207 303 CURVE SMOOTH",
"141 302 OFFCURVE",
"101 302 OFFCURVE",
"87 301 CURVE",
"86 336 OFFCURVE",
"84 396 OFFCURVE",
"83 481 CURVE SMOOTH",
"82 566 OFFCURVE",
"82 616 OFFCURVE",
"82 629 CURVE",
"83 642 OFFCURVE",
"83 655 OFFCURVE",
"82 667 CURVE",
"103 673 OFFCURVE",
"137 676 OFFCURVE",
"186 677 CURVE SMOOTH",
"235 678 OFFCURVE",
"273 676 OFFCURVE",
"298 669 CURVE SMOOTH"
);
}
);
width = 497;
}
);
note = P;
rightKerningGroup = P;
unicode = 0050;
},
{
glyphname = Q;
layers = (
{
hints = (
{
horizontal = 1;
place = "{-8, 21}";
target = up;
type = BottomGhost;
},
{
horizontal = 1;
place = "{669, 45}";
type = Stem;
},
{
place = "{30, 41}";
type = Stem;
},
{
place = "{430, 38}";
type = Stem;
}
);
layerId = "09B19460-4606-4A98-AA02-96D7DF647D82";
paths = (
{
closed = 1;
nodes = (
"464 197 OFFCURVE",
"462 231 OFFCURVE",
"465 264 CURVE SMOOTH",
"468 304 OFFCURVE",
"468 327 OFFCURVE",
"468 368 CURVE SMOOTH",
"468 448 OFFCURVE",
"462 530 OFFCURVE",
"439 602 CURVE",
"394 709 OFFCURVE",
"346 714 OFFCURVE",
"253 714 CURVE SMOOTH",
"151 714 OFFCURVE",
"71 674 OFFCURVE",
"52 618 CURVE",
"25 522 OFFCURVE",
"30 400 OFFCURVE",
"30 307 CURVE SMOOTH",
"30 209 OFFCURVE",
"23 118 OFFCURVE",
"90 54 CURVE SMOOTH",
"129 17 OFFCURVE",
"165 -1 OFFCURVE",
"231 -6 CURVE SMOOTH",
"272 -9 OFFCURVE",
"324 5 OFFCURVE",
"340 24 CURVE",
"348 13 OFFCURVE",
"369 -8 OFFCURVE",
"377 -8 CURVE",
"402 7 OFFCURVE",
"412 17 OFFCURVE",
"407 21 CURVE SMOOTH",
"402 25 OFFCURVE",
"397 29 OFFCURVE",
"393 34 CURVE SMOOTH",
"389 39 OFFCURVE",
"385 45 OFFCURVE",
"380 50 CURVE",
"423 93 OFFCURVE",
"447 123 OFFCURVE",
"451 139 CURVE",
"454 148 OFFCURVE",
"455 157 OFFCURVE",
"456 165 CURVE"
);
},
{
closed = 1;
nodes = (
"290 97 LINE",
"292 93 OFFCURVE",
"297 86 OFFCURVE",
"306 76 CURVE",
"315 67 OFFCURVE",
"319 60 OFFCURVE",
"320 57 CURVE SMOOTH",
"321 54 OFFCURVE",
"317 49 OFFCURVE",
"308 42 CURVE",
"281 29 OFFCURVE",
"242 29 OFFCURVE",
"190 41 CURVE SMOOTH",
"139 54 OFFCURVE",
"104 90 OFFCURVE",
"85 149 CURVE",
"74 192 OFFCURVE",
"74 220 OFFCURVE",
"71 253 CURVE SMOOTH",
"68 286 OFFCURVE",
"71 309 OFFCURVE",
"71 328 CURVE SMOOTH",
"71 379 OFFCURVE",
"72 432 OFFCURVE",
"77 483 CURVE SMOOTH",
"82 551 LINE SMOOTH",
"84 580 OFFCURVE",
"92 604 OFFCURVE",
"106 623 CURVE SMOOTH",
"135 663 OFFCURVE",
"208 674 OFFCURVE",
"309 669 CURVE",
"357 662 OFFCURVE",
"385 639 OFFCURVE",
"398 594 CURVE SMOOTH",
"425 494 OFFCURVE",
"435 389 OFFCURVE",
"430 262 CURVE SMOOTH",
"427 199 OFFCURVE",
"418 156 OFFCURVE",
"401 133 CURVE SMOOTH",
"385 110 OFFCURVE",
"371 92 OFFCURVE",
"360 79 CURVE",
"338 101 LINE",
"336 104 OFFCURVE",
"330 110 OFFCURVE",
"319 121 CURVE"
);
}
);
width = 495;
}
);
leftKerningGroup = Q;
note = Q;
rightKerningGroup = Q;
unicode = 0051;
},
{
glyphname = R;
layers = (
{
hints = (
{
horizontal = 1;
place = "{0, 21}";
target = up;
type = BottomGhost;
}
);
layerId = "09B19460-4606-4A98-AA02-96D7DF647D82";
paths = (
{
closed = 1;
nodes = (
"516 3 LINE",
"414 101 OFFCURVE",
"348 161 OFFCURVE",
"319 184 CURVE SMOOTH",
"290 207 OFFCURVE",
"240 250 OFFCURVE",
"168 312 CURVE",
"317 310 OFFCURVE",
"401 317 OFFCURVE",
"422 333 CURVE SMOOTH",
"443 349 OFFCURVE",
"460 369 OFFCURVE",
"473 393 CURVE",
"556 532 OFFCURVE",
"454 705 OFFCURVE",
"296 713 CURVE",
"199 724 OFFCURVE",
"108 710 OFFCURVE",
"33 699 CURVE",
"43 632 OFFCURVE",
"48 2 OFFCURVE",
"40 0 CURVE",
"47 1 OFFCURVE",
"66 -5 OFFCURVE",
"103 3 CURVE",
"96 121 LINE SMOOTH",
"95 145 OFFCURVE",
"95 176 OFFCURVE",
"96 213 CURVE SMOOTH",
"97 251 OFFCURVE",
"97 280 OFFCURVE",
"97 301 CURVE",
"288 152 LINE",
"454 1 LINE",
"463 2 OFFCURVE",
"484 3 OFFCURVE",
"517 3 CURVE"
);
},
{
closed = 1;
nodes = (
"91 367 LINE",
"90 374 OFFCURVE",
"89 394 OFFCURVE",
"88 426 CURVE",
"88 492 LINE SMOOTH",
"88 503 OFFCURVE",
"87 534 OFFCURVE",
"84 583 CURVE SMOOTH",
"82 632 OFFCURVE",
"81 661 OFFCURVE",
"80 670 CURVE",
"167 679 OFFCURVE",
"233 681 OFFCURVE",
"276 677 CURVE SMOOTH",
"319 673 OFFCURVE",
"353 665 OFFCURVE",
"377 652 CURVE SMOOTH",
"402 639 OFFCURVE",
"423 619 OFFCURVE",
"442 591 CURVE SMOOTH",
"461 563 OFFCURVE",
"467 523 OFFCURVE",
"459 472 CURVE SMOOTH",
"452 421 OFFCURVE",
"431 388 OFFCURVE",
"396 374 CURVE SMOOTH",
"355 356 OFFCURVE",
"253 354 OFFCURVE",
"92 367 CURVE"
);
},
{
closed = 1;
nodes = (
"40 0 OFFCURVE",
"40 0 OFFCURVE",
"40 0 CURVE SMOOTH"
);
}
);
width = 518;
}
);
note = R;
rightKerningGroup = R;
unicode = 0052;
},
{
glyphname = S;
layers = (
{
hints = (
{
horizontal = 1;
place = "{323, 44}";
type = Stem;
},
{
place = "{12, 51}";
type = Stem;
},
{
place = "{418, 46}";
type = Stem;
}
);
layerId = "09B19460-4606-4A98-AA02-96D7DF647D82";
paths = (
{
closed = 1;
nodes = (
"463 474 LINE",
"482 574 OFFCURVE",
"441 639 OFFCURVE",
"377 672 CURVE",
"313 701 OFFCURVE",
"220 710 OFFCURVE",
"155 683 CURVE SMOOTH",
"91 656 OFFCURVE",
"44 598 OFFCURVE",
"28 531 CURVE SMOOTH",
"20 498 OFFCURVE",
"20 464 OFFCURVE",
"29 430 CURVE SMOOTH",
"38 396 OFFCURVE",
"61 369 OFFCURVE",
"96 348 CURVE SMOOTH",
"131 328 OFFCURVE",
"174 320 OFFCURVE",
"225 323 CURVE SMOOTH",
"276 326 OFFCURVE",
"319 322 OFFCURVE",
"356 309 CURVE SMOOTH",
"393 296 OFFCURVE",
"413 266 OFFCURVE",
"418 218 CURVE",
"421 163 OFFCURVE",
"403 117 OFFCURVE",
"362 81 CURVE SMOOTH",
"322 46 OFFCURVE",
"273 35 OFFCURVE",
"214 49 CURVE SMOOTH",
"98 78 OFFCURVE",
"59 137 OFFCURVE",
"63 206 CURVE",
"48 207 OFFCURVE",
"31 207 OFFCURVE",
"12 206 CURVE",
"4 66 OFFCURVE",
"131 1 OFFCURVE",
"248 -5 CURVE SMOOTH",
"330 -8 OFFCURVE",
"409 28 OFFCURVE",
"441 110 CURVE",
"457 145 OFFCURVE",
"464 182 OFFCURVE",
"464 227 CURVE",
"465 250 OFFCURVE",
"462 270 OFFCURVE",
"455 285 CURVE",
"443 335 OFFCURVE",
"354 370 OFFCURVE",
"213 367 CURVE SMOOTH",
"122 368 OFFCURVE",
"74 412 OFFCURVE",
"67 481 CURVE SMOOTH",
"64 516 OFFCURVE",
"72 549 OFFCURVE",
"90 580 CURVE SMOOTH",
"109 611 OFFCURVE",
"142 633 OFFCURVE",
"191 648 CURVE SMOOTH",
"240 663 OFFCURVE",
"292 658 OFFCURVE",
"347 634 CURVE SMOOTH",
"402 611 OFFCURVE",
"423 557 OFFCURVE",
"410 473 CURVE",
"424 471 OFFCURVE",
"441 471 OFFCURVE",
"462 474 CURVE"
);
}
);
width = 485;
}
);
leftKerningGroup = S;
note = S;
rightKerningGroup = S;
unicode = 0053;
},
{
glyphname = T;
layers = (
{
hints = (
{
horizontal = 1;
place = "{-1, 21}";
target = up;
type = BottomGhost;
},
{
horizontal = 1;
place = "{647, 57}";
type = Stem;
},
{
place = "{190, 67}";
type = Stem;
}
);
layerId = "09B19460-4606-4A98-AA02-96D7DF647D82";
paths = (
{
closed = 1;
nodes = (
"295 710 OFFCURVE",
"146 705 OFFCURVE",
"10 704 CURVE",
"10 703 OFFCURVE",
"11 703 OFFCURVE",
"11 702 CURVE",
"8 670 OFFCURVE",
"13 655 OFFCURVE",
"16 650 CURVE",
"24 647 OFFCURVE",
"41 648 OFFCURVE",
"85 647 CURVE SMOOTH",
"129 647 OFFCURVE",
"170 644 OFFCURVE",
"187 644 CURVE",
"187 637 LINE",
"193 293 LINE SMOOTH",
"194 227 OFFCURVE",
"195 173 OFFCURVE",
"194 130 CURVE SMOOTH",
"194 46 OFFCURVE",
"192 4 OFFCURVE",
"193 -1 CURVE",
"222 6 OFFCURVE",
"230 2 OFFCURVE",
"257 6 CURVE",
"257 8 LINE",
"253 226 OFFCURVE",
"252 355 OFFCURVE",
"250 429 CURVE",
"250 541 LINE SMOOTH",
"251 591 OFFCURVE",
"251 619 OFFCURVE",
"251 626 CURVE",
"252 633 OFFCURVE",
"251 640 OFFCURVE",
"250 647 CURVE",
"306 647 OFFCURVE",
"347 647 OFFCURVE",
"372 648 CURVE SMOOTH",
"397 649 OFFCURVE",
"416 648 OFFCURVE",
"429 645 CURVE",
"432 662 OFFCURVE",
"433 679 OFFCURVE",
"432 695 CURVE"
);
}
);
width = 443;
}
);
leftKerningGroup = T;
note = T;
rightKerningGroup = T;
unicode = 0054;
},
{
glyphname = U;
layers = (
{
hints = (
{
horizontal = 1;
place = "{680, -20}";
target = down;
type = TopGhost;
},
{
place = "{40, 54}";
type = Stem;
},
{
place = "{420, 49}";
type = Stem;
}
);
layerId = "09B19460-4606-4A98-AA02-96D7DF647D82";
paths = (
{
closed = 1;
nodes = (
"461 674 OFFCURVE",
"445 674 OFFCURVE",
"420 671 CURVE",
"416 516 OFFCURVE",
"425 356 OFFCURVE",
"414 219 CURVE SMOOTH",
"409 150 OFFCURVE",
"388 99 OFFCURVE",
"350 66 CURVE SMOOTH",
"313 33 OFFCURVE",
"263 24 OFFCURVE",
"202 39 CURVE SMOOTH",
"141 55 OFFCURVE",
"106 100 OFFCURVE",
"97 173 CURVE SMOOTH",
"89 246 OFFCURVE",
"88 415 OFFCURVE",
"94 680 CURVE",
"40 680 LINE",
"41 679 LINE",
"42 591 OFFCURVE",
"42 502 OFFCURVE",
"40 413 CURVE SMOOTH",
"38 324 OFFCURVE",
"39 242 OFFCURVE",
"44 168 CURVE SMOOTH",
"47 107 OFFCURVE",
"76 43 OFFCURVE",
"124 16 CURVE",
"173 -9 OFFCURVE",
"237 -19 OFFCURVE",
"293 -14 CURVE SMOOTH",
"389 -5 OFFCURVE",
"446 63 OFFCURVE",
"457 151 CURVE SMOOTH",
"476 323 OFFCURVE",
"477 498 OFFCURVE",
"469 669 CURVE"
);
}
);
width = 505;
}
);
leftKerningGroup = U;
note = U;
rightKerningGroup = U;
unicode = 0055;
},
{
glyphname = V;
layers = (
{
hints = (
{
horizontal = 1;
place = "{-0.62, 691.91}";
type = Stem;
},
{
place = "{16, 429}";
type = Stem;
}
);
layerId = "09B19460-4606-4A98-AA02-96D7DF647D82";
paths = (
{
closed = 1;
nodes = (
"422 688 OFFCURVE",
"394 689 OFFCURVE",
"394 686 CURVE",
"325 418 OFFCURVE",
"268 210 OFFCURVE",
"224 63 CURVE",
"163 246 OFFCURVE",
"113 426 OFFCURVE",
"90 565 CURVE SMOOTH",
"79 635 OFFCURVE",
"72 677 OFFCURVE",
"69 690 CURVE",
"58 693 OFFCURVE",
"24 691 OFFCURVE",
"16 682 CURVE",
"16 681 LINE",
"45 541 OFFCURVE",
"70 427 OFFCURVE",
"91 338 CURVE SMOOTH",
"112 250 OFFCURVE",
"145 138 OFFCURVE",
"189 3 CURVE",
"210 -4 OFFCURVE",
"241 1 OFFCURVE",
"252 1 CURVE",
"288 108 OFFCURVE",
"321 213 OFFCURVE",
"350 316 CURVE SMOOTH",
"379 419 OFFCURVE",
"411 542 OFFCURVE",
"445 684 CURVE"
);
}
);
width = 440;
}
);
leftKerningGroup = V;
note = V;
rightKerningGroup = V;
unicode = 0056;
},
{
glyphname = W;
layers = (
{
hints = (
{
horizontal = 1;
place = "{2, 21}";
target = up;
type = BottomGhost;
},
{
horizontal = 1;
place = "{700, -20}";
target = down;
type = TopGhost;
},
{
place = "{23, 65}";
type = Stem;
}
);
layerId = "09B19460-4606-4A98-AA02-96D7DF647D82";
paths = (
{
closed = 1;
nodes = (
"402 270 OFFCURVE",
"423 424 OFFCURVE",
"445 697 CURVE",
"407 700 LINE",
"404 700 OFFCURVE",
"396 699 OFFCURVE",
"385 695 CURVE",
"382 666 OFFCURVE",
"380 629 OFFCURVE",
"377 584 CURVE SMOOTH",
"368 456 LINE SMOOTH",
"365 415 OFFCURVE",
"359 344 OFFCURVE",
"350 244 CURVE SMOOTH",
"332 54 LINE",
"328 64 OFFCURVE",
"323 79 OFFCURVE",
"318 98 CURVE SMOOTH",
"313 118 OFFCURVE",
"302 174 OFFCURVE",
"283 267 CURVE SMOOTH",
"264 360 OFFCURVE",
"254 410 OFFCURVE",
"251 417 CURVE",
"234 417 OFFCURVE",
"225 417 OFFCURVE",
"225 416 CURVE",
"194 264 OFFCURVE",
"171 161 OFFCURVE",
"165 136 CURVE SMOOTH",
"143 54 LINE",
"135 81 OFFCURVE",
"125 149 OFFCURVE",
"112 258 CURVE SMOOTH",
"99 367 OFFCURVE",
"91 461 OFFCURVE",
"88 538 CURVE SMOOTH",
"85 616 OFFCURVE",
"82 670 OFFCURVE",
"79 699 CURVE",
"66 700 OFFCURVE",
"43 699 OFFCURVE",
"23 695 CURVE",
"27 464 OFFCURVE",
"64 233 OFFCURVE",
"97 5 CURVE",
"112 3 OFFCURVE",
"124 2 OFFCURVE",
"135 2 CURVE SMOOTH",
"154 2 OFFCURVE",
"167 4 OFFCURVE",
"184 7 CURVE",
"189 16 OFFCURVE",
"194 28 OFFCURVE",
"198 44 CURVE SMOOTH",
"202 60 OFFCURVE",
"208 89 OFFCURVE",
"216 132 CURVE SMOOTH",
"224 175 OFFCURVE",
"231 219 OFFCURVE",
"238 266 CURVE",
"248 205 OFFCURVE",
"257 155 OFFCURVE",
"264 117 CURVE SMOOTH",
"272 79 OFFCURVE",
"283 41 OFFCURVE",
"298 3 CURVE",
"346 3 LINE SMOOTH",
"359 3 OFFCURVE",
"371 2 OFFCURVE",
"380 5 CURVE"
);
}
);
width = 465;
}
);
leftKerningGroup = W;
note = W;
rightKerningGroup = W;
unicode = 0057;
},
{
glyphname = X;
layers = (
{
hints = (
{
horizontal = 1;
place = "{700, -20}";
target = down;
type = TopGhost;
}
);
layerId = "09B19460-4606-4A98-AA02-96D7DF647D82";
paths = (
{
closed = 1;
nodes = (
"439 699 OFFCURVE",
"440 699 OFFCURVE",
"440 700 CURVE",
"439 700 LINE",
"419 701 OFFCURVE",
"403 700 OFFCURVE",
"392 699 CURVE",
"392 698 LINE",
"351 610 OFFCURVE",
"298 511 OFFCURVE",
"233 402 CURVE",
"191 463 OFFCURVE",
"154 522 OFFCURVE",
"121 579 CURVE SMOOTH",
"88 636 OFFCURVE",
"70 671 OFFCURVE",
"66 685 CURVE",
"62 692 OFFCURVE",
"55 690 OFFCURVE",
"-1 689 CURVE",
"78 544 OFFCURVE",
"139 436 OFFCURVE",
"183 367 CURVE",
"111 207 OFFCURVE",
"65 112 OFFCURVE",
"45 82 CURVE SMOOTH",
"26 53 OFFCURVE",
"13 26 OFFCURVE",
"6 1 CURVE",
"33 -3 OFFCURVE",
"59 7 OFFCURVE",
"57 2 CURVE",
"76 37 OFFCURVE",
"95 72 OFFCURVE",
"116 107 CURVE SMOOTH",
"137 143 OFFCURVE",
"175 220 OFFCURVE",
"231 339 CURVE",
"261 296 OFFCURVE",
"310 182 OFFCURVE",
"379 -1 CURVE",
"424 2 LINE",
"417 29 OFFCURVE",
"410 57 OFFCURVE",
"401 85 CURVE SMOOTH",
"392 114 OFFCURVE",
"377 154 OFFCURVE",
"355 205 CURVE SMOOTH",
"334 256 OFFCURVE",
"308 310 OFFCURVE",
"279 366 CURVE",
"352 505 OFFCURVE",
"394 588 OFFCURVE",
"406 614 CURVE SMOOTH",
"419 641 OFFCURVE",
"430 669 OFFCURVE",
"439 698 CURVE"
);
},
{
closed = 1;
nodes = (
"57 2 OFFCURVE",
"57 2 OFFCURVE",
"57 2 CURVE SMOOTH"
);
}
);
width = 436;
}
);
leftKerningGroup = X;
note = X;
rightKerningGroup = X;
unicode = 0058;
},
{
glyphname = Y;
layers = (
{
hints = (
{
horizontal = 1;
place = "{0, 21}";
target = up;
type = BottomGhost;
}
);
layerId = "09B19460-4606-4A98-AA02-96D7DF647D82";
paths = (
{
closed = 1;
nodes = (
"450 693 LINE",
"442 694 OFFCURVE",
"425 695 OFFCURVE",
"420 694 CURVE",
"404 692 LINE",
"392 663 OFFCURVE",
"346 546 OFFCURVE",
"255 347 CURVE",
"199 428 OFFCURVE",
"128 537 OFFCURVE",
"61 693 CURVE",
"54 696 OFFCURVE",
"43 692 OFFCURVE",
"16 692 CURVE",
"23 664 OFFCURVE",
"35 631 OFFCURVE",
"54 594 CURVE SMOOTH",
"73 557 OFFCURVE",
"92 523 OFFCURVE",
"109 493 CURVE SMOOTH",
"156 412 LINE SMOOTH",
"171 388 OFFCURVE",
"193 350 OFFCURVE",
"223 298 CURVE",
"196 229 OFFCURVE",
"156 130 OFFCURVE",
"101 0 CURVE",
"103 0 LINE",
"107 -1 OFFCURVE",
"116 -1 OFFCURVE",
"129 0 CURVE SMOOTH",
"143 1 OFFCURVE",
"152 1 OFFCURVE",
"156 0 CURVE",
"185 68 OFFCURVE",
"210 128 OFFCURVE",
"231 180 CURVE SMOOTH",
"253 233 OFFCURVE",
"278 287 OFFCURVE",
"305 344 CURVE SMOOTH",
"360 459 OFFCURVE",
"413 572 OFFCURVE",
"450 692 CURVE"
);
}
);
width = 435;
}
);
leftKerningGroup = Y;
note = Y;
rightKerningGroup = Y;
unicode = 0059;
},
{
glyphname = Z;
layers = (
{
hints = (
{
horizontal = 1;
place = "{-1, 51}";
type = Stem;
},
{
horizontal = 1;
place = "{655, 39}";
type = Stem;
}
);
layerId = "09B19460-4606-4A98-AA02-96D7DF647D82";
paths = (
{
closed = 1;
nodes = (
"455 653 OFFCURVE",
"454 668 OFFCURVE",
"451 694 CURVE",
"298 695 OFFCURVE",
"150 703 OFFCURVE",
"13 690 CURVE",
"14 673 OFFCURVE",
"15 661 OFFCURVE",
"14 654 CURVE",
"38 654 OFFCURVE",
"83 658 OFFCURVE",
"130 655 CURVE SMOOTH",
"153 654 OFFCURVE",
"202 654 OFFCURVE",
"275 654 CURVE SMOOTH",
"348 655 OFFCURVE",
"391 654 OFFCURVE",
"403 652 CURVE",
"313 496 LINE SMOOTH",
"269 420 OFFCURVE",
"224 344 OFFCURVE",
"177 269 CURVE SMOOTH",
"130 194 OFFCURVE",
"83 121 OFFCURVE",
"35 48 CURVE",
"36 27 OFFCURVE",
"36 11 OFFCURVE",
"34 -1 CURVE",
"177 7 OFFCURVE",
"316 5 OFFCURVE",
"443 -2 CURVE",
"443 0 LINE",
"445 24 OFFCURVE",
"446 41 OFFCURVE",
"445 50 CURVE",
"354 51 OFFCURVE",
"299 51 OFFCURVE",
"279 50 CURVE",
"260 50 OFFCURVE",
"241 50 OFFCURVE",
"223 49 CURVE",
"188 49 OFFCURVE",
"156 45 OFFCURVE",
"93 46 CURVE",
"204 217 OFFCURVE",
"325 419 OFFCURVE",
"454 650 CURVE"
);
}
);
width = 474;
}
);
leftKerningGroup = Z;
note = Z;
rightKerningGroup = Z;
unicode = 005A;
},
{
glyphname = bracketleft;
layers = (
{
hints = (
{
horizontal = 1;
place = "{0, 61}";
type = Stem;
},
{
place = "{53, 47}";
type = Stem;
},
{
horizontal = 1;
place = "{-2, 21}";
target = up;
type = BottomGhost;
}
);
layerId = "09B19460-4606-4A98-AA02-96D7DF647D82";
paths = (
{
closed = 1;
nodes = (
"294 1 LINE",
"295 22 OFFCURVE",
"295 39 OFFCURVE",
"292 50 CURVE",
"238 53 LINE SMOOTH",
"219 54 OFFCURVE",
"173 56 OFFCURVE",
"100 61 CURVE",
"100 62 LINE SMOOTH",
"100 195 OFFCURVE",
"95 286 OFFCURVE",
"94 363 CURVE",
"94 402 OFFCURVE",
"96 480 OFFCURVE",
"100 597 CURVE SMOOTH",
"103 658 LINE",
"121 657 OFFCURVE",
"152 657 OFFCURVE",
"196 658 CURVE SMOOTH",
"241 660 OFFCURVE",
"272 660 OFFCURVE",
"290 659 CURVE",
"293 659 LINE",
"297 706 LINE",
"219 698 OFFCURVE",
"138 716 OFFCURVE",
"53 705 CURVE",
"53 704 LINE",
"37 476 OFFCURVE",
"46 227 OFFCURVE",
"43 2 CURVE SMOOTH",
"43 -2 LINE",
"72 1 OFFCURVE",
"163 0 OFFCURVE",
"197 0 CURVE SMOOTH"
);
}
);
width = 321;
}
);
note = bracketleft;
rightKerningGroup = bracketleft;
unicode = 005B;
},
{
glyphname = bracketright;
layers = (
{
hints = (
{
horizontal = 1;
place = "{0, 61}";
type = Stem;
},
{
place = "{221, 57}";
type = Stem;
},
{
horizontal = 1;
place = "{-2, 21}";
target = up;
type = BottomGhost;
}
);
layerId = "09B19460-4606-4A98-AA02-96D7DF647D82";
paths = (
{
closed = 1;
nodes = (
"124 0 LINE SMOOTH",
"158 0 OFFCURVE",
"249 1 OFFCURVE",
"278 -2 CURVE",
"278 2 LINE",
"275 227 OFFCURVE",
"284 476 OFFCURVE",
"268 704 CURVE",
"268 705 LINE",
"183 716 OFFCURVE",
"102 698 OFFCURVE",
"24 706 CURVE",
"28 659 LINE",
"31 659 LINE",
"49 660 OFFCURVE",
"80 660 OFFCURVE",
"124 658 CURVE SMOOTH",
"169 657 OFFCURVE",
"200 657 OFFCURVE",
"218 658 CURVE",
"221 597 LINE SMOOTH",
"225 480 OFFCURVE",
"227 402 OFFCURVE",
"226 363 CURVE SMOOTH",
"226 286 OFFCURVE",
"221 195 OFFCURVE",
"221 62 CURVE SMOOTH",
"221 61 LINE",
"148 56 OFFCURVE",
"101 54 OFFCURVE",
"82 53 CURVE SMOOTH",
"29 50 LINE",
"26 39 OFFCURVE",
"26 22 OFFCURVE",
"27 1 CURVE"
);
}
);
width = 321;
}
);
leftKerningGroup = bracketright;
note = bracketright;
unicode = 005D;
},
{
glyphname = exclam;
layers = (
{
hints = (
{
horizontal = 1;
place = "{1, 21}";
target = up;
type = BottomGhost;
},
{
place = "{92, 50}";
type = Stem;
}
);
layerId = "09B19460-4606-4A98-AA02-96D7DF647D82";
paths = (
{
closed = 1;
nodes = (
"92 702 LINE",
"81 520 OFFCURVE",
"92 346 OFFCURVE",
"89 170 CURVE",
"113 171 OFFCURVE",
"118 171 OFFCURVE",
"142 175 CURVE",
"134 346 OFFCURVE",
"138 533 OFFCURVE",
"141 704 CURVE",
"117 707 OFFCURVE",
"114 705 OFFCURVE",
"95 702 CURVE"
);
},
{
closed = 1;
nodes = (
"135 1 LINE",
"135 40 OFFCURVE",
"137 84 OFFCURVE",
"138 121 CURVE",
"118 121 OFFCURVE",
"104 126 OFFCURVE",
"88 119 CURVE",
"88 81 OFFCURVE",
"76 1 OFFCURVE",
"85 1 CURVE SMOOTH"
);
}
);
width = 217;
}
);
note = exclam;
unicode = 0021;
},
{
glyphname = dollar;
layers = (
{
hints = (
{
place = "{201, 53}";
type = Stem;
},
{
place = "{377, 45}";
type = Stem;
}
);
layerId = "09B19460-4606-4A98-AA02-96D7DF647D82";
paths = (
{
closed = 1;
nodes = (
"322 334 OFFCURVE",
"301 340 OFFCURVE",
"276 345 CURVE SMOOTH",
"232 354 LINE",
"173 360 OFFCURVE",
"117 373 OFFCURVE",
"87 453 CURVE",
"87 455 OFFCURVE",
"84 465 OFFCURVE",
"79 484 CURVE SMOOTH",
"74 503 OFFCURVE",
"75 521 OFFCURVE",
"80 536 CURVE",
"86 552 OFFCURVE",
"97 567 OFFCURVE",
"112 582 CURVE SMOOTH",
"127 597 OFFCURVE",
"157 609 OFFCURVE",
"201 619 CURVE SMOOTH",
"246 629 OFFCURVE",
"286 623 OFFCURVE",
"322 601 CURVE SMOOTH",
"359 580 OFFCURVE",
"377 548 OFFCURVE",
"377 506 CURVE SMOOTH",
"377 464 OFFCURVE",
"382 443 OFFCURVE",
"392 442 CURVE",
"413 442 OFFCURVE",
"427 435 OFFCURVE",
"426 468 CURVE",
"426 504 OFFCURVE",
"427 530 OFFCURVE",
"412 561 CURVE SMOOTH",
"404 577 OFFCURVE",
"392 596 OFFCURVE",
"373 612 CURVE SMOOTH",
"364 620 OFFCURVE",
"355 627 OFFCURVE",
"344 633 CURVE SMOOTH",
"333 639 OFFCURVE",
"308 647 OFFCURVE",
"268 658 CURVE",
"259 659 OFFCURVE",
"255 663 OFFCURVE",
"255 672 CURVE",
"253 742 LINE",
"249 758 OFFCURVE",
"193 750 OFFCURVE",
"199 734 CURVE",
"199 731 OFFCURVE",
"201 726 OFFCURVE",
"201 709 CURVE",
"202 692 OFFCURVE",
"204 675 OFFCURVE",
"204 672 CURVE SMOOTH",
"204 665 OFFCURVE",
"208 661 OFFCURVE",
"201 658 CURVE",
"175 653 OFFCURVE",
"148 645 OFFCURVE",
"121 632 CURVE SMOOTH",
"94 620 OFFCURVE",
"75 608 OFFCURVE",
"64 597 CURVE SMOOTH",
"39 572 OFFCURVE",
"28 540 OFFCURVE",
"28 507 CURVE SMOOTH",
"28 459 OFFCURVE",
"51 408 OFFCURVE",
"82 373 CURVE SMOOTH",
"97 357 OFFCURVE",
"118 343 OFFCURVE",
"146 332 CURVE SMOOTH",
"175 321 OFFCURVE",
"221 310 OFFCURVE",
"284 297 CURVE SMOOTH",
"348 284 OFFCURVE",
"378 241 OFFCURVE",
"373 167 CURVE SMOOTH",
"372 142 OFFCURVE",
"368 122 OFFCURVE",
"360 106 CURVE SMOOTH",
"352 90 OFFCURVE",
"333 74 OFFCURVE",
"304 57 CURVE",
"261 41 OFFCURVE",
"210 41 OFFCURVE",
"151 58 CURVE SMOOTH",
"93 75 OFFCURVE",
"68 114 OFFCURVE",
"75 176 CURVE",
"75 187 OFFCURVE",
"74 196 OFFCURVE",
"74 207 CURVE",
"77 239 OFFCURVE",
"62 246 OFFCURVE",
"39 239 CURVE",
"20 235 OFFCURVE",
"20 221 OFFCURVE",
"20 191 CURVE SMOOTH",
"20 147 OFFCURVE",
"23 110 OFFCURVE",
"36 79 CURVE",
"43 64 OFFCURVE",
"54 51 OFFCURVE",
"68 40 CURVE SMOOTH",
"83 29 OFFCURVE",
"116 18 OFFCURVE",
"168 7 CURVE",
"212 5 OFFCURVE",
"204 -28 OFFCURVE",
"204 -50 CURVE",
"199 -81 OFFCURVE",
"217 -102 OFFCURVE",
"224 -97 CURVE",
"247 -95 LINE",
"254 -95 OFFCURVE",
"256 -86 OFFCURVE",
"254 -69 CURVE",
"254 -65 LINE SMOOTH",
"254 -56 OFFCURVE",
"255 -3 OFFCURVE",
"255 6 CURVE",
"281 11 LINE SMOOTH",
"298 14 OFFCURVE",
"312 18 OFFCURVE",
"323 22 CURVE SMOOTH",
"347 31 OFFCURVE",
"359 40 OFFCURVE",
"363 44 CURVE",
"406 79 OFFCURVE",
"422 117 OFFCURVE",
"422 160 CURVE SMOOTH",
"422 188 OFFCURVE",
"417 223 OFFCURVE",
"404 256 CURVE SMOOTH",
"391 291 OFFCURVE",
"367 306 OFFCURVE",
"340 325 CURVE"
);
}
);
width = 445;
}
);
note = dollar;
unicode = 0024;
},
{
glyphname = parenleft;
layers = (
{
hints = (
{
horizontal = 1;
place = "{0, 21}";
target = up;
type = BottomGhost;
},
{
horizontal = 1;
place = "{660, 51}";
type = Stem;
},
{
place = "{38, 57}";
type = Stem;
}
);
layerId = "09B19460-4606-4A98-AA02-96D7DF647D82";
paths = (
{
closed = 1;
nodes = (
"125 28 OFFCURVE",
"144 18 OFFCURVE",
"163 11 CURVE",
"185 4 OFFCURVE",
"207 1 OFFCURVE",
"228 0 CURVE",
"245 0 LINE SMOOTH",
"260 0 OFFCURVE",
"279 -2 OFFCURVE",
"287 9 CURVE",
"289 57 LINE",
"165 36 OFFCURVE",
"115 75 OFFCURVE",
"88 166 CURVE",
"78 193 OFFCURVE",
"80 324 OFFCURVE",
"95 559 CURVE",
"96 568 OFFCURVE",
"101 597 OFFCURVE",
"113 614 CURVE",
"120 623 OFFCURVE",
"133 633 OFFCURVE",
"153 644 CURVE SMOOTH",
"173 655 OFFCURVE",
"198 660 OFFCURVE",
"227 660 CURVE SMOOTH",
"256 660 OFFCURVE",
"276 661 OFFCURVE",
"285 664 CURVE",
"288 670 OFFCURVE",
"289 683 OFFCURVE",
"286 704 CURVE",
"285 705 LINE",
"262 708 OFFCURVE",
"235 710 OFFCURVE",
"212 711 CURVE",
"152 710 OFFCURVE",
"95 685 OFFCURVE",
"62 621 CURVE",
"30 568 OFFCURVE",
"41 502 OFFCURVE",
"38 444 CURVE",
"38 420 LINE SMOOTH",
"39 352 OFFCURVE",
"35 274 OFFCURVE",
"32 203 CURVE",
"35 168 OFFCURVE",
"41 132 OFFCURVE",
"66 87 CURVE SMOOTH",
"70 80 LINE",
"81 65 OFFCURVE",
"93 52 OFFCURVE",
"108 41 CURVE SMOOTH"
);
}
);
width = 314;
}
);
note = parenleft;
rightKerningGroup = parenleft;
unicode = 0028;
},
{
glyphname = parenright;
layers = (
{
hints = (
{
horizontal = 1;
place = "{0, 21}";
target = up;
type = BottomGhost;
},
{
horizontal = 1;
place = "{660, 51}";
type = Stem;
},
{
place = "{220, 63}";
type = Stem;
}
);
layerId = "09B19460-4606-4A98-AA02-96D7DF647D82";
paths = (
{
closed = 1;
nodes = (
"222 52 OFFCURVE",
"234 65 OFFCURVE",
"245 80 CURVE",
"249 87 LINE SMOOTH",
"274 132 OFFCURVE",
"280 168 OFFCURVE",
"283 203 CURVE",
"280 274 OFFCURVE",
"276 352 OFFCURVE",
"277 420 CURVE SMOOTH",
"277 444 LINE",
"274 502 OFFCURVE",
"285 568 OFFCURVE",
"253 621 CURVE",
"220 685 OFFCURVE",
"163 710 OFFCURVE",
"103 711 CURVE",
"80 710 OFFCURVE",
"53 708 OFFCURVE",
"30 705 CURVE",
"29 704 LINE",
"26 683 OFFCURVE",
"27 670 OFFCURVE",
"30 664 CURVE",
"39 661 OFFCURVE",
"59 660 OFFCURVE",
"88 660 CURVE SMOOTH",
"117 660 OFFCURVE",
"142 655 OFFCURVE",
"162 644 CURVE SMOOTH",
"182 633 OFFCURVE",
"195 623 OFFCURVE",
"201 614 CURVE",
"214 597 OFFCURVE",
"219 568 OFFCURVE",
"220 559 CURVE",
"235 324 OFFCURVE",
"237 193 OFFCURVE",
"227 166 CURVE",
"200 75 OFFCURVE",
"150 36 OFFCURVE",
"26 57 CURVE",
"28 9 LINE",
"36 -2 OFFCURVE",
"55 0 OFFCURVE",
"70 0 CURVE SMOOTH",
"87 0 LINE",
"108 1 OFFCURVE",
"130 4 OFFCURVE",
"152 11 CURVE",
"171 18 OFFCURVE",
"190 28 OFFCURVE",
"207 41 CURVE SMOOTH"
);
}
);
width = 313;
}
);
leftKerningGroup = parenright;
note = parenright;
unicode = 0029;
},
{
glyphname = plus;
layers = (
{
hints = (
{
horizontal = 1;
place = "{113, 235}";
type = Stem;
},
{
horizontal = 1;
place = "{524, -20}";
target = down;
type = TopGhost;
},
{
place = "{201, 51}";
type = Stem;
},
{
horizontal = 1;
place = "{291, 57}";
type = Stem;
}
);
layerId = "09B19460-4606-4A98-AA02-96D7DF647D82";
paths = (
{
closed = 1;
nodes = (
"198 115 OFFCURVE",
"207 113 OFFCURVE",
"230 113 CURVE SMOOTH",
"242 113 OFFCURVE",
"248 114 OFFCURVE",
"248 116 CURVE SMOOTH",
"248 118 LINE SMOOTH",
"248 127 OFFCURVE",
"251 148 OFFCURVE",
"252 192 CURVE",
"255 237 OFFCURVE",
"256 275 OFFCURVE",
"255 287 CURVE",
"262 291 OFFCURVE",
"286 291 OFFCURVE",
"341 291 CURVE SMOOTH",
"396 291 OFFCURVE",
"415 291 OFFCURVE",
"419 294 CURVE",
"422 311 OFFCURVE",
"423 328 OFFCURVE",
"423 345 CURVE",
"408 348 OFFCURVE",
"361 348 OFFCURVE",
"329 348 CURVE SMOOTH",
"297 348 OFFCURVE",
"273 348 OFFCURVE",
"257 349 CURVE",
"256 352 OFFCURVE",
"255 373 OFFCURVE",
"255 412 CURVE SMOOTH",
"255 520 LINE",
"236 522 OFFCURVE",
"207 517 OFFCURVE",
"205 524 CURVE",
"202 506 LINE SMOOTH",
"201 499 OFFCURVE",
"201 492 OFFCURVE",
"201 483 CURVE",
"202 475 OFFCURVE",
"202 452 OFFCURVE",
"201 415 CURVE SMOOTH",
"201 349 LINE",
"197 348 OFFCURVE",
"176 345 OFFCURVE",
"111 342 CURVE SMOOTH",
"46 341 OFFCURVE",
"25 338 OFFCURVE",
"21 339 CURVE",
"21 335 OFFCURVE",
"24 305 OFFCURVE",
"23 300 CURVE",
"23 298 OFFCURVE",
"23 297 OFFCURVE",
"24 296 CURVE",
"29 293 OFFCURVE",
"45 290 OFFCURVE",
"105 289 CURVE SMOOTH",
"165 288 OFFCURVE",
"180 286 OFFCURVE",
"188 286 CURVE SMOOTH",
"190 286 LINE",
"191 285 OFFCURVE",
"192 277 OFFCURVE",
"192 266 CURVE",
"193 242 OFFCURVE",
"193 225 OFFCURVE",
"193 215 CURVE SMOOTH",
"193 206 OFFCURVE",
"193 193 OFFCURVE",
"192 178 CURVE",
"192 147 OFFCURVE",
"191 137 OFFCURVE",
"194 117 CURVE",
"194 114 OFFCURVE",
"195 115 OFFCURVE",
"195 114 CURVE"
);
}
);
width = 445;
}
);
note = plus;
unicode = 002B;
},
{
glyphname = hyphen;
layers = (
{
hints = (
{
horizontal = 1;
place = "{265, 21}";
target = up;
type = BottomGhost;
},
{
horizontal = 1;
place = "{323, -20}";
target = down;
type = TopGhost;
}
);
layerId = "09B19460-4606-4A98-AA02-96D7DF647D82";
paths = (
{
closed = 1;
nodes = (
"57 272 OFFCURVE",
"463 265 OFFCURVE",
"484 265 CURVE SMOOTH",
"485 265 LINE",
"482 323 LINE",
"39 323 LINE",
"39 319 OFFCURVE",
"38 293 OFFCURVE",
"37 288 CURVE",
"36 285 OFFCURVE",
"36 280 OFFCURVE",
"36 272 CURVE"
);
}
);
width = 521;
}
);
leftKerningGroup = hyphen;
note = hyphen;
rightKerningGroup = hyphen;
unicode = 002D;
},
{
glyphname = slash;
layers = (
{
hints = (
{
horizontal = 1;
place = "{0, 21}";
target = up;
type = BottomGhost;
},
{
horizontal = 1;
place = "{709, -20}";
target = down;
type = TopGhost;
}
);
layerId = "09B19460-4606-4A98-AA02-96D7DF647D82";
paths = (
{
closed = 1;
nodes = (
"162 151 LINE SMOOTH",
"170 171 OFFCURVE",
"177 191 OFFCURVE",
"184 211 CURVE SMOOTH",
"212 283 OFFCURVE",
"236 355 OFFCURVE",
"261 428 CURVE SMOOTH",
"273 464 OFFCURVE",
"285 501 OFFCURVE",
"298 538 CURVE SMOOTH",
"327 626 OFFCURVE",
"339 664 OFFCURVE",
"344 683 CURVE",
"347 691 OFFCURVE",
"347 694 OFFCURVE",
"350 701 CURVE",
"342 705 OFFCURVE",
"327 708 OFFCURVE",
"305 709 CURVE",
"290 654 LINE SMOOTH",
"285 636 OFFCURVE",
"273 600 OFFCURVE",
"255 547 CURVE SMOOTH",
"238 494 OFFCURVE",
"225 457 OFFCURVE",
"218 438 CURVE SMOOTH",
"198 384 OFFCURVE",
"182 341 OFFCURVE",
"171 309 CURVE SMOOTH",
"160 277 OFFCURVE",
"149 249 OFFCURVE",
"140 225 CURVE SMOOTH",
"92 90 LINE",
"91 85 OFFCURVE",
"81 62 OFFCURVE",
"73 41 CURVE",
"66 20 OFFCURVE",
"63 8 OFFCURVE",
"59 0 CURVE",
"86 1 OFFCURVE",
"101 1 OFFCURVE",
"105 2 CURVE",
"106 3 OFFCURVE",
"107 4 OFFCURVE",
"108 7 CURVE"
);
}
);
width = 412;
}
);
leftKerningGroup = slash;
note = slash;
rightKerningGroup = slash;
unicode = 002F;
},
{
glyphname = question;
layers = (
{
hints = (
{
horizontal = 1;
place = "{0, 21}";
target = up;
type = BottomGhost;
}
);
layerId = "09B19460-4606-4A98-AA02-96D7DF647D82";
paths = (
{
closed = 1;
nodes = (
"226 205 LINE",
"226 177 LINE",
"227 177 LINE",
"270 179 LINE",
"270 180 LINE",
"269 185 OFFCURVE",
"269 199 OFFCURVE",
"271 222 CURVE",
"274 245 OFFCURVE",
"279 265 OFFCURVE",
"288 282 CURVE SMOOTH",
"297 299 OFFCURVE",
"309 317 OFFCURVE",
"323 336 CURVE SMOOTH",
"343 363 OFFCURVE",
"362 376 OFFCURVE",
"383 405 CURVE",
"406 434 OFFCURVE",
"425 468 OFFCURVE",
"430 511 CURVE SMOOTH",
"444 630 OFFCURVE",
"336 718 OFFCURVE",
"213 707 CURVE",
"99 702 OFFCURVE",
"21 600 OFFCURVE",
"16 499 CURVE",
"16 498 LINE",
"36 497 OFFCURVE",
"53 497 OFFCURVE",
"67 497 CURVE",
"66 524 OFFCURVE",
"74 555 OFFCURVE",
"91 591 CURVE SMOOTH",
"109 628 OFFCURVE",
"141 651 OFFCURVE",
"187 661 CURVE SMOOTH",
"234 672 OFFCURVE",
"271 672 OFFCURVE",
"298 661 CURVE",
"326 651 OFFCURVE",
"349 633 OFFCURVE",
"366 606 CURVE",
"384 580 OFFCURVE",
"392 553 OFFCURVE",
"389 526 CURVE SMOOTH",
"384 471 OFFCURVE",
"361 434 OFFCURVE",
"310 379 CURVE SMOOTH",
"261 324 OFFCURVE",
"238 292 OFFCURVE",
"229 232 CURVE"
);
},
{
closed = 1;
nodes = (
"261 0 LINE",
"261 2 LINE SMOOTH",
"261 21 OFFCURVE",
"267 117 OFFCURVE",
"267 119 CURVE",
"249 122 OFFCURVE",
"241 121 OFFCURVE",
"224 116 CURVE",
"224 97 OFFCURVE",
"220 30 OFFCURVE",
"225 0 CURVE"
);
}
);
width = 451;
}
);
leftKerningGroup = question;
note = question;
unicode = 003F;
},
{
glyphname = zero;
layers = (
{
hints = (
{
horizontal = 1;
place = "{2, 38}";
type = Stem;
},
{
horizontal = 1;
place = "{667, 43}";
type = Stem;
},
{
place = "{32, 46}";
type = Stem;
},
{
place = "{441, 47}";
type = Stem;
}
);
layerId = "09B19460-4606-4A98-AA02-96D7DF647D82";
paths = (
{
closed = 1;
nodes = (
"23 527 OFFCURVE",
"27 417 OFFCURVE",
"32 315 CURVE SMOOTH",
"35 196 OFFCURVE",
"39 65 OFFCURVE",
"174 15 CURVE SMOOTH",
"194 8 OFFCURVE",
"217 3 OFFCURVE",
"244 2 CURVE SMOOTH",
"432 -10 OFFCURVE",
"496 217 OFFCURVE",
"488 373 CURVE",
"491 412 OFFCURVE",
"487 450 OFFCURVE",
"480 493 CURVE SMOOTH",
"459 605 OFFCURVE",
"384 715 OFFCURVE",
"247 710 CURVE SMOOTH",
"179 707 OFFCURVE",
"132 676 OFFCURVE",
"92 631 CURVE",
"88 627 OFFCURVE",
"85 623 OFFCURVE",
"82 618 CURVE SMOOTH"
);
},
{
closed = 1;
nodes = (
"158 40 OFFCURVE",
"101 93 OFFCURVE",
"88 200 CURVE SMOOTH",
"81 255 OFFCURVE",
"78 300 OFFCURVE",
"78 334 CURVE SMOOTH",
"78 368 OFFCURVE",
"78 406 OFFCURVE",
"77 448 CURVE",
"81 488 OFFCURVE",
"85 506 OFFCURVE",
"93 533 CURVE SMOOTH",
"97 547 OFFCURVE",
"110 573 OFFCURVE",
"132 611 CURVE SMOOTH",
"154 650 OFFCURVE",
"201 668 OFFCURVE",
"274 667 CURVE",
"335 657 OFFCURVE",
"378 628 OFFCURVE",
"402 580 CURVE SMOOTH",
"427 533 OFFCURVE",
"440 491 OFFCURVE",
"441 454 CURVE SMOOTH",
"445 381 OFFCURVE",
"443 345 OFFCURVE",
"442 310 CURVE",
"439 275 OFFCURVE",
"440 249 OFFCURVE",
"431 205 CURVE SMOOTH",
"426 184 OFFCURVE",
"410 152 OFFCURVE",
"381 109 CURVE SMOOTH",
"352 66 OFFCURVE",
"311 43 OFFCURVE",
"257 40 CURVE"
);
}
);
width = 513;
}
);
leftKerningGroup = zero;
note = zero;
rightKerningGroup = zero;
unicode = 0030;
},
{
glyphname = one;
layers = (
{
hints = (
{
place = "{203, 51}";
type = Stem;
}
);
layerId = "09B19460-4606-4A98-AA02-96D7DF647D82";
paths = (
{
closed = 1;
nodes = (
"254 45 OFFCURVE",
"254 65 OFFCURVE",
"254 88 CURVE SMOOTH",
"254 241 OFFCURVE",
"266 389 OFFCURVE",
"261 542 CURVE",
"261 598 OFFCURVE",
"264 653 OFFCURVE",
"260 710 CURVE",
"216 711 OFFCURVE",
"186 711 OFFCURVE",
"171 710 CURVE",
"168 707 OFFCURVE",
"156 689 OFFCURVE",
"132 650 CURVE SMOOTH",
"108 611 OFFCURVE",
"62 540 OFFCURVE",
"23 471 CURVE",
"23 468 OFFCURVE",
"30 464 OFFCURVE",
"45 459 CURVE SMOOTH",
"60 454 OFFCURVE",
"69 452 OFFCURVE",
"72 452 CURVE SMOOTH",
"77 452 OFFCURVE",
"98 481 OFFCURVE",
"134 538 CURVE SMOOTH",
"171 596 OFFCURVE",
"190 628 OFFCURVE",
"193 633 CURVE",
"196 639 OFFCURVE",
"199 642 OFFCURVE",
"202 641 CURVE",
"203 634 OFFCURVE",
"203 630 OFFCURVE",
"203 623 CURVE SMOOTH",
"202 479 OFFCURVE",
"201 373 OFFCURVE",
"198 305 CURVE SMOOTH",
"196 237 OFFCURVE",
"195 170 OFFCURVE",
"194 103 CURVE SMOOTH",
"194 5 LINE",
"221 2 OFFCURVE",
"240 5 OFFCURVE",
"253 5 CURVE"
);
}
);
width = 307;
}
);
leftKerningGroup = one;
note = one;
unicode = 0031;
},
{
glyphname = two;
layers = (
{
hints = (
{
horizontal = 1;
place = "{-1, 21}";
target = up;
type = BottomGhost;
},
{
horizontal = 1;
place = "{1, 56}";
type = Stem;
}
);
layerId = "09B19460-4606-4A98-AA02-96D7DF647D82";
paths = (
{
closed = 1;
nodes = (
"76 -1 LINE",
"456 4 LINE SMOOTH",
"459 4 OFFCURVE",
"460 4 OFFCURVE",
"460 5 CURVE",
"456 20 OFFCURVE",
"462 27 OFFCURVE",
"454 63 CURVE",
"409 58 OFFCURVE",
"352 56 OFFCURVE",
"282 56 CURVE SMOOTH",
"110 59 LINE",
"105 62 OFFCURVE",
"103 87 OFFCURVE",
"121 116 CURVE",
"209 192 OFFCURVE",
"267 239 OFFCURVE",
"296 256 CURVE SMOOTH",
"325 273 OFFCURVE",
"348 287 OFFCURVE",
"366 296 CURVE SMOOTH",
"385 305 OFFCURVE",
"401 316 OFFCURVE",
"416 329 CURVE",
"447 354 OFFCURVE",
"469 387 OFFCURVE",
"473 436 CURVE",
"474 463 OFFCURVE",
"472 498 OFFCURVE",
"471 526 CURVE",
"464 598 OFFCURVE",
"433 662 OFFCURVE",
"373 693 CURVE",
"301 722 OFFCURVE",
"140 720 OFFCURVE",
"87 651 CURVE",
"38 596 OFFCURVE",
"21 512 OFFCURVE",
"37 420 CURVE",
"37 418 LINE",
"38 418 LINE",
"61 415 OFFCURVE",
"79 417 OFFCURVE",
"93 422 CURVE",
"94 422 LINE",
"94 424 LINE",
"95 436 OFFCURVE",
"94 460 OFFCURVE",
"91 495 CURVE SMOOTH",
"88 531 OFFCURVE",
"95 564 OFFCURVE",
"110 595 CURVE SMOOTH",
"125 626 OFFCURVE",
"149 646 OFFCURVE",
"182 654 CURVE SMOOTH",
"215 663 OFFCURVE",
"239 667 OFFCURVE",
"255 667 CURVE SMOOTH",
"350 670 OFFCURVE",
"404 641 OFFCURVE",
"419 542 CURVE SMOOTH",
"426 493 OFFCURVE",
"429 456 OFFCURVE",
"426 433 CURVE",
"423 396 OFFCURVE",
"392 363 OFFCURVE",
"335 335 CURVE SMOOTH",
"278 307 OFFCURVE",
"222 271 OFFCURVE",
"166 226 CURVE SMOOTH",
"111 181 OFFCURVE",
"72 142 OFFCURVE",
"51 108 CURVE SMOOTH",
"30 73 OFFCURVE",
"29 38 OFFCURVE",
"30 2 CURVE SMOOTH",
"30 1 OFFCURVE",
"30 0 OFFCURVE",
"31 -1 CURVE"
);
}
);
width = 498;
}
);
note = two;
unicode = 0032;
},
{
glyphname = three;
layers = (
{
hints = (
{
horizontal = 1;
place = "{345, 50}";
type = Stem;
},
{
place = "{28, 54}";
type = Stem;
},
{
place = "{402, 50}";
type = Stem;
}
);
layerId = "09B19460-4606-4A98-AA02-96D7DF647D82";
paths = (
{
closed = 1;
nodes = (
"455 576 OFFCURVE",
"453 602 OFFCURVE",
"440 623 CURVE",
"372 744 OFFCURVE",
"80 743 OFFCURVE",
"32 582 CURVE",
"21 553 OFFCURVE",
"28 516 OFFCURVE",
"28 489 CURVE SMOOTH",
"28 487 LINE",
"31 487 OFFCURVE",
"41 489 OFFCURVE",
"82 489 CURVE",
"77 553 OFFCURVE",
"85 595 OFFCURVE",
"105 616 CURVE SMOOTH",
"126 637 OFFCURVE",
"153 651 OFFCURVE",
"187 660 CURVE SMOOTH",
"221 669 OFFCURVE",
"264 669 OFFCURVE",
"317 659 CURVE SMOOTH",
"370 649 OFFCURVE",
"398 614 OFFCURVE",
"402 555 CURVE SMOOTH",
"411 438 OFFCURVE",
"403 392 OFFCURVE",
"360 393 CURVE SMOOTH",
"255 397 LINE SMOOTH",
"207 399 OFFCURVE",
"177 398 OFFCURVE",
"166 394 CURVE",
"166 392 OFFCURVE",
"166 387 OFFCURVE",
"165 379 CURVE",
"164 364 OFFCURVE",
"166 353 OFFCURVE",
"170 344 CURVE",
"187 343 OFFCURVE",
"218 344 OFFCURVE",
"263 345 CURVE SMOOTH",
"308 347 OFFCURVE",
"341 344 OFFCURVE",
"362 335 CURVE",
"405 319 OFFCURVE",
"413 243 OFFCURVE",
"390 135 CURVE SMOOTH",
"379 81 OFFCURVE",
"329 51 OFFCURVE",
"238 46 CURVE SMOOTH",
"147 41 OFFCURVE",
"98 67 OFFCURVE",
"89 126 CURVE SMOOTH",
"80 185 OFFCURVE",
"77 216 OFFCURVE",
"79 219 CURVE",
"78 220 LINE",
"77 220 LINE",
"66 218 OFFCURVE",
"50 218 OFFCURVE",
"30 219 CURVE",
"29 219 LINE SMOOTH",
"28 219 OFFCURVE",
"28 219 OFFCURVE",
"28 218 CURVE SMOOTH",
"29 177 OFFCURVE",
"32 146 OFFCURVE",
"37 115 CURVE",
"40 88 OFFCURVE",
"51 63 OFFCURVE",
"70 44 CURVE SMOOTH",
"73 41 OFFCURVE",
"89 26 OFFCURVE",
"117 18 CURVE SMOOTH",
"136 13 OFFCURVE",
"153 7 OFFCURVE",
"172 4 CURVE SMOOTH",
"223 -3 OFFCURVE",
"286 -4 OFFCURVE",
"335 11 CURVE SMOOTH",
"384 27 OFFCURVE",
"416 60 OFFCURVE",
"435 104 CURVE SMOOTH",
"452 140 OFFCURVE",
"449 181 OFFCURVE",
"452 220 CURVE",
"456 328 OFFCURVE",
"457 438 OFFCURVE",
"454 551 CURVE"
);
},
{
closed = 1;
nodes = (
"166 394 LINE",
"166 396 OFFCURVE",
"166 396 OFFCURVE",
"165 394 CURVE"
);
},
{
closed = 1;
nodes = (
"165 393 LINE",
"165 393 OFFCURVE",
"165 394 OFFCURVE",
"165 394 CURVE"
);
}
);
width = 492;
}
);
note = three;
unicode = 0033;
},
{
glyphname = four;
layers = (
{
hints = (
{
horizontal = 1;
place = "{262, 58}";
type = Stem;
},
{
horizontal = 1;
place = "{704, -20}";
target = down;
type = TopGhost;
},
{
place = "{315, 70}";
type = Stem;
}
);
layerId = "09B19460-4606-4A98-AA02-96D7DF647D82";
paths = (
{
closed = 1;
nodes = (
"391 320 LINE",
"385 319 LINE",
"384 324 OFFCURVE",
"384 332 OFFCURVE",
"384 345 CURVE SMOOTH",
"384 421 LINE",
"386 525 LINE SMOOTH",
"390 616 OFFCURVE",
"392 702 OFFCURVE",
"392 704 CURVE",
"390 704 LINE",
"385 705 OFFCURVE",
"381 705 OFFCURVE",
"378 705 CURVE SMOOTH",
"375 705 OFFCURVE",
"364 705 OFFCURVE",
"345 704 CURVE",
"312 704 LINE SMOOTH",
"311 704 OFFCURVE",
"311 704 OFFCURVE",
"311 703 CURVE",
"260 638 OFFCURVE",
"162 509 OFFCURVE",
"18 315 CURVE",
"14 302 OFFCURVE",
"14 286 OFFCURVE",
"17 265 CURVE",
"19 261 OFFCURVE",
"68 262 OFFCURVE",
"119 262 CURVE",
"137 263 OFFCURVE",
"167 263 OFFCURVE",
"209 263 CURVE SMOOTH",
"252 264 OFFCURVE",
"280 264 OFFCURVE",
"293 263 CURVE SMOOTH",
"307 262 OFFCURVE",
"315 262 OFFCURVE",
"318 261 CURVE",
"315 187 LINE SMOOTH",
"314 140 OFFCURVE",
"312 108 OFFCURVE",
"311 92 CURVE SMOOTH",
"309 47 LINE SMOOTH",
"308 20 OFFCURVE",
"306 -1 OFFCURVE",
"307 -2 CURVE",
"349 -3 OFFCURVE",
"372 -1 OFFCURVE",
"376 4 CURVE",
"377 9 OFFCURVE",
"379 31 OFFCURVE",
"378 58 CURVE",
"377 71 OFFCURVE",
"377 92 OFFCURVE",
"378 121 CURVE SMOOTH",
"384 245 LINE",
"385 256 LINE",
"415 255 OFFCURVE",
"435 256 OFFCURVE",
"446 259 CURVE",
"452 318 LINE"
);
},
{
closed = 1;
nodes = (
"325 322 LINE",
"320 321 OFFCURVE",
"300 320 OFFCURVE",
"264 319 CURVE SMOOTH",
"228 318 OFFCURVE",
"202 318 OFFCURVE",
"187 318 CURVE",
"172 319 OFFCURVE",
"151 319 OFFCURVE",
"125 319 CURVE",
"100 320 OFFCURVE",
"87 320 OFFCURVE",
"87 320 CURVE",
"262 549 LINE SMOOTH",
"298 597 OFFCURVE",
"319 625 OFFCURVE",
"325 634 CURVE",
"332 643 OFFCURVE",
"335 646 OFFCURVE",
"336 642 CURVE"
);
}
);
width = 469;
}
);
leftKerningGroup = four;
note = four;
rightKerningGroup = four;
unicode = 0034;
},
{
glyphname = five;
layers = (
{
hints = (
{
place = "{37, 60}";
type = Stem;
}
);
layerId = "09B19460-4606-4A98-AA02-96D7DF647D82";
paths = (
{
closed = 1;
nodes = (
"100 216 LINE",
"43 216 LINE",
"43 214 LINE",
"39 193 OFFCURVE",
"37 173 OFFCURVE",
"37 156 CURVE SMOOTH",
"33 -69 OFFCURVE",
"430 -52 OFFCURVE",
"470 134 CURVE",
"481 213 OFFCURVE",
"481 299 OFFCURVE",
"449 372 CURVE SMOOTH",
"418 445 OFFCURVE",
"309 455 OFFCURVE",
"105 438 CURVE",
"104 438 LINE",
"102 440 LINE",
"99 444 OFFCURVE",
"98 477 OFFCURVE",
"97 539 CURVE SMOOTH",
"96 602 OFFCURVE",
"95 636 OFFCURVE",
"94 641 CURVE",
"94 642 OFFCURVE",
"93 643 OFFCURVE",
"93 644 CURVE SMOOTH",
"93 647 LINE",
"94 647 LINE SMOOTH",
"98 647 OFFCURVE",
"123 647 OFFCURVE",
"169 648 CURVE SMOOTH",
"215 649 OFFCURVE",
"247 649 OFFCURVE",
"266 649 CURVE SMOOTH",
"325 651 LINE SMOOTH",
"387 653 OFFCURVE",
"450 654 OFFCURVE",
"464 656 CURVE",
"464 653 OFFCURVE",
"465 700 OFFCURVE",
"463 702 CURVE",
"437 706 OFFCURVE",
"50 696 OFFCURVE",
"37 696 CURVE SMOOTH",
"36 696 LINE",
"36 633 OFFCURVE",
"37 581 OFFCURVE",
"37 526 CURVE",
"38 499 OFFCURVE",
"38 472 OFFCURVE",
"38 443 CURVE SMOOTH",
"38 415 OFFCURVE",
"39 398 OFFCURVE",
"42 392 CURVE",
"42 391 OFFCURVE",
"43 391 OFFCURVE",
"44 391 CURVE",
"58 390 OFFCURVE",
"74 389 OFFCURVE",
"92 390 CURVE SMOOTH",
"197 394 LINE SMOOTH",
"249 397 OFFCURVE",
"291 396 OFFCURVE",
"324 391 CURVE SMOOTH",
"389 383 OFFCURVE",
"419 346 OFFCURVE",
"427 249 CURVE SMOOTH",
"432 201 OFFCURVE",
"423 155 OFFCURVE",
"400 111 CURVE SMOOTH",
"378 68 OFFCURVE",
"332 44 OFFCURVE",
"263 41 CURVE SMOOTH",
"124 34 OFFCURVE",
"70 106 OFFCURVE",
"101 211 CURVE",
"100 215 LINE"
);
}
);
width = 503;
}
);
note = five;
unicode = 0035;
},
{
glyphname = six;
layers = (
{
hints = (
{
place = "{38, 47}";
type = Stem;
}
);
layerId = "09B19460-4606-4A98-AA02-96D7DF647D82";
paths = (
{
closed = 1;
nodes = (
"479 227 LINE",
"475 258 OFFCURVE",
"465 292 OFFCURVE",
"445 311 CURVE",
"428 330 OFFCURVE",
"405 345 OFFCURVE",
"376 354 CURVE",
"317 369 OFFCURVE",
"258 366 OFFCURVE",
"200 345 CURVE SMOOTH",
"137 324 OFFCURVE",
"99 292 OFFCURVE",
"87 247 CURVE",
"87 248 LINE SMOOTH",
"88 285 OFFCURVE",
"82 328 OFFCURVE",
"85 409 CURVE SMOOTH",
"91 534 LINE SMOOTH",
"94 577 OFFCURVE",
"127 612 OFFCURVE",
"190 641 CURVE SMOOTH",
"253 670 OFFCURVE",
"313 668 OFFCURVE",
"370 636 CURVE",
"397 610 OFFCURVE",
"410 581 OFFCURVE",
"409 550 CURVE SMOOTH",
"409 519 OFFCURVE",
"409 497 OFFCURVE",
"410 486 CURVE",
"410 485 LINE",
"412 485 LINE",
"425 482 OFFCURVE",
"441 482 OFFCURVE",
"460 485 CURVE",
"489 592 OFFCURVE",
"415 711 OFFCURVE",
"289 708 CURVE SMOOTH",
"194 708 OFFCURVE",
"86 665 OFFCURVE",
"51 585 CURVE",
"48 580 OFFCURVE",
"48 579 OFFCURVE",
"43 563 CURVE",
"39 547 OFFCURVE",
"41 517 OFFCURVE",
"38 489 CURVE",
"26 291 OFFCURVE",
"17 31 OFFCURVE",
"197 -1 CURVE",
"344 -17 OFFCURVE",
"497 44 OFFCURVE",
"481 203 CURVE SMOOTH"
);
},
{
closed = 1;
nodes = (
"433 206 LINE SMOOTH",
"433 159 OFFCURVE",
"427 127 OFFCURVE",
"414 109 CURVE SMOOTH",
"402 92 OFFCURVE",
"381 76 OFFCURVE",
"351 61 CURVE SMOOTH",
"322 47 OFFCURVE",
"288 39 OFFCURVE",
"251 37 CURVE SMOOTH",
"214 35 OFFCURVE",
"181 48 OFFCURVE",
"152 76 CURVE SMOOTH",
"124 104 OFFCURVE",
"112 136 OFFCURVE",
"117 172 CURVE SMOOTH",
"126 245 OFFCURVE",
"156 275 OFFCURVE",
"211 299 CURVE",
"238 312 OFFCURVE",
"268 318 OFFCURVE",
"300 318 CURVE SMOOTH",
"332 319 OFFCURVE",
"361 309 OFFCURVE",
"388 289 CURVE SMOOTH",
"415 270 OFFCURVE",
"430 246 OFFCURVE",
"433 219 CURVE"
);
}
);
width = 503;
}
);
leftKerningGroup = six;
note = six;
unicode = 0036;
},
{
glyphname = seven;
layers = (
{
hints = (
{
horizontal = 1;
place = "{652, 55}";
type = Stem;
}
);
layerId = "09B19460-4606-4A98-AA02-96D7DF647D82";
paths = (
{
closed = 1;
nodes = (
"29 651 LINE",
"86 653 LINE SMOOTH",
"108 654 OFFCURVE",
"148 655 OFFCURVE",
"206 655 CURVE SMOOTH",
"329 655 LINE SMOOTH",
"353 655 OFFCURVE",
"375 654 OFFCURVE",
"394 653 CURVE",
"393 648 OFFCURVE",
"357 563 OFFCURVE",
"285 398 CURVE SMOOTH",
"214 234 OFFCURVE",
"153 103 OFFCURVE",
"103 6 CURVE",
"123 1 OFFCURVE",
"139 7 OFFCURVE",
"168 7 CURVE",
"210 90 OFFCURVE",
"248 169 OFFCURVE",
"283 244 CURVE SMOOTH",
"318 319 OFFCURVE",
"377 454 OFFCURVE",
"462 647 CURVE",
"462 705 LINE",
"331 718 OFFCURVE",
"166 710 OFFCURVE",
"27 707 CURVE",
"27 706 LINE",
"26 686 OFFCURVE",
"26 668 OFFCURVE",
"27 651 CURVE"
);
}
);
width = 476;
}
);
leftKerningGroup = seven;
note = seven;
rightKerningGroup = seven;
unicode = 0037;
},
{
glyphname = eight;
layers = (
{
hints = (
{
horizontal = 1;
place = "{-12, 45.63}";
type = Stem;
},
{
horizontal = 1;
place = "{327, 37}";
type = Stem;
},
{
horizontal = 1;
place = "{672, 36}";
type = Stem;
},
{
place = "{33.53, 46.35}";
type = Stem;
},
{
place = "{420, 43}";
type = Stem;
},
{
place = "{24.12, 44.31}";
type = Stem;
},
{
place = "{418.38, 41.74}";
type = Stem;
}
);
layerId = "09B19460-4606-4A98-AA02-96D7DF647D82";
paths = (
{
closed = 1;
nodes = (
"463 523 LINE SMOOTH",
"463 530 OFFCURVE",
"462 534 OFFCURVE",
"461 541 CURVE SMOOTH",
"458 560 OFFCURVE",
"456 571 OFFCURVE",
"451 592 CURVE SMOOTH",
"448 604 OFFCURVE",
"440 623 OFFCURVE",
"436 630 CURVE",
"412 668 OFFCURVE",
"402 671 OFFCURVE",
"383 685 CURVE",
"339 711 OFFCURVE",
"294 711 OFFCURVE",
"200 708 CURVE SMOOTH",
"35 700 OFFCURVE",
"-17 460 OFFCURVE",
"87 352 CURVE",
"5 273 OFFCURVE",
"7 136 OFFCURVE",
"70 57 CURVE",
"134 -31 OFFCURVE",
"338 -35 OFFCURVE",
"406 45 CURVE SMOOTH",
"478 125 OFFCURVE",
"485 273 OFFCURVE",
"386 345 CURVE",
"386 346 LINE",
"429 381 OFFCURVE",
"448 416 OFFCURVE",
"459 464 CURVE",
"462 473 OFFCURVE",
"463 484 OFFCURVE",
"463 495 CURVE SMOOTH"
);
},
{
closed = 1;
nodes = (
"408 435 OFFCURVE",
"389 395 OFFCURVE",
"324 370 CURVE",
"273 362 OFFCURVE",
"208 359 OFFCURVE",
"157 379 CURVE SMOOTH",
"90 408 OFFCURVE",
"73 459 OFFCURVE",
"82 522 CURVE SMOOTH",
"93 585 OFFCURVE",
"134 645 OFFCURVE",
"189 666 CURVE",
"222 673 OFFCURVE",
"257 675 OFFCURVE",
"292 672 CURVE SMOOTH",
"327 669 OFFCURVE",
"355 658 OFFCURVE",
"376 638 CURVE",
"405 618 OFFCURVE",
"424 572 OFFCURVE",
"421 531 CURVE SMOOTH",
"420 510 OFFCURVE",
"420 498 OFFCURVE",
"420 494 CURVE SMOOTH",
"420 483 OFFCURVE",
"416 479 OFFCURVE",
"416 475 CURVE"
);
},
{
closed = 1;
nodes = (
"407 117 OFFCURVE",
"402 104 OFFCURVE",
"396 99 CURVE",
"387 72 OFFCURVE",
"359 53 OFFCURVE",
"312 41 CURVE",
"265 33 OFFCURVE",
"210 28 OFFCURVE",
"161 45 CURVE",
"129 58 OFFCURVE",
"108 71 OFFCURVE",
"99 84 CURVE SMOOTH",
"90 97 OFFCURVE",
"81 119 OFFCURVE",
"72 150 CURVE SMOOTH",
"64 181 OFFCURVE",
"69 218 OFFCURVE",
"87 260 CURVE SMOOTH",
"105 302 OFFCURVE",
"158 324 OFFCURVE",
"246 327 CURVE",
"295 324 OFFCURVE",
"328 317 OFFCURVE",
"345 307 CURVE SMOOTH",
"363 297 OFFCURVE",
"379 282 OFFCURVE",
"393 263 CURVE SMOOTH",
"421 224 OFFCURVE",
"424 189 OFFCURVE",
"411 138 CURVE"
);
}
);
width = 490;
}
);
note = eight;
unicode = 0038;
},
{
glyphname = nine;
layers = (
{
hints = (
{
place = "{419, 56}";
type = Stem;
}
);
layerId = "09B19460-4606-4A98-AA02-96D7DF647D82";
paths = (
{
closed = 1;
nodes = (
"474 471 LINE SMOOTH",
"473 539 OFFCURVE",
"471 606 OFFCURVE",
"440 653 CURVE SMOOTH",
"400 715 OFFCURVE",
"324 706 OFFCURVE",
"256 709 CURVE",
"183 706 OFFCURVE",
"110 684 OFFCURVE",
"66 632 CURVE SMOOTH",
"57 621 OFFCURVE",
"51 610 OFFCURVE",
"44 598 CURVE",
"20 540 OFFCURVE",
"21 434 OFFCURVE",
"59 378 CURVE SMOOTH",
"84 339 OFFCURVE",
"122 312 OFFCURVE",
"165 297 CURVE SMOOTH",
"187 290 OFFCURVE",
"223 286 OFFCURVE",
"272 285 CURVE SMOOTH",
"322 285 OFFCURVE",
"371 306 OFFCURVE",
"420 348 CURVE",
"421 347 LINE",
"420 328 OFFCURVE",
"419 310 OFFCURVE",
"419 294 CURVE SMOOTH",
"419 175 LINE SMOOTH",
"420 112 OFFCURVE",
"394 72 OFFCURVE",
"341 56 CURVE",
"293 36 OFFCURVE",
"236 37 OFFCURVE",
"170 58 CURVE SMOOTH",
"105 79 OFFCURVE",
"80 134 OFFCURVE",
"97 222 CURVE",
"76 223 OFFCURVE",
"53 223 OFFCURVE",
"30 222 CURVE",
"30 217 LINE",
"23 166 OFFCURVE",
"31 123 OFFCURVE",
"54 89 CURVE SMOOTH",
"123 -12 OFFCURVE",
"343 -43 OFFCURVE",
"427 57 CURVE",
"455 96 OFFCURVE",
"470 143 OFFCURVE",
"477 192 CURVE SMOOTH",
"482 236 OFFCURVE",
"477 279 OFFCURVE",
"476 323 CURVE SMOOTH"
);
},
{
closed = 1;
nodes = (
"412 390 OFFCURVE",
"381 363 OFFCURVE",
"326 338 CURVE SMOOTH",
"299 325 OFFCURVE",
"270 320 OFFCURVE",
"241 322 CURVE SMOOTH",
"182 327 OFFCURVE",
"122 358 OFFCURVE",
"95 417 CURVE",
"82 453 OFFCURVE",
"80 495 OFFCURVE",
"76 535 CURVE",
"76 595 OFFCURVE",
"115 627 OFFCURVE",
"164 650 CURVE SMOOTH",
"221 678 OFFCURVE",
"288 673 OFFCURVE",
"347 653 CURVE",
"377 644 OFFCURVE",
"397 624 OFFCURVE",
"408 595 CURVE SMOOTH",
"419 566 OFFCURVE",
"423 537 OFFCURVE",
"422 506 CURVE SMOOTH",
"422 490 OFFCURVE",
"421 477 OFFCURVE",
"419 467 CURVE"
);
}
);
width = 513;
}
);
note = nine;
unicode = 0039;
},
{
glyphname = braceleft;
layers = (
{
hints = (
{
place = "{126, 32}";
type = Stem;
}
);
layerId = "09B19460-4606-4A98-AA02-96D7DF647D82";
paths = (
{
closed = 1;
nodes = (
"293 16 OFFCURVE",
"293 28 OFFCURVE",
"292 35 CURVE",
"227 44 OFFCURVE",
"190 53 OFFCURVE",
"182 60 CURVE",
"174 68 OFFCURVE",
"168 77 OFFCURVE",
"164 87 CURVE",
"157 108 OFFCURVE",
"157 134 OFFCURVE",
"158 157 CURVE SMOOTH",
"159 185 OFFCURVE",
"157 216 OFFCURVE",
"152 249 CURVE SMOOTH",
"147 283 OFFCURVE",
"126 315 OFFCURVE",
"89 346 CURVE",
"130 375 OFFCURVE",
"154 404 OFFCURVE",
"159 435 CURVE SMOOTH",
"164 466 OFFCURVE",
"166 491 OFFCURVE",
"165 511 CURVE SMOOTH",
"162 551 OFFCURVE",
"158 592 OFFCURVE",
"171 619 CURVE",
"179 642 OFFCURVE",
"198 651 OFFCURVE",
"229 648 CURVE SMOOTH",
"260 645 OFFCURVE",
"280 646 OFFCURVE",
"291 649 CURVE",
"292 650 OFFCURVE",
"292 660 OFFCURVE",
"289 678 CURVE",
"257 681 OFFCURVE",
"231 680 OFFCURVE",
"192 676 CURVE",
"142 668 OFFCURVE",
"115 616 OFFCURVE",
"126 562 CURVE",
"128 520 OFFCURVE",
"128 488 OFFCURVE",
"127 467 CURVE SMOOTH",
"126 446 OFFCURVE",
"121 428 OFFCURVE",
"113 411 CURVE SMOOTH",
"97 378 OFFCURVE",
"67 356 OFFCURVE",
"15 361 CURVE",
"12 355 OFFCURVE",
"12 342 OFFCURVE",
"13 323 CURVE",
"14 322 OFFCURVE",
"17 322 OFFCURVE",
"21 322 CURVE",
"73 325 OFFCURVE",
"102 297 OFFCURVE",
"115 258 CURVE SMOOTH",
"122 239 OFFCURVE",
"126 214 OFFCURVE",
"126 183 CURVE SMOOTH",
"127 152 OFFCURVE",
"126 127 OFFCURVE",
"123 108 CURVE",
"120 48 OFFCURVE",
"182 -12 OFFCURVE",
"292 1 CURVE"
);
}
);
width = 318;
}
);
note = braceleft;
rightKerningGroup = braceleft;
unicode = 007B;
},
{
glyphname = braceright;
layers = (
{
hints = (
{
place = "{152, 42}";
type = Stem;
}
);
layerId = "09B19460-4606-4A98-AA02-96D7DF647D82";
paths = (
{
closed = 1;
nodes = (
"135 -12 OFFCURVE",
"197 48 OFFCURVE",
"194 108 CURVE",
"191 127 OFFCURVE",
"190 152 OFFCURVE",
"190 183 CURVE SMOOTH",
"191 214 OFFCURVE",
"194 239 OFFCURVE",
"201 258 CURVE SMOOTH",
"216 297 OFFCURVE",
"244 325 OFFCURVE",
"296 322 CURVE",
"300 322 OFFCURVE",
"303 322 OFFCURVE",
"304 323 CURVE",
"305 342 OFFCURVE",
"305 355 OFFCURVE",
"302 361 CURVE",
"250 356 OFFCURVE",
"220 378 OFFCURVE",
"204 411 CURVE SMOOTH",
"196 428 OFFCURVE",
"191 446 OFFCURVE",
"190 467 CURVE SMOOTH",
"189 488 OFFCURVE",
"189 520 OFFCURVE",
"191 562 CURVE",
"202 616 OFFCURVE",
"175 668 OFFCURVE",
"125 676 CURVE",
"86 680 OFFCURVE",
"60 681 OFFCURVE",
"28 678 CURVE",
"25 660 OFFCURVE",
"25 650 OFFCURVE",
"26 649 CURVE",
"37 646 OFFCURVE",
"57 645 OFFCURVE",
"88 648 CURVE SMOOTH",
"119 651 OFFCURVE",
"138 642 OFFCURVE",
"146 619 CURVE",
"159 592 OFFCURVE",
"155 551 OFFCURVE",
"152 511 CURVE SMOOTH",
"151 491 OFFCURVE",
"153 466 OFFCURVE",
"158 435 CURVE SMOOTH",
"163 404 OFFCURVE",
"187 375 OFFCURVE",
"228 346 CURVE",
"191 315 OFFCURVE",
"170 283 OFFCURVE",
"165 249 CURVE SMOOTH",
"160 216 OFFCURVE",
"158 185 OFFCURVE",
"159 157 CURVE SMOOTH",
"160 134 OFFCURVE",
"160 108 OFFCURVE",
"152 87 CURVE",
"149 77 OFFCURVE",
"143 68 OFFCURVE",
"135 60 CURVE",
"127 53 OFFCURVE",
"90 44 OFFCURVE",
"25 35 CURVE",
"24 28 OFFCURVE",
"24 16 OFFCURVE",
"25 1 CURVE"
);
}
);
width = 318;
}
);
leftKerningGroup = braceright;
note = braceright;
unicode = 007D;
},
{
glyphname = Euro;
layers = (
{
hints = (
{
horizontal = 1;
place = "{1, 51}";
type = Stem;
},
{
horizontal = 1;
place = "{288, 49}";
type = Stem;
},
{
horizontal = 1;
place = "{408, 49}";
type = Stem;
},
{
horizontal = 1;
place = "{663, 46}";
type = Stem;
},
{
place = "{31, 51}";
type = Stem;
}
);
layerId = "09B19460-4606-4A98-AA02-96D7DF647D82";
paths = (
{
closed = 1;
nodes = (
"244 1 LINE",
"321 -2 OFFCURVE",
"383 -5 OFFCURVE",
"459 7 CURVE",
"459 17 OFFCURVE",
"459 32 OFFCURVE",
"458 51 CURVE",
"458 52 LINE",
"416 52 OFFCURVE",
"386 52 OFFCURVE",
"367 53 CURVE SMOOTH",
"348 54 OFFCURVE",
"318 53 OFFCURVE",
"276 52 CURVE SMOOTH",
"235 51 OFFCURVE",
"193 63 OFFCURVE",
"150 88 CURVE SMOOTH",
"107 113 OFFCURVE",
"85 180 OFFCURVE",
"82 287 CURVE",
"137 290 OFFCURVE",
"209 284 OFFCURVE",
"317 288 CURVE",
"315 301 OFFCURVE",
"314 317 OFFCURVE",
"314 336 CURVE",
"291 337 OFFCURVE",
"252 338 OFFCURVE",
"198 337 CURVE SMOOTH",
"82 337 LINE",
"79 349 OFFCURVE",
"82 375 OFFCURVE",
"82 406 CURVE",
"83 406 LINE",
"102 407 OFFCURVE",
"125 406 OFFCURVE",
"148 406 CURVE",
"159 407 OFFCURVE",
"188 407 OFFCURVE",
"234 408 CURVE SMOOTH",
"281 409 OFFCURVE",
"308 411 OFFCURVE",
"317 414 CURVE",
"317 415 LINE",
"318 455 LINE",
"318 456 LINE",
"307 459 OFFCURVE",
"269 460 OFFCURVE",
"204 457 CURVE SMOOTH",
"139 455 OFFCURVE",
"100 454 OFFCURVE",
"85 454 CURVE SMOOTH",
"81 454 LINE",
"82 510 OFFCURVE",
"95 558 OFFCURVE",
"119 597 CURVE SMOOTH",
"143 636 OFFCURVE",
"188 657 OFFCURVE",
"255 660 CURVE SMOOTH",
"387 666 LINE SMOOTH",
"409 667 OFFCURVE",
"430 667 OFFCURVE",
"450 666 CURVE",
"451 667 OFFCURVE",
"451 668 OFFCURVE",
"451 669 CURVE",
"450 681 OFFCURVE",
"451 694 OFFCURVE",
"453 708 CURVE",
"453 709 LINE",
"452 709 LINE",
"318 704 OFFCURVE",
"148 729 OFFCURVE",
"73 619 CURVE SMOOTH",
"42 570 OFFCURVE",
"34 522 OFFCURVE",
"31 471 CURVE",
"28 326 OFFCURVE",
"18 160 OFFCURVE",
"95 70 CURVE",
"105 57 OFFCURVE",
"117 47 OFFCURVE",
"132 38 CURVE SMOOTH",
"161 21 OFFCURVE",
"189 10 OFFCURVE",
"226 3 CURVE"
);
}
);
width = 490;
}
);
note = Euro;
unicode = 20AC;
},
{
glyphname = plusminus;
layers = (
{
hints = (
{
horizontal = 1;
place = "{56, 21}";
target = up;
type = BottomGhost;
},
{
horizontal = 1;
place = "{114, 140}";
type = Stem;
},
{
horizontal = 1;
place = "{432, 57}";
type = Stem;
},
{
horizontal = 1;
place = "{665, -20}";
target = down;
type = TopGhost;
},
{
place = "{227, 51}";
type = Stem;
}
);
layerId = "09B19460-4606-4A98-AA02-96D7DF647D82";
paths = (
{
closed = 1;
nodes = (
"224 256 OFFCURVE",
"233 254 OFFCURVE",
"256 254 CURVE SMOOTH",
"268 254 OFFCURVE",
"274 255 OFFCURVE",
"274 257 CURVE SMOOTH",
"274 259 LINE SMOOTH",
"274 268 OFFCURVE",
"277 289 OFFCURVE",
"278 333 CURVE",
"281 378 OFFCURVE",
"282 416 OFFCURVE",
"281 428 CURVE",
"288 432 OFFCURVE",
"312 432 OFFCURVE",
"367 432 CURVE SMOOTH",
"422 432 OFFCURVE",
"441 432 OFFCURVE",
"445 435 CURVE",
"448 452 OFFCURVE",
"449 469 OFFCURVE",
"449 486 CURVE",
"434 489 OFFCURVE",
"387 489 OFFCURVE",
"355 489 CURVE SMOOTH",
"323 489 OFFCURVE",
"299 489 OFFCURVE",
"283 490 CURVE",
"282 493 OFFCURVE",
"281 514 OFFCURVE",
"281 553 CURVE SMOOTH",
"281 661 LINE",
"262 663 OFFCURVE",
"233 658 OFFCURVE",
"231 665 CURVE",
"228 647 LINE SMOOTH",
"227 640 OFFCURVE",
"227 633 OFFCURVE",
"227 624 CURVE",
"228 616 OFFCURVE",
"228 593 OFFCURVE",
"227 556 CURVE SMOOTH",
"227 490 LINE",
"223 489 OFFCURVE",
"202 486 OFFCURVE",
"137 483 CURVE SMOOTH",
"72 482 OFFCURVE",
"51 479 OFFCURVE",
"47 480 CURVE",
"47 476 OFFCURVE",
"50 446 OFFCURVE",
"49 441 CURVE",
"49 439 OFFCURVE",
"49 438 OFFCURVE",
"50 437 CURVE",
"55 434 OFFCURVE",
"71 431 OFFCURVE",
"131 430 CURVE SMOOTH",
"191 429 OFFCURVE",
"206 427 OFFCURVE",
"214 427 CURVE SMOOTH",
"216 427 LINE",
"217 426 OFFCURVE",
"218 418 OFFCURVE",
"218 407 CURVE",
"219 383 OFFCURVE",
"219 366 OFFCURVE",
"219 356 CURVE SMOOTH",
"219 347 OFFCURVE",
"219 334 OFFCURVE",
"218 319 CURVE",
"218 288 OFFCURVE",
"217 278 OFFCURVE",
"220 258 CURVE",
"220 255 OFFCURVE",
"221 256 OFFCURVE",
"221 255 CURVE"
);
},
{
closed = 1;
nodes = (
"46 63 OFFCURVE",
"452 56 OFFCURVE",
"473 56 CURVE SMOOTH",
"474 56 LINE",
"471 114 LINE",
"28 114 LINE",
"28 110 OFFCURVE",
"27 84 OFFCURVE",
"26 79 CURVE",
"25 76 OFFCURVE",
"25 71 OFFCURVE",
"25 63 CURVE"
);
}
);
width = 501;
}
);
note = plusminus;
unicode = 00B1;
},
{
glyphname = Agrave;
layers = (
{
hints = (
{
horizontal = 1;
place = "{0, 21}";
target = up;
type = BottomGhost;
},
{
horizontal = 1;
place = "{170, 43}";
type = Stem;
},
{
horizontal = 1;
place = "{904, -20}";
target = down;
type = TopGhost;
}
);
layerId = "09B19460-4606-4A98-AA02-96D7DF647D82";
paths = (
{
closed = 1;
nodes = (
"119 826 OFFCURVE",
"134 811 OFFCURVE",
"145 799 CURVE",
"168 776 OFFCURVE",
"187 759 OFFCURVE",
"194 748 CURVE",
"231 744 OFFCURVE",
"250 747 OFFCURVE",
"259 750 CURVE",
"236 771 OFFCURVE",
"204 809 OFFCURVE",
"176 834 CURVE",
"148 861 OFFCURVE",
"123 887 OFFCURVE",
"107 904 CURVE",
"74 869 LINE",
"76 869 OFFCURVE",
"86 861 OFFCURVE",
"101 844 CURVE"
);
},
{
closed = 1;
nodes = (
"73 868 LINE",
"74 869 LINE"
);
},
{
closed = 1;
nodes = (
"362 351 LINE",
"280 705 LINE",
"187 697 OFFCURVE",
"190 703 OFFCURVE",
"166 700 CURVE",
"102 539 OFFCURVE",
"75 373 OFFCURVE",
"46 241 CURVE",
"22 110 OFFCURVE",
"8 15 OFFCURVE",
"4 2 CURVE",
"47 2 LINE",
"50 3 OFFCURVE",
"51 3 OFFCURVE",
"52 3 CURVE",
"67 87 LINE SMOOTH",
"70 103 OFFCURVE",
"76 131 OFFCURVE",
"83 172 CURVE",
"348 169 LINE",
"359 127 OFFCURVE",
"367 98 OFFCURVE",
"370 83 CURVE",
"374 68 OFFCURVE",
"378 53 OFFCURVE",
"381 38 CURVE",
"385 23 OFFCURVE",
"389 11 OFFCURVE",
"393 0 CURVE",
"394 0 LINE",
"392 -4 OFFCURVE",
"406 -4 OFFCURVE",
"437 0 CURVE",
"437 1 LINE"
);
},
{
closed = 1;
nodes = (
"119 212 OFFCURVE",
"96 212 OFFCURVE",
"88 213 CURVE",
"120 372 OFFCURVE",
"144 485 OFFCURVE",
"159 554 CURVE SMOOTH",
"175 623 OFFCURVE",
"186 658 OFFCURVE",
"192 658 CURVE",
"199 659 OFFCURVE",
"208 659 OFFCURVE",
"220 659 CURVE SMOOTH",
"247 659 LINE SMOOTH",
"253 659 OFFCURVE",
"286 510 OFFCURVE",
"347 213 CURVE",
"259 211 OFFCURVE",
"196 210 OFFCURVE",
"157 211 CURVE SMOOTH"
);
}
);
width = 434;
}
);
leftKerningGroup = A;
note = Agrave;
rightKerningGroup = A;
unicode = 00C0;
},
{
glyphname = Aacute;
layers = (
{
hints = (
{
horizontal = 1;
place = "{0, 21}";
target = up;
type = BottomGhost;
},
{
horizontal = 1;
place = "{170, 43}";
type = Stem;
},
{
horizontal = 1;
place = "{906, -20}";
target = down;
type = TopGhost;
}
);
layerId = "09B19460-4606-4A98-AA02-96D7DF647D82";
paths = (
{
closed = 1;
nodes = (
"251 761 OFFCURVE",
"270 778 OFFCURVE",
"293 801 CURVE SMOOTH",
"336 846 LINE SMOOTH",
"352 863 OFFCURVE",
"362 871 OFFCURVE",
"364 871 CURVE",
"331 906 LINE",
"315 889 OFFCURVE",
"290 863 OFFCURVE",
"262 836 CURVE",
"234 811 OFFCURVE",
"202 773 OFFCURVE",
"179 752 CURVE",
"188 749 OFFCURVE",
"207 746 OFFCURVE",
"244 750 CURVE"
);
},
{
closed = 1;
nodes = (
"364 871 LINE",
"365 870 LINE"
);
},
{
closed = 1;
nodes = (
"362 351 LINE",
"280 705 LINE",
"187 697 OFFCURVE",
"190 703 OFFCURVE",
"166 700 CURVE",
"102 539 OFFCURVE",
"75 373 OFFCURVE",
"46 241 CURVE",
"22 110 OFFCURVE",
"8 15 OFFCURVE",
"4 2 CURVE",
"47 2 LINE",
"50 3 OFFCURVE",
"51 3 OFFCURVE",
"52 3 CURVE",
"67 87 LINE SMOOTH",
"70 103 OFFCURVE",
"76 131 OFFCURVE",
"83 172 CURVE",
"348 169 LINE",
"359 127 OFFCURVE",
"367 98 OFFCURVE",
"370 83 CURVE",
"374 68 OFFCURVE",
"378 53 OFFCURVE",
"381 38 CURVE",
"385 23 OFFCURVE",
"389 11 OFFCURVE",
"393 0 CURVE",
"394 0 LINE",
"392 -4 OFFCURVE",
"406 -4 OFFCURVE",
"437 0 CURVE",
"437 1 LINE"
);
},
{
closed = 1;
nodes = (
"119 212 OFFCURVE",
"96 212 OFFCURVE",
"88 213 CURVE",
"120 372 OFFCURVE",
"144 485 OFFCURVE",
"159 554 CURVE SMOOTH",
"175 623 OFFCURVE",
"186 658 OFFCURVE",
"192 658 CURVE",
"199 659 OFFCURVE",
"208 659 OFFCURVE",
"220 659 CURVE SMOOTH",
"247 659 LINE SMOOTH",
"253 659 OFFCURVE",
"286 510 OFFCURVE",
"347 213 CURVE",
"259 211 OFFCURVE",
"196 210 OFFCURVE",
"157 211 CURVE SMOOTH"
);
}
);
width = 434;
}
);
leftKerningGroup = A;
note = Aacute;
rightKerningGroup = A;
unicode = 00C1;
},
{
glyphname = Acircumflex;
layers = (
{
hints = (
{
horizontal = 1;
place = "{0, 21}";
target = up;
type = BottomGhost;
},
{
horizontal = 1;
place = "{170, 43}";
type = Stem;
},
{
horizontal = 1;
place = "{915, -20}";
target = down;
type = TopGhost;
}
);
layerId = "09B19460-4606-4A98-AA02-96D7DF647D82";
paths = (
{
closed = 1;
nodes = (
"220 915 LINE",
"141 841 LINE SMOOTH",
"118 819 OFFCURVE",
"91 790 OFFCURVE",
"60 753 CURVE",
"101 752 OFFCURVE",
"106 752 OFFCURVE",
"118 753 CURVE",
"121 754 OFFCURVE",
"132 765 OFFCURVE",
"153 787 CURVE SMOOTH",
"192 829 LINE SMOOTH",
"203 841 OFFCURVE",
"215 856 OFFCURVE",
"222 857 CURVE",
"227 854 OFFCURVE",
"239 843 OFFCURVE",
"248 831 CURVE",
"293 786 LINE SMOOTH",
"319 761 OFFCURVE",
"333 749 OFFCURVE",
"336 749 CURVE",
"361 753 OFFCURVE",
"378 755 OFFCURVE",
"381 754 CURVE"
);
},
{
closed = 1;
nodes = (
"437 1 LINE",
"362 351 LINE",
"280 705 LINE",
"187 697 OFFCURVE",
"190 703 OFFCURVE",
"166 700 CURVE",
"102 539 OFFCURVE",
"75 373 OFFCURVE",
"46 241 CURVE",
"22 110 OFFCURVE",
"8 15 OFFCURVE",
"4 2 CURVE",
"47 2 LINE",
"50 3 OFFCURVE",
"51 3 OFFCURVE",
"52 3 CURVE",
"67 87 LINE SMOOTH",
"70 103 OFFCURVE",
"76 131 OFFCURVE",
"83 172 CURVE",
"348 169 LINE",
"359 127 OFFCURVE",
"367 98 OFFCURVE",
"370 83 CURVE",
"374 68 OFFCURVE",
"378 53 OFFCURVE",
"381 38 CURVE",
"385 23 OFFCURVE",
"389 11 OFFCURVE",
"393 0 CURVE",
"394 0 LINE",
"392 -4 OFFCURVE",
"406 -4 OFFCURVE",
"437 0 CURVE"
);
},
{
closed = 1;
nodes = (
"259 211 OFFCURVE",
"196 210 OFFCURVE",
"157 211 CURVE SMOOTH",
"119 212 OFFCURVE",
"96 212 OFFCURVE",
"88 213 CURVE",
"120 372 OFFCURVE",
"144 485 OFFCURVE",
"159 554 CURVE SMOOTH",
"175 623 OFFCURVE",
"186 658 OFFCURVE",
"192 658 CURVE",
"199 659 OFFCURVE",
"208 659 OFFCURVE",
"220 659 CURVE SMOOTH",
"247 659 LINE SMOOTH",
"253 659 OFFCURVE",
"286 510 OFFCURVE",
"347 213 CURVE"
);
}
);
width = 434;
}
);
leftKerningGroup = A;
note = Acircumflex;
rightKerningGroup = A;
unicode = 00C2;
},
{
glyphname = Atilde;
layers = (
{
hints = (
{
horizontal = 1;
place = "{0, 21}";
target = up;
type = BottomGhost;
},
{
horizontal = 1;
place = "{170, 43}";
type = Stem;
}
);
layerId = "09B19460-4606-4A98-AA02-96D7DF647D82";
paths = (
{
closed = 1;
nodes = (
"61 758 LINE",
"74 825 OFFCURVE",
"95 874 OFFCURVE",
"144 886 CURVE",
"173 891 OFFCURVE",
"195 886 OFFCURVE",
"216 829 CURVE",
"229 786 OFFCURVE",
"246 761 OFFCURVE",
"265 755 CURVE SMOOTH",
"284 749 OFFCURVE",
"304 748 OFFCURVE",
"325 751 CURVE SMOOTH",
"395 762 OFFCURVE",
"430 846 OFFCURVE",
"419 912 CURVE",
"419 913 LINE",
"382 912 LINE",
"386 885 OFFCURVE",
"384 859 OFFCURVE",
"377 833 CURVE SMOOTH",
"370 807 OFFCURVE",
"351 791 OFFCURVE",
"319 784 CURVE SMOOTH",
"287 778 OFFCURVE",
"266 790 OFFCURVE",
"257 820 CURVE SMOOTH",
"248 851 OFFCURVE",
"241 871 OFFCURVE",
"235 880 CURVE",
"230 889 OFFCURVE",
"222 898 OFFCURVE",
"212 905 CURVE SMOOTH",
"169 934 OFFCURVE",
"113 922 OFFCURVE",
"77 886 CURVE",
"52 858 OFFCURVE",
"25 786 OFFCURVE",
"17 757 CURVE",
"37 758 OFFCURVE",
"45 758 OFFCURVE",
"61 757 CURVE"
);
},
{
closed = 1;
nodes = (
"437 1 LINE",
"362 351 LINE",
"280 705 LINE",
"187 697 OFFCURVE",
"190 703 OFFCURVE",
"166 700 CURVE",
"102 539 OFFCURVE",
"75 373 OFFCURVE",
"46 241 CURVE",
"22 110 OFFCURVE",
"8 15 OFFCURVE",
"4 2 CURVE",
"47 2 LINE",
"50 3 OFFCURVE",
"51 3 OFFCURVE",
"52 3 CURVE",
"67 87 LINE SMOOTH",
"70 103 OFFCURVE",
"76 131 OFFCURVE",
"83 172 CURVE",
"348 169 LINE",
"359 127 OFFCURVE",
"367 98 OFFCURVE",
"370 83 CURVE",
"374 68 OFFCURVE",
"378 53 OFFCURVE",
"381 38 CURVE",
"385 23 OFFCURVE",
"389 11 OFFCURVE",
"393 0 CURVE",
"394 0 LINE",
"392 -4 OFFCURVE",
"406 -4 OFFCURVE",
"437 0 CURVE"
);
},
{
closed = 1;
nodes = (
"259 211 OFFCURVE",
"196 210 OFFCURVE",
"157 211 CURVE SMOOTH",
"119 212 OFFCURVE",
"96 212 OFFCURVE",
"88 213 CURVE",
"120 372 OFFCURVE",
"144 485 OFFCURVE",
"159 554 CURVE SMOOTH",
"175 623 OFFCURVE",
"186 658 OFFCURVE",
"192 658 CURVE",
"199 659 OFFCURVE",
"208 659 OFFCURVE",
"220 659 CURVE SMOOTH",
"247 659 LINE SMOOTH",
"253 659 OFFCURVE",
"286 510 OFFCURVE",
"347 213 CURVE"
);
}
);
width = 434;
}
);
leftKerningGroup = A;
note = Atilde;
rightKerningGroup = A;
unicode = 00C3;
},
{
glyphname = Egrave;
layers = (
{
hints = (
{
horizontal = 1;
place = "{3, 38}";
type = Stem;
},
{
horizontal = 1;
place = "{324, 43}";
type = Stem;
},
{
horizontal = 1;
place = "{653, 36}";
type = Stem;
},
{
horizontal = 1;
place = "{904, -20}";
target = down;
type = TopGhost;
},
{
place = "{45, 41}";
type = Stem;
}
);
layerId = "09B19460-4606-4A98-AA02-96D7DF647D82";
paths = (
{
closed = 1;
nodes = (
"176 826 OFFCURVE",
"191 811 OFFCURVE",
"202 799 CURVE",
"225 776 OFFCURVE",
"244 759 OFFCURVE",
"251 748 CURVE",
"288 744 OFFCURVE",
"307 747 OFFCURVE",
"316 750 CURVE",
"293 771 OFFCURVE",
"261 809 OFFCURVE",
"233 834 CURVE",
"205 861 OFFCURVE",
"180 887 OFFCURVE",
"164 904 CURVE",
"131 869 LINE",
"133 869 OFFCURVE",
"143 861 OFFCURVE",
"158 844 CURVE"
);
},
{
closed = 1;
nodes = (
"130 868 LINE",
"131 869 LINE"
);
},
{
closed = 1;
nodes = (
"95 653 LINE SMOOTH",
"189 656 OFFCURVE",
"247 657 OFFCURVE",
"269 657 CURVE SMOOTH",
"291 657 OFFCURVE",
"313 657 OFFCURVE",
"335 656 CURVE",
"379 656 OFFCURVE",
"416 660 OFFCURVE",
"459 657 CURVE",
"460 695 LINE SMOOTH",
"460 701 OFFCURVE",
"201 697 OFFCURVE",
"46 689 CURVE",
"33 460 OFFCURVE",
"45 237 OFFCURVE",
"45 5 CURVE",
"174 -6 OFFCURVE",
"319 4 OFFCURVE",
"455 3 CURVE",
"457 39 LINE",
"457 41 LINE",
"412 40 OFFCURVE",
"368 40 OFFCURVE",
"325 42 CURVE SMOOTH",
"282 45 OFFCURVE",
"203 46 OFFCURVE",
"87 45 CURVE",
"86 46 LINE",
"91 205 OFFCURVE",
"85 280 OFFCURVE",
"92 319 CURVE",
"95 322 OFFCURVE",
"120 323 OFFCURVE",
"165 324 CURVE SMOOTH",
"210 325 OFFCURVE",
"239 326 OFFCURVE",
"250 325 CURVE SMOOTH",
"262 324 OFFCURVE",
"270 324 OFFCURVE",
"274 325 CURVE SMOOTH",
"278 326 OFFCURVE",
"294 328 OFFCURVE",
"320 329 CURVE",
"320 332 OFFCURVE",
"320 345 OFFCURVE",
"319 364 CURVE",
"319 365 LINE",
"298 366 OFFCURVE",
"278 366 OFFCURVE",
"257 366 CURVE SMOOTH",
"236 366 OFFCURVE",
"180 366 OFFCURVE",
"88 367 CURVE",
"87 368 LINE",
"82 386 OFFCURVE",
"82 433 OFFCURVE",
"86 509 CURVE SMOOTH",
"90 585 OFFCURVE",
"92 633 OFFCURVE",
"91 652 CURVE",
"92 653 LINE"
);
},
{
closed = 1;
nodes = (
"320 329 LINE",
"321 328 OFFCURVE",
"321 328 OFFCURVE",
"321 329 CURVE"
);
}
);
width = 481;
}
);
note = Egrave;
rightKerningGroup = E;
unicode = 00C8;
},
{
glyphname = Eacute;
layers = (
{
hints = (
{
horizontal = 1;
place = "{3, 42}";
type = Stem;
},
{
horizontal = 1;
place = "{324, 43}";
type = Stem;
},
{
horizontal = 1;
place = "{656, 33}";
type = Stem;
},
{
horizontal = 1;
place = "{907, -20}";
target = down;
type = TopGhost;
},
{
place = "{45, 41}";
type = Stem;
}
);
layerId = "09B19460-4606-4A98-AA02-96D7DF647D82";
paths = (
{
closed = 1;
nodes = (
"266 762 OFFCURVE",
"285 779 OFFCURVE",
"308 802 CURVE SMOOTH",
"351 847 LINE SMOOTH",
"367 864 OFFCURVE",
"377 872 OFFCURVE",
"379 872 CURVE",
"346 907 LINE",
"330 890 OFFCURVE",
"305 864 OFFCURVE",
"277 837 CURVE",
"249 812 OFFCURVE",
"217 774 OFFCURVE",
"194 753 CURVE",
"203 750 OFFCURVE",
"222 747 OFFCURVE",
"259 751 CURVE"
);
},
{
closed = 1;
nodes = (
"379 872 LINE",
"380 871 LINE"
);
},
{
closed = 1;
nodes = (
"95 653 LINE SMOOTH",
"189 656 OFFCURVE",
"247 657 OFFCURVE",
"269 657 CURVE SMOOTH",
"291 657 OFFCURVE",
"313 657 OFFCURVE",
"335 656 CURVE",
"379 656 OFFCURVE",
"416 660 OFFCURVE",
"459 657 CURVE",
"460 695 LINE SMOOTH",
"460 701 OFFCURVE",
"201 697 OFFCURVE",
"46 689 CURVE",
"33 460 OFFCURVE",
"45 237 OFFCURVE",
"45 5 CURVE",
"174 -6 OFFCURVE",
"319 4 OFFCURVE",
"455 3 CURVE",
"457 39 LINE",
"457 41 LINE",
"412 40 OFFCURVE",
"368 40 OFFCURVE",
"325 42 CURVE SMOOTH",
"282 45 OFFCURVE",
"203 46 OFFCURVE",
"87 45 CURVE",
"86 46 LINE",
"91 205 OFFCURVE",
"85 280 OFFCURVE",
"92 319 CURVE",
"95 322 OFFCURVE",
"120 323 OFFCURVE",
"165 324 CURVE SMOOTH",
"210 325 OFFCURVE",
"239 326 OFFCURVE",
"250 325 CURVE SMOOTH",
"262 324 OFFCURVE",
"270 324 OFFCURVE",
"274 325 CURVE SMOOTH",
"278 326 OFFCURVE",
"294 328 OFFCURVE",
"320 329 CURVE",
"320 332 OFFCURVE",
"320 345 OFFCURVE",
"319 364 CURVE",
"319 365 LINE",
"298 366 OFFCURVE",
"278 366 OFFCURVE",
"257 366 CURVE SMOOTH",
"236 366 OFFCURVE",
"180 366 OFFCURVE",
"88 367 CURVE",
"87 368 LINE",
"82 386 OFFCURVE",
"82 433 OFFCURVE",
"86 509 CURVE SMOOTH",
"90 585 OFFCURVE",
"92 633 OFFCURVE",
"91 652 CURVE",
"92 653 LINE"
);
},
{
closed = 1;
nodes = (
"320 329 LINE",
"321 328 OFFCURVE",
"321 328 OFFCURVE",
"321 329 CURVE"
);
}
);
width = 481;
}
);
note = Eacute;
rightKerningGroup = E;
unicode = 00C9;
},
{
glyphname = Ecircumflex;
layers = (
{
hints = (
{
horizontal = 1;
place = "{3, 38}";
type = Stem;
},
{
horizontal = 1;
place = "{324, 43}";
type = Stem;
},
{
horizontal = 1;
place = "{653, 36}";
type = Stem;
},
{
horizontal = 1;
place = "{915, -20}";
target = down;
type = TopGhost;
},
{
place = "{45, 41}";
type = Stem;
}
);
layerId = "09B19460-4606-4A98-AA02-96D7DF647D82";
paths = (
{
closed = 1;
nodes = (
"152 754 OFFCURVE",
"163 765 OFFCURVE",
"184 787 CURVE SMOOTH",
"223 829 LINE SMOOTH",
"234 841 OFFCURVE",
"246 856 OFFCURVE",
"253 857 CURVE",
"258 854 OFFCURVE",
"270 843 OFFCURVE",
"279 831 CURVE",
"324 786 LINE SMOOTH",
"350 761 OFFCURVE",
"364 749 OFFCURVE",
"367 749 CURVE",
"392 753 OFFCURVE",
"409 755 OFFCURVE",
"412 754 CURVE",
"251 915 LINE",
"172 841 LINE SMOOTH",
"149 819 OFFCURVE",
"122 790 OFFCURVE",
"91 753 CURVE",
"132 752 OFFCURVE",
"137 752 OFFCURVE",
"149 753 CURVE"
);
},
{
closed = 1;
nodes = (
"95 653 LINE SMOOTH",
"189 656 OFFCURVE",
"247 657 OFFCURVE",
"269 657 CURVE SMOOTH",
"291 657 OFFCURVE",
"313 657 OFFCURVE",
"335 656 CURVE",
"379 656 OFFCURVE",
"416 660 OFFCURVE",
"459 657 CURVE",
"460 695 LINE SMOOTH",
"460 701 OFFCURVE",
"201 697 OFFCURVE",
"46 689 CURVE",
"33 460 OFFCURVE",
"45 237 OFFCURVE",
"45 5 CURVE",
"174 -6 OFFCURVE",
"319 4 OFFCURVE",
"455 3 CURVE",
"457 39 LINE",
"457 41 LINE",
"412 40 OFFCURVE",
"368 40 OFFCURVE",
"325 42 CURVE SMOOTH",
"282 45 OFFCURVE",
"203 46 OFFCURVE",
"87 45 CURVE",
"86 46 LINE",
"91 205 OFFCURVE",
"85 280 OFFCURVE",
"92 319 CURVE",
"95 322 OFFCURVE",
"120 323 OFFCURVE",
"165 324 CURVE SMOOTH",
"210 325 OFFCURVE",
"239 326 OFFCURVE",
"250 325 CURVE SMOOTH",
"262 324 OFFCURVE",
"270 324 OFFCURVE",
"274 325 CURVE SMOOTH",
"278 326 OFFCURVE",
"294 328 OFFCURVE",
"320 329 CURVE",
"320 332 OFFCURVE",
"320 345 OFFCURVE",
"319 364 CURVE",
"319 365 LINE",
"298 366 OFFCURVE",
"278 366 OFFCURVE",
"257 366 CURVE SMOOTH",
"236 366 OFFCURVE",
"180 366 OFFCURVE",
"88 367 CURVE",
"87 368 LINE",
"82 386 OFFCURVE",
"82 433 OFFCURVE",
"86 509 CURVE SMOOTH",
"90 585 OFFCURVE",
"92 633 OFFCURVE",
"91 652 CURVE",
"92 653 LINE"
);
},
{
closed = 1;
nodes = (
"320 329 LINE",
"321 328 OFFCURVE",
"321 328 OFFCURVE",
"321 329 CURVE"
);
}
);
width = 481;
}
);
note = Ecircumflex;
rightKerningGroup = E;
unicode = 00CA;
},
{
glyphname = Ugrave;
layers = (
{
hints = (
{
horizontal = 1;
place = "{904, -20}";
target = down;
type = TopGhost;
},
{
place = "{40, 54}";
type = Stem;
},
{
place = "{420, 49}";
type = Stem;
}
);
layerId = "09B19460-4606-4A98-AA02-96D7DF647D82";
paths = (
{
closed = 1;
nodes = (
"163 826 OFFCURVE",
"178 811 OFFCURVE",
"189 799 CURVE",
"212 776 OFFCURVE",
"231 759 OFFCURVE",
"238 748 CURVE",
"275 744 OFFCURVE",
"294 747 OFFCURVE",
"303 750 CURVE",
"280 771 OFFCURVE",
"248 809 OFFCURVE",
"220 834 CURVE",
"192 861 OFFCURVE",
"167 887 OFFCURVE",
"151 904 CURVE",
"118 869 LINE",
"120 869 OFFCURVE",
"130 861 OFFCURVE",
"145 844 CURVE"
);
},
{
closed = 1;
nodes = (
"117 868 LINE",
"118 869 LINE"
);
},
{
closed = 1;
nodes = (
"461 674 OFFCURVE",
"445 674 OFFCURVE",
"420 671 CURVE",
"416 516 OFFCURVE",
"425 356 OFFCURVE",
"414 219 CURVE SMOOTH",
"409 150 OFFCURVE",
"388 99 OFFCURVE",
"350 66 CURVE SMOOTH",
"313 33 OFFCURVE",
"263 24 OFFCURVE",
"202 39 CURVE SMOOTH",
"141 55 OFFCURVE",
"106 100 OFFCURVE",
"97 173 CURVE SMOOTH",
"89 246 OFFCURVE",
"88 415 OFFCURVE",
"94 680 CURVE",
"40 680 LINE",
"41 679 LINE",
"42 591 OFFCURVE",
"42 502 OFFCURVE",
"40 413 CURVE SMOOTH",
"38 324 OFFCURVE",
"39 242 OFFCURVE",
"44 168 CURVE SMOOTH",
"47 107 OFFCURVE",
"76 43 OFFCURVE",
"124 16 CURVE",
"173 -9 OFFCURVE",
"237 -19 OFFCURVE",
"293 -14 CURVE SMOOTH",
"389 -5 OFFCURVE",
"446 63 OFFCURVE",
"457 151 CURVE SMOOTH",
"476 323 OFFCURVE",
"477 498 OFFCURVE",
"469 669 CURVE"
);
}
);
width = 505;
}
);
leftKerningGroup = U;
note = Ugrave;
rightKerningGroup = U;
unicode = 00D9;
},
{
glyphname = Uacute;
layers = (
{
hints = (
{
horizontal = 1;
place = "{907, -20}";
target = down;
type = TopGhost;
},
{
place = "{44, 50}";
type = Stem;
},
{
place = "{420, 49}";
type = Stem;
}
);
layerId = "09B19460-4606-4A98-AA02-96D7DF647D82";
paths = (
{
closed = 1;
nodes = (
"266 762 OFFCURVE",
"285 779 OFFCURVE",
"308 802 CURVE SMOOTH",
"351 847 LINE SMOOTH",
"367 864 OFFCURVE",
"377 872 OFFCURVE",
"379 872 CURVE",
"346 907 LINE",
"330 890 OFFCURVE",
"305 864 OFFCURVE",
"277 837 CURVE",
"249 812 OFFCURVE",
"217 774 OFFCURVE",
"194 753 CURVE",
"203 750 OFFCURVE",
"222 747 OFFCURVE",
"259 751 CURVE"
);
},
{
closed = 1;
nodes = (
"379 872 LINE",
"380 871 LINE"
);
},
{
closed = 1;
nodes = (
"461 674 OFFCURVE",
"445 674 OFFCURVE",
"420 671 CURVE",
"416 516 OFFCURVE",
"425 356 OFFCURVE",
"414 219 CURVE SMOOTH",
"409 150 OFFCURVE",
"388 99 OFFCURVE",
"350 66 CURVE SMOOTH",
"313 33 OFFCURVE",
"263 24 OFFCURVE",
"202 39 CURVE SMOOTH",
"141 55 OFFCURVE",
"106 100 OFFCURVE",
"97 173 CURVE SMOOTH",
"89 246 OFFCURVE",
"88 415 OFFCURVE",
"94 680 CURVE",
"40 680 LINE",
"41 679 LINE",
"42 591 OFFCURVE",
"42 502 OFFCURVE",
"40 413 CURVE SMOOTH",
"38 324 OFFCURVE",
"39 242 OFFCURVE",
"44 168 CURVE SMOOTH",
"47 107 OFFCURVE",
"76 43 OFFCURVE",
"124 16 CURVE",
"173 -9 OFFCURVE",
"237 -19 OFFCURVE",
"293 -14 CURVE SMOOTH",
"389 -5 OFFCURVE",
"446 63 OFFCURVE",
"457 151 CURVE SMOOTH",
"476 323 OFFCURVE",
"477 498 OFFCURVE",
"469 669 CURVE"
);
}
);
width = 505;
}
);
leftKerningGroup = U;
note = Uacute;
rightKerningGroup = U;
unicode = 00DA;
},
{
glyphname = Ucircumflex;
layers = (
{
hints = (
{
horizontal = 1;
place = "{915, -20}";
target = down;
type = TopGhost;
},
{
place = "{40, 54}";
type = Stem;
},
{
place = "{420, 49}";
type = Stem;
}
);
layerId = "09B19460-4606-4A98-AA02-96D7DF647D82";
paths = (
{
closed = 1;
nodes = (
"250 915 LINE",
"171 841 LINE SMOOTH",
"148 819 OFFCURVE",
"121 790 OFFCURVE",
"90 753 CURVE",
"131 752 OFFCURVE",
"136 752 OFFCURVE",
"148 753 CURVE",
"151 754 OFFCURVE",
"162 765 OFFCURVE",
"183 787 CURVE SMOOTH",
"222 829 LINE SMOOTH",
"233 841 OFFCURVE",
"245 856 OFFCURVE",
"252 857 CURVE",
"257 854 OFFCURVE",
"269 843 OFFCURVE",
"278 831 CURVE",
"323 786 LINE SMOOTH",
"349 761 OFFCURVE",
"363 749 OFFCURVE",
"366 749 CURVE",
"391 753 OFFCURVE",
"408 755 OFFCURVE",
"411 754 CURVE"
);
},
{
closed = 1;
nodes = (
"461 674 OFFCURVE",
"445 674 OFFCURVE",
"420 671 CURVE",
"416 516 OFFCURVE",
"425 356 OFFCURVE",
"414 219 CURVE SMOOTH",
"409 150 OFFCURVE",
"388 99 OFFCURVE",
"350 66 CURVE SMOOTH",
"313 33 OFFCURVE",
"263 24 OFFCURVE",
"202 39 CURVE SMOOTH",
"141 55 OFFCURVE",
"106 100 OFFCURVE",
"97 173 CURVE SMOOTH",
"89 246 OFFCURVE",
"88 415 OFFCURVE",
"94 680 CURVE",
"40 680 LINE",
"41 679 LINE",
"42 591 OFFCURVE",
"42 502 OFFCURVE",
"40 413 CURVE SMOOTH",
"38 324 OFFCURVE",
"39 242 OFFCURVE",
"44 168 CURVE SMOOTH",
"47 107 OFFCURVE",
"76 43 OFFCURVE",
"124 16 CURVE",
"173 -9 OFFCURVE",
"237 -19 OFFCURVE",
"293 -14 CURVE SMOOTH",
"389 -5 OFFCURVE",
"446 63 OFFCURVE",
"457 151 CURVE SMOOTH",
"476 323 OFFCURVE",
"477 498 OFFCURVE",
"469 669 CURVE"
);
}
);
width = 505;
}
);
leftKerningGroup = U;
note = Ucircumflex;
rightKerningGroup = U;
unicode = 00DB;
},
{
glyphname = ugrave;
layers = (
{
hints = (
{
horizontal = 1;
place = "{740, -20}";
target = down;
type = TopGhost;
},
{
place = "{31, 43}";
type = Stem;
},
{
place = "{370, 43}";
type = Stem;
}
);
layerId = "09B19460-4606-4A98-AA02-96D7DF647D82";
paths = (
{
closed = 1;
nodes = (
"142 662 OFFCURVE",
"157 647 OFFCURVE",
"168 635 CURVE",
"191 612 OFFCURVE",
"210 595 OFFCURVE",
"217 584 CURVE",
"254 580 OFFCURVE",
"273 583 OFFCURVE",
"282 586 CURVE",
"259 607 OFFCURVE",
"227 645 OFFCURVE",
"199 670 CURVE",
"171 697 OFFCURVE",
"146 723 OFFCURVE",
"130 740 CURVE",
"97 705 LINE",
"99 705 OFFCURVE",
"109 697 OFFCURVE",
"124 680 CURVE"
);
},
{
closed = 1;
nodes = (
"96 704 LINE",
"97 705 LINE"
);
},
{
closed = 1;
nodes = (
"395 502 OFFCURVE",
"381 499 OFFCURVE",
"369 496 CURVE",
"369 492 LINE",
"370 470 OFFCURVE",
"370 448 OFFCURVE",
"370 426 CURVE",
"371 404 OFFCURVE",
"371 369 OFFCURVE",
"372 322 CURVE SMOOTH",
"375 217 LINE SMOOTH",
"376 194 OFFCURVE",
"375 168 OFFCURVE",
"373 138 CURVE SMOOTH",
"371 109 OFFCURVE",
"346 83 OFFCURVE",
"298 62 CURVE SMOOTH",
"251 41 OFFCURVE",
"201 34 OFFCURVE",
"150 40 CURVE SMOOTH",
"99 46 OFFCURVE",
"73 85 OFFCURVE",
"74 158 CURVE SMOOTH",
"75 231 OFFCURVE",
"75 282 OFFCURVE",
"75 311 CURVE SMOOTH",
"75 386 LINE SMOOTH",
"76 427 OFFCURVE",
"77 467 OFFCURVE",
"74 498 CURVE",
"34 498 LINE",
"38 430 OFFCURVE",
"33 323 OFFCURVE",
"31 229 CURVE",
"34 131 OFFCURVE",
"26 65 OFFCURVE",
"59 33 CURVE",
"87 0 OFFCURVE",
"162 -6 OFFCURVE",
"270 11 CURVE SMOOTH",
"339 24 OFFCURVE",
"361 49 OFFCURVE",
"368 53 CURVE",
"369 44 OFFCURVE",
"369 26 OFFCURVE",
"370 0 CURVE",
"370 -4 OFFCURVE",
"379 -4 OFFCURVE",
"386 -3 CURVE",
"413 2 LINE",
"418 178 OFFCURVE",
"412 339 OFFCURVE",
"412 503 CURVE"
);
}
);
width = 450;
}
);
leftKerningGroup = u;
note = ugrave;
rightKerningGroup = q;
unicode = 00F9;
},
{
glyphname = uacute;
layers = (
{
hints = (
{
horizontal = 1;
place = "{739, -20}";
target = down;
type = TopGhost;
},
{
place = "{31, 44}";
type = Stem;
},
{
place = "{373, 40}";
type = Stem;
}
);
layerId = "09B19460-4606-4A98-AA02-96D7DF647D82";
paths = (
{
closed = 1;
nodes = (
"247 594 OFFCURVE",
"266 611 OFFCURVE",
"289 634 CURVE SMOOTH",
"332 679 LINE SMOOTH",
"348 696 OFFCURVE",
"358 704 OFFCURVE",
"360 704 CURVE",
"327 739 LINE",
"311 722 OFFCURVE",
"286 696 OFFCURVE",
"258 669 CURVE",
"230 644 OFFCURVE",
"198 606 OFFCURVE",
"175 585 CURVE",
"184 582 OFFCURVE",
"203 579 OFFCURVE",
"240 583 CURVE"
);
},
{
closed = 1;
nodes = (
"360 704 LINE",
"361 703 LINE"
);
},
{
closed = 1;
nodes = (
"395 502 OFFCURVE",
"381 499 OFFCURVE",
"369 496 CURVE",
"369 492 LINE",
"370 470 OFFCURVE",
"370 448 OFFCURVE",
"370 426 CURVE",
"371 404 OFFCURVE",
"371 369 OFFCURVE",
"372 322 CURVE SMOOTH",
"375 217 LINE SMOOTH",
"376 194 OFFCURVE",
"375 168 OFFCURVE",
"373 138 CURVE SMOOTH",
"371 109 OFFCURVE",
"346 83 OFFCURVE",
"298 62 CURVE SMOOTH",
"251 41 OFFCURVE",
"201 34 OFFCURVE",
"150 40 CURVE SMOOTH",
"99 46 OFFCURVE",
"73 85 OFFCURVE",
"74 158 CURVE SMOOTH",
"75 231 OFFCURVE",
"75 282 OFFCURVE",
"75 311 CURVE SMOOTH",
"75 386 LINE SMOOTH",
"76 427 OFFCURVE",
"77 467 OFFCURVE",
"74 498 CURVE",
"34 498 LINE",
"38 430 OFFCURVE",
"33 323 OFFCURVE",
"31 229 CURVE",
"34 131 OFFCURVE",
"26 65 OFFCURVE",
"59 33 CURVE",
"87 0 OFFCURVE",
"162 -6 OFFCURVE",
"270 11 CURVE SMOOTH",
"339 24 OFFCURVE",
"361 49 OFFCURVE",
"368 53 CURVE",
"369 44 OFFCURVE",
"369 26 OFFCURVE",
"370 0 CURVE",
"370 -4 OFFCURVE",
"379 -4 OFFCURVE",
"386 -3 CURVE",
"413 2 LINE",
"418 178 OFFCURVE",
"412 339 OFFCURVE",
"412 503 CURVE"
);
}
);
width = 449;
}
);
leftKerningGroup = u;
note = uacute;
rightKerningGroup = q;
unicode = 00FA;
},
{
glyphname = ucircumflex;
layers = (
{
hints = (
{
horizontal = 1;
place = "{758, -20}";
target = down;
type = TopGhost;
},
{
place = "{31, 43}";
type = Stem;
},
{
place = "{370, 43}";
type = Stem;
}
);
layerId = "09B19460-4606-4A98-AA02-96D7DF647D82";
paths = (
{
closed = 1;
nodes = (
"230 758 LINE",
"151 684 LINE SMOOTH",
"128 662 OFFCURVE",
"101 633 OFFCURVE",
"70 596 CURVE",
"111 595 OFFCURVE",
"116 595 OFFCURVE",
"128 596 CURVE",
"131 597 OFFCURVE",
"142 608 OFFCURVE",
"163 630 CURVE SMOOTH",
"202 672 LINE SMOOTH",
"213 684 OFFCURVE",
"225 699 OFFCURVE",
"232 700 CURVE",
"237 697 OFFCURVE",
"249 686 OFFCURVE",
"258 674 CURVE",
"303 629 LINE SMOOTH",
"329 604 OFFCURVE",
"343 592 OFFCURVE",
"346 592 CURVE",
"371 596 OFFCURVE",
"388 598 OFFCURVE",
"391 597 CURVE"
);
},
{
closed = 1;
nodes = (
"369 44 OFFCURVE",
"369 26 OFFCURVE",
"370 0 CURVE",
"370 -4 OFFCURVE",
"379 -4 OFFCURVE",
"386 -3 CURVE",
"413 2 LINE",
"418 178 OFFCURVE",
"412 339 OFFCURVE",
"412 503 CURVE",
"395 502 OFFCURVE",
"381 499 OFFCURVE",
"369 496 CURVE",
"369 492 LINE",
"370 470 OFFCURVE",
"370 448 OFFCURVE",
"370 426 CURVE",
"371 404 OFFCURVE",
"371 369 OFFCURVE",
"372 322 CURVE SMOOTH",
"375 217 LINE SMOOTH",
"376 194 OFFCURVE",
"375 168 OFFCURVE",
"373 138 CURVE SMOOTH",
"371 109 OFFCURVE",
"346 83 OFFCURVE",
"298 62 CURVE SMOOTH",
"251 41 OFFCURVE",
"201 34 OFFCURVE",
"150 40 CURVE SMOOTH",
"99 46 OFFCURVE",
"73 85 OFFCURVE",
"74 158 CURVE SMOOTH",
"75 231 OFFCURVE",
"75 282 OFFCURVE",
"75 311 CURVE SMOOTH",
"75 386 LINE SMOOTH",
"76 427 OFFCURVE",
"77 467 OFFCURVE",
"74 498 CURVE",
"34 498 LINE",
"38 430 OFFCURVE",
"33 323 OFFCURVE",
"31 229 CURVE",
"34 131 OFFCURVE",
"26 65 OFFCURVE",
"59 33 CURVE",
"87 0 OFFCURVE",
"162 -6 OFFCURVE",
"270 11 CURVE SMOOTH",
"339 24 OFFCURVE",
"361 49 OFFCURVE",
"368 53 CURVE"
);
}
);
width = 450;
}
);
leftKerningGroup = u;
note = ucircumflex;
rightKerningGroup = q;
unicode = 00FB;
},
{
glyphname = egrave;
layers = (
{
hints = (
{
horizontal = 1;
place = "{19, 230}";
type = Stem;
},
{
horizontal = 1;
place = "{289, 190}";
type = Stem;
},
{
horizontal = 1;
place = "{740, -20}";
target = down;
type = TopGhost;
},
{
place = "{21, 45}";
type = Stem;
},
{
place = "{391, 33}";
type = Stem;
},
{
horizontal = 1;
place = "{-10, 29}";
type = Stem;
}
);
layerId = "09B19460-4606-4A98-AA02-96D7DF647D82";
paths = (
{
closed = 1;
nodes = (
"157 662 OFFCURVE",
"172 647 OFFCURVE",
"183 635 CURVE",
"206 612 OFFCURVE",
"225 595 OFFCURVE",
"232 584 CURVE",
"269 580 OFFCURVE",
"288 583 OFFCURVE",
"297 586 CURVE",
"274 607 OFFCURVE",
"242 645 OFFCURVE",
"214 670 CURVE",
"186 697 OFFCURVE",
"161 723 OFFCURVE",
"145 740 CURVE",
"112 705 LINE",
"114 705 OFFCURVE",
"124 697 OFFCURVE",
"139 680 CURVE"
);
},
{
closed = 1;
nodes = (
"111 704 LINE",
"112 705 LINE"
);
},
{
closed = 1;
nodes = (
"97 252 LINE SMOOTH",
"112 251 OFFCURVE",
"143 250 OFFCURVE",
"192 249 CURVE SMOOTH",
"241 248 OFFCURVE",
"275 247 OFFCURVE",
"295 248 CURVE SMOOTH",
"354 250 OFFCURVE",
"411 255 OFFCURVE",
"424 259 CURVE",
"432 371 OFFCURVE",
"414 486 OFFCURVE",
"290 507 CURVE",
"195 531 OFFCURVE",
"78 502 OFFCURVE",
"43 423 CURVE",
"27 379 OFFCURVE",
"25 333 OFFCURVE",
"21 284 CURVE",
"16 176 OFFCURVE",
"41 58 OFFCURVE",
"112 8 CURVE",
"128 -1 OFFCURVE",
"145 -7 OFFCURVE",
"164 -10 CURVE",
"240 -10 OFFCURVE",
"349 -30 OFFCURVE",
"394 34 CURVE",
"413 50 OFFCURVE",
"417 122 OFFCURVE",
"422 190 CURVE",
"407 194 OFFCURVE",
"388 189 OFFCURVE",
"375 190 CURVE",
"376 163 OFFCURVE",
"374 128 OFFCURVE",
"367 85 CURVE SMOOTH",
"360 43 OFFCURVE",
"323 21 OFFCURVE",
"254 19 CURVE SMOOTH",
"185 17 OFFCURVE",
"139 31 OFFCURVE",
"116 60 CURVE SMOOTH",
"71 119 OFFCURVE",
"70 163 OFFCURVE",
"67 188 CURVE",
"65 237 LINE",
"65 255 LINE"
);
},
{
closed = 1;
nodes = (
"82 417 OFFCURVE",
"117 479 OFFCURVE",
"242 479 CURVE SMOOTH",
"273 479 OFFCURVE",
"286 478 OFFCURVE",
"315 467 CURVE",
"368 431 OFFCURVE",
"388 367 OFFCURVE",
"391 316 CURVE",
"391 300 OFFCURVE",
"395 294 OFFCURVE",
"380 291 CURVE",
"365 290 OFFCURVE",
"340 286 OFFCURVE",
"267 289 CURVE",
"218 287 OFFCURVE",
"181 286 OFFCURVE",
"156 287 CURVE SMOOTH",
"132 288 OFFCURVE",
"112 290 OFFCURVE",
"95 291 CURVE SMOOTH",
"63 294 OFFCURVE",
"67 304 OFFCURVE",
"71 336 CURVE SMOOTH"
);
}
);
width = 444;
}
);
leftKerningGroup = egrave;
note = egrave;
rightKerningGroup = egrave;
unicode = 00E8;
},
{
glyphname = eacute;
layers = (
{
hints = (
{
horizontal = 1;
place = "{-10, 29}";
type = Stem;
},
{
horizontal = 1;
place = "{248, 39}";
type = Stem;
},
{
horizontal = 1;
place = "{742, -20}";
target = down;
type = TopGhost;
},
{
place = "{21, 45}";
type = Stem;
},
{
place = "{391, 33}";
type = Stem;
},
{
horizontal = 1;
place = "{287, 192}";
type = Stem;
}
);
layerId = "09B19460-4606-4A98-AA02-96D7DF647D82";
paths = (
{
closed = 1;
nodes = (
"246 597 OFFCURVE",
"265 614 OFFCURVE",
"288 637 CURVE SMOOTH",
"331 682 LINE SMOOTH",
"347 699 OFFCURVE",
"357 707 OFFCURVE",
"359 707 CURVE",
"326 742 LINE",
"310 725 OFFCURVE",
"285 699 OFFCURVE",
"257 672 CURVE",
"229 647 OFFCURVE",
"197 609 OFFCURVE",
"174 588 CURVE",
"183 585 OFFCURVE",
"202 582 OFFCURVE",
"239 586 CURVE"
);
},
{
closed = 1;
nodes = (
"359 707 LINE",
"360 706 LINE"
);
},
{
closed = 1;
nodes = (
"97 252 LINE SMOOTH",
"112 251 OFFCURVE",
"143 250 OFFCURVE",
"192 249 CURVE SMOOTH",
"241 248 OFFCURVE",
"275 247 OFFCURVE",
"295 248 CURVE SMOOTH",
"354 250 OFFCURVE",
"411 255 OFFCURVE",
"424 259 CURVE",
"432 371 OFFCURVE",
"414 486 OFFCURVE",
"290 507 CURVE",
"195 531 OFFCURVE",
"78 502 OFFCURVE",
"43 423 CURVE",
"27 379 OFFCURVE",
"25 333 OFFCURVE",
"21 284 CURVE",
"16 176 OFFCURVE",
"41 58 OFFCURVE",
"112 8 CURVE",
"128 -1 OFFCURVE",
"145 -7 OFFCURVE",
"164 -10 CURVE",
"240 -10 OFFCURVE",
"349 -30 OFFCURVE",
"394 34 CURVE",
"413 50 OFFCURVE",
"417 122 OFFCURVE",
"422 190 CURVE",
"407 194 OFFCURVE",
"388 189 OFFCURVE",
"375 190 CURVE",
"376 163 OFFCURVE",
"374 128 OFFCURVE",
"367 85 CURVE SMOOTH",
"360 43 OFFCURVE",
"323 21 OFFCURVE",
"254 19 CURVE SMOOTH",
"185 17 OFFCURVE",
"139 31 OFFCURVE",
"116 60 CURVE SMOOTH",
"71 119 OFFCURVE",
"70 163 OFFCURVE",
"67 188 CURVE",
"65 237 LINE",
"65 255 LINE"
);
},
{
closed = 1;
nodes = (
"82 417 OFFCURVE",
"117 479 OFFCURVE",
"242 479 CURVE SMOOTH",
"273 479 OFFCURVE",
"286 478 OFFCURVE",
"315 467 CURVE",
"368 431 OFFCURVE",
"388 367 OFFCURVE",
"391 316 CURVE",
"391 300 OFFCURVE",
"395 294 OFFCURVE",
"380 291 CURVE",
"365 290 OFFCURVE",
"340 286 OFFCURVE",
"267 289 CURVE",
"218 287 OFFCURVE",
"181 286 OFFCURVE",
"156 287 CURVE SMOOTH",
"132 288 OFFCURVE",
"112 290 OFFCURVE",
"95 291 CURVE SMOOTH",
"63 294 OFFCURVE",
"67 304 OFFCURVE",
"71 336 CURVE SMOOTH"
);
}
);
width = 444;
}
);
leftKerningGroup = egrave;
note = eacute;
rightKerningGroup = egrave;
unicode = 00E9;
},
{
glyphname = ecircumflex;
layers = (
{
hints = (
{
horizontal = 1;
place = "{19, 230}";
type = Stem;
},
{
horizontal = 1;
place = "{289, 190}";
type = Stem;
},
{
horizontal = 1;
place = "{758, -20}";
target = down;
type = TopGhost;
},
{
place = "{21, 45}";
type = Stem;
},
{
place = "{391, 33}";
type = Stem;
},
{
horizontal = 1;
place = "{-10, 29}";
type = Stem;
}
);
layerId = "09B19460-4606-4A98-AA02-96D7DF647D82";
paths = (
{
closed = 1;
nodes = (
"236 758 LINE",
"157 684 LINE SMOOTH",
"134 662 OFFCURVE",
"107 633 OFFCURVE",
"76 596 CURVE",
"117 595 OFFCURVE",
"122 595 OFFCURVE",
"134 596 CURVE",
"137 597 OFFCURVE",
"148 608 OFFCURVE",
"169 630 CURVE SMOOTH",
"208 672 LINE SMOOTH",
"219 684 OFFCURVE",
"231 699 OFFCURVE",
"238 700 CURVE",
"243 697 OFFCURVE",
"255 686 OFFCURVE",
"264 674 CURVE",
"309 629 LINE SMOOTH",
"335 604 OFFCURVE",
"349 592 OFFCURVE",
"352 592 CURVE",
"377 596 OFFCURVE",
"394 598 OFFCURVE",
"397 597 CURVE"
);
},
{
closed = 1;
nodes = (
"65 237 LINE",
"65 255 LINE",
"97 252 LINE SMOOTH",
"112 251 OFFCURVE",
"143 250 OFFCURVE",
"192 249 CURVE SMOOTH",
"241 248 OFFCURVE",
"275 247 OFFCURVE",
"295 248 CURVE SMOOTH",
"354 250 OFFCURVE",
"411 255 OFFCURVE",
"424 259 CURVE",
"432 371 OFFCURVE",
"414 486 OFFCURVE",
"290 507 CURVE",
"195 531 OFFCURVE",
"78 502 OFFCURVE",
"43 423 CURVE",
"27 379 OFFCURVE",
"25 333 OFFCURVE",
"21 284 CURVE",
"16 176 OFFCURVE",
"41 58 OFFCURVE",
"112 8 CURVE",
"128 -1 OFFCURVE",
"145 -7 OFFCURVE",
"164 -10 CURVE",
"240 -10 OFFCURVE",
"349 -30 OFFCURVE",
"394 34 CURVE",
"413 50 OFFCURVE",
"417 122 OFFCURVE",
"422 190 CURVE",
"407 194 OFFCURVE",
"388 189 OFFCURVE",
"375 190 CURVE",
"376 163 OFFCURVE",
"374 128 OFFCURVE",
"367 85 CURVE SMOOTH",
"360 43 OFFCURVE",
"323 21 OFFCURVE",
"254 19 CURVE SMOOTH",
"185 17 OFFCURVE",
"139 31 OFFCURVE",
"116 60 CURVE SMOOTH",
"71 119 OFFCURVE",
"70 163 OFFCURVE",
"67 188 CURVE"
);
},
{
closed = 1;
nodes = (
"368 431 OFFCURVE",
"388 367 OFFCURVE",
"391 316 CURVE",
"391 300 OFFCURVE",
"395 294 OFFCURVE",
"380 291 CURVE",
"365 290 OFFCURVE",
"340 286 OFFCURVE",
"267 289 CURVE",
"218 287 OFFCURVE",
"181 286 OFFCURVE",
"156 287 CURVE SMOOTH",
"132 288 OFFCURVE",
"112 290 OFFCURVE",
"95 291 CURVE SMOOTH",
"63 294 OFFCURVE",
"67 304 OFFCURVE",
"71 336 CURVE SMOOTH",
"82 417 OFFCURVE",
"117 479 OFFCURVE",
"242 479 CURVE SMOOTH",
"273 479 OFFCURVE",
"286 478 OFFCURVE",
"315 467 CURVE"
);
}
);
width = 444;
}
);
leftKerningGroup = egrave;
note = ecircumflex;
rightKerningGroup = egrave;
unicode = 00EA;
},
{
glyphname = igrave;
layers = (
{
hints = (
{
horizontal = 1;
place = "{-2, 21}";
target = up;
type = BottomGhost;
},
{
horizontal = 1;
place = "{744, -20}";
target = down;
type = TopGhost;
},
{
place = "{83, 56}";
type = Stem;
}
);
layerId = "09B19460-4606-4A98-AA02-96D7DF647D82";
paths = (
{
closed = 1;
nodes = (
"123 611 OFFCURVE",
"91 649 OFFCURVE",
"63 674 CURVE",
"35 701 OFFCURVE",
"10 727 OFFCURVE",
"-6 744 CURVE",
"-39 709 LINE",
"-37 709 OFFCURVE",
"-27 701 OFFCURVE",
"-11 684 CURVE SMOOTH",
"32 639 LINE SMOOTH",
"55 616 OFFCURVE",
"74 599 OFFCURVE",
"81 588 CURVE",
"118 584 OFFCURVE",
"137 587 OFFCURVE",
"146 590 CURVE"
);
},
{
closed = 1;
nodes = (
"-40 708 LINE",
"-39 709 LINE"
);
},
{
closed = 1;
nodes = (
"87 503 LINE",
"79 424 OFFCURVE",
"83 337 OFFCURVE",
"83 266 CURVE SMOOTH",
"83 -2 LINE",
"92 1 OFFCURVE",
"103 3 OFFCURVE",
"139 0 CURVE",
"128 169 OFFCURVE",
"138 339 OFFCURVE",
"139 500 CURVE SMOOTH",
"139 503 LINE",
"107 504 OFFCURVE",
"90 505 OFFCURVE",
"87 504 CURVE"
);
}
);
width = 207;
}
);
note = igrave;
unicode = 00EC;
},
{
glyphname = iacute;
layers = (
{
hints = (
{
horizontal = 1;
place = "{-2, 21}";
target = up;
type = BottomGhost;
},
{
horizontal = 1;
place = "{738, -20}";
target = down;
type = TopGhost;
},
{
place = "{83, 56}";
type = Stem;
}
);
layerId = "09B19460-4606-4A98-AA02-96D7DF647D82";
paths = (
{
closed = 1;
nodes = (
"234 738 LINE",
"218 721 OFFCURVE",
"193 695 OFFCURVE",
"165 668 CURVE",
"137 643 OFFCURVE",
"105 605 OFFCURVE",
"82 584 CURVE",
"91 581 OFFCURVE",
"110 578 OFFCURVE",
"147 582 CURVE",
"154 593 OFFCURVE",
"173 610 OFFCURVE",
"196 633 CURVE SMOOTH",
"239 678 LINE SMOOTH",
"255 695 OFFCURVE",
"265 703 OFFCURVE",
"267 703 CURVE"
);
},
{
closed = 1;
nodes = (
"267 703 LINE",
"268 702 LINE"
);
},
{
closed = 1;
nodes = (
"87 503 LINE",
"79 424 OFFCURVE",
"83 337 OFFCURVE",
"83 266 CURVE SMOOTH",
"83 -2 LINE",
"92 1 OFFCURVE",
"103 3 OFFCURVE",
"139 0 CURVE",
"128 169 OFFCURVE",
"138 339 OFFCURVE",
"139 500 CURVE SMOOTH",
"139 503 LINE",
"107 504 OFFCURVE",
"90 505 OFFCURVE",
"87 504 CURVE"
);
}
);
width = 207;
}
);
note = iacute;
unicode = 00ED;
},
{
glyphname = icircumflex;
layers = (
{
hints = (
{
horizontal = 1;
place = "{-2, 21}";
target = up;
type = BottomGhost;
},
{
horizontal = 1;
place = "{753, -20}";
target = down;
type = TopGhost;
},
{
place = "{83, 56}";
type = Stem;
}
);
layerId = "09B19460-4606-4A98-AA02-96D7DF647D82";
paths = (
{
closed = 1;
nodes = (
"109 753 LINE",
"30 679 LINE SMOOTH",
"7 657 OFFCURVE",
"-20 628 OFFCURVE",
"-51 591 CURVE",
"-10 590 OFFCURVE",
"-5 590 OFFCURVE",
"7 591 CURVE",
"10 592 OFFCURVE",
"21 603 OFFCURVE",
"42 625 CURVE SMOOTH",
"81 667 LINE SMOOTH",
"92 679 OFFCURVE",
"104 694 OFFCURVE",
"111 695 CURVE",
"116 692 OFFCURVE",
"128 681 OFFCURVE",
"137 669 CURVE",
"182 624 LINE SMOOTH",
"208 599 OFFCURVE",
"222 587 OFFCURVE",
"225 587 CURVE",
"250 591 OFFCURVE",
"267 593 OFFCURVE",
"270 592 CURVE"
);
},
{
closed = 1;
nodes = (
"139 503 LINE",
"107 504 OFFCURVE",
"90 505 OFFCURVE",
"87 504 CURVE",
"87 503 LINE",
"79 424 OFFCURVE",
"83 337 OFFCURVE",
"83 266 CURVE SMOOTH",
"83 -2 LINE",
"92 1 OFFCURVE",
"103 3 OFFCURVE",
"139 0 CURVE",
"128 169 OFFCURVE",
"138 339 OFFCURVE",
"139 500 CURVE SMOOTH"
);
}
);
width = 207;
}
);
note = icircumflex;
unicode = 00EE;
},
{
glyphname = Ograve;
layers = (
{
hints = (
{
horizontal = 1;
place = "{904, -20}";
target = down;
type = TopGhost;
},
{
place = "{31, 42}";
type = Stem;
},
{
place = "{408, 42}";
type = Stem;
}
);
layerId = "09B19460-4606-4A98-AA02-96D7DF647D82";
paths = (
{
closed = 1;
nodes = (
"132 826 OFFCURVE",
"147 811 OFFCURVE",
"158 799 CURVE",
"181 776 OFFCURVE",
"200 759 OFFCURVE",
"207 748 CURVE",
"244 744 OFFCURVE",
"263 747 OFFCURVE",
"272 750 CURVE",
"249 771 OFFCURVE",
"217 809 OFFCURVE",
"189 834 CURVE",
"161 861 OFFCURVE",
"136 887 OFFCURVE",
"120 904 CURVE",
"87 869 LINE",
"89 869 OFFCURVE",
"99 861 OFFCURVE",
"114 844 CURVE"
);
},
{
closed = 1;
nodes = (
"86 868 LINE",
"87 869 LINE"
);
},
{
closed = 1;
nodes = (
"450 551 OFFCURVE",
"446 572 OFFCURVE",
"437 592 CURVE",
"429 615 OFFCURVE",
"415 636 OFFCURVE",
"396 653 CURVE",
"319 712 OFFCURVE",
"195 714 OFFCURVE",
"107 671 CURVE",
"98 666 OFFCURVE",
"91 660 OFFCURVE",
"84 653 CURVE",
"43 606 OFFCURVE",
"32 542 OFFCURVE",
"31 482 CURVE",
"24 377 OFFCURVE",
"32 272 OFFCURVE",
"36 168 CURVE SMOOTH",
"37 129 OFFCURVE",
"41 90 OFFCURVE",
"60 57 CURVE",
"84 4 OFFCURVE",
"137 -8 OFFCURVE",
"192 -13 CURVE SMOOTH",
"231 -16 OFFCURVE",
"269 -14 OFFCURVE",
"306 -3 CURVE SMOOTH",
"347 8 OFFCURVE",
"386 26 OFFCURVE",
"409 58 CURVE",
"433 97 OFFCURVE",
"444 146 OFFCURVE",
"447 193 CURVE SMOOTH",
"450 226 LINE SMOOTH",
"455 295 OFFCURVE",
"451 360 OFFCURVE",
"455 431 CURVE SMOOTH",
"456 464 OFFCURVE",
"456 497 OFFCURVE",
"453 530 CURVE"
);
},
{
closed = 1;
nodes = (
"408 300 LINE",
"405 240 LINE",
"402 163 LINE",
"397 106 OFFCURVE",
"392 101 OFFCURVE",
"370 72 CURVE",
"360 61 OFFCURVE",
"348 50 OFFCURVE",
"333 41 CURVE SMOOTH",
"318 32 OFFCURVE",
"288 26 OFFCURVE",
"241 22 CURVE SMOOTH",
"195 18 OFFCURVE",
"162 22 OFFCURVE",
"141 35 CURVE SMOOTH",
"120 48 OFFCURVE",
"107 62 OFFCURVE",
"100 75 CURVE",
"93 97 OFFCURVE",
"88 120 OFFCURVE",
"83 144 CURVE SMOOTH",
"78 169 OFFCURVE",
"75 224 OFFCURVE",
"73 311 CURVE SMOOTH",
"72 400 OFFCURVE",
"73 458 OFFCURVE",
"76 486 CURVE",
"80 514 OFFCURVE",
"85 541 OFFCURVE",
"90 566 CURVE",
"98 594 OFFCURVE",
"114 617 OFFCURVE",
"137 635 CURVE",
"186 657 OFFCURVE",
"227 666 OFFCURVE",
"262 662 CURVE SMOOTH",
"297 659 OFFCURVE",
"321 654 OFFCURVE",
"334 649 CURVE",
"365 634 OFFCURVE",
"395 601 OFFCURVE",
"398 564 CURVE",
"399 541 OFFCURVE",
"402 508 OFFCURVE",
"402 507 CURVE",
"408 439 LINE"
);
}
);
width = 485;
}
);
leftKerningGroup = G;
note = Ograve;
rightKerningGroup = O;
unicode = 00D2;
},
{
glyphname = Oacute;
layers = (
{
hints = (
{
horizontal = 1;
place = "{904, -20}";
target = down;
type = TopGhost;
},
{
place = "{36, 37}";
type = Stem;
},
{
place = "{403, 52}";
type = Stem;
}
);
layerId = "09B19460-4606-4A98-AA02-96D7DF647D82";
paths = (
{
closed = 1;
nodes = (
"264 759 OFFCURVE",
"283 776 OFFCURVE",
"306 799 CURVE SMOOTH",
"349 844 LINE SMOOTH",
"365 861 OFFCURVE",
"375 869 OFFCURVE",
"377 869 CURVE",
"344 904 LINE",
"328 887 OFFCURVE",
"303 861 OFFCURVE",
"275 834 CURVE",
"247 809 OFFCURVE",
"215 771 OFFCURVE",
"192 750 CURVE",
"201 747 OFFCURVE",
"220 744 OFFCURVE",
"257 748 CURVE"
);
},
{
closed = 1;
nodes = (
"377 869 LINE",
"378 868 LINE"
);
},
{
closed = 1;
nodes = (
"450 551 OFFCURVE",
"446 572 OFFCURVE",
"437 592 CURVE",
"429 615 OFFCURVE",
"415 636 OFFCURVE",
"396 653 CURVE",
"319 712 OFFCURVE",
"195 714 OFFCURVE",
"107 671 CURVE",
"98 666 OFFCURVE",
"91 660 OFFCURVE",
"84 653 CURVE",
"43 606 OFFCURVE",
"32 542 OFFCURVE",
"31 482 CURVE",
"24 377 OFFCURVE",
"32 272 OFFCURVE",
"36 168 CURVE SMOOTH",
"37 129 OFFCURVE",
"41 90 OFFCURVE",
"60 57 CURVE",
"84 4 OFFCURVE",
"137 -8 OFFCURVE",
"192 -13 CURVE SMOOTH",
"231 -16 OFFCURVE",
"269 -14 OFFCURVE",
"306 -3 CURVE SMOOTH",
"347 8 OFFCURVE",
"386 26 OFFCURVE",
"409 58 CURVE",
"433 97 OFFCURVE",
"444 146 OFFCURVE",
"447 193 CURVE SMOOTH",
"450 226 LINE SMOOTH",
"455 295 OFFCURVE",
"451 360 OFFCURVE",
"455 431 CURVE SMOOTH",
"456 464 OFFCURVE",
"456 497 OFFCURVE",
"453 530 CURVE"
);
},
{
closed = 1;
nodes = (
"408 300 LINE",
"405 240 LINE",
"402 163 LINE",
"397 106 OFFCURVE",
"392 101 OFFCURVE",
"370 72 CURVE",
"360 61 OFFCURVE",
"348 50 OFFCURVE",
"333 41 CURVE SMOOTH",
"318 32 OFFCURVE",
"288 26 OFFCURVE",
"241 22 CURVE SMOOTH",
"195 18 OFFCURVE",
"162 22 OFFCURVE",
"141 35 CURVE SMOOTH",
"120 48 OFFCURVE",
"107 62 OFFCURVE",
"100 75 CURVE",
"93 97 OFFCURVE",
"88 120 OFFCURVE",
"83 144 CURVE SMOOTH",
"78 169 OFFCURVE",
"75 224 OFFCURVE",
"73 311 CURVE SMOOTH",
"72 400 OFFCURVE",
"73 458 OFFCURVE",
"76 486 CURVE",
"80 514 OFFCURVE",
"85 541 OFFCURVE",
"90 566 CURVE",
"98 594 OFFCURVE",
"114 617 OFFCURVE",
"137 635 CURVE",
"186 657 OFFCURVE",
"227 666 OFFCURVE",
"262 662 CURVE SMOOTH",
"297 659 OFFCURVE",
"321 654 OFFCURVE",
"334 649 CURVE",
"365 634 OFFCURVE",
"395 601 OFFCURVE",
"398 564 CURVE",
"399 541 OFFCURVE",
"402 508 OFFCURVE",
"402 507 CURVE",
"408 439 LINE"
);
}
);
width = 485;
}
);
leftKerningGroup = G;
note = Oacute;
rightKerningGroup = O;
unicode = 00D3;
},
{
glyphname = Ocircumflex;
layers = (
{
hints = (
{
horizontal = 1;
place = "{915, -20}";
target = down;
type = TopGhost;
},
{
place = "{31, 42}";
type = Stem;
},
{
place = "{408, 42}";
type = Stem;
}
);
layerId = "09B19460-4606-4A98-AA02-96D7DF647D82";
paths = (
{
closed = 1;
nodes = (
"249 915 LINE",
"170 841 LINE SMOOTH",
"147 819 OFFCURVE",
"120 790 OFFCURVE",
"89 753 CURVE",
"130 752 OFFCURVE",
"135 752 OFFCURVE",
"147 753 CURVE",
"150 754 OFFCURVE",
"161 765 OFFCURVE",
"182 787 CURVE SMOOTH",
"221 829 LINE SMOOTH",
"232 841 OFFCURVE",
"244 856 OFFCURVE",
"251 857 CURVE",
"256 854 OFFCURVE",
"268 843 OFFCURVE",
"277 831 CURVE",
"322 786 LINE SMOOTH",
"348 761 OFFCURVE",
"362 749 OFFCURVE",
"365 749 CURVE",
"390 753 OFFCURVE",
"407 755 OFFCURVE",
"410 754 CURVE"
);
},
{
closed = 1;
nodes = (
"429 615 OFFCURVE",
"415 636 OFFCURVE",
"396 653 CURVE",
"319 712 OFFCURVE",
"195 714 OFFCURVE",
"107 671 CURVE",
"98 666 OFFCURVE",
"91 660 OFFCURVE",
"84 653 CURVE",
"43 606 OFFCURVE",
"32 542 OFFCURVE",
"31 482 CURVE",
"24 377 OFFCURVE",
"32 272 OFFCURVE",
"36 168 CURVE SMOOTH",
"37 129 OFFCURVE",
"41 90 OFFCURVE",
"60 57 CURVE",
"84 4 OFFCURVE",
"137 -8 OFFCURVE",
"192 -13 CURVE SMOOTH",
"231 -16 OFFCURVE",
"269 -14 OFFCURVE",
"306 -3 CURVE SMOOTH",
"347 8 OFFCURVE",
"386 26 OFFCURVE",
"409 58 CURVE",
"433 97 OFFCURVE",
"444 146 OFFCURVE",
"447 193 CURVE SMOOTH",
"450 226 LINE SMOOTH",
"455 295 OFFCURVE",
"451 360 OFFCURVE",
"455 431 CURVE SMOOTH",
"456 464 OFFCURVE",
"456 497 OFFCURVE",
"453 530 CURVE",
"450 551 OFFCURVE",
"446 572 OFFCURVE",
"437 592 CURVE"
);
},
{
closed = 1;
nodes = (
"408 439 LINE",
"408 300 LINE",
"405 240 LINE",
"402 163 LINE",
"397 106 OFFCURVE",
"392 101 OFFCURVE",
"370 72 CURVE",
"360 61 OFFCURVE",
"348 50 OFFCURVE",
"333 41 CURVE SMOOTH",
"318 32 OFFCURVE",
"288 26 OFFCURVE",
"241 22 CURVE SMOOTH",
"195 18 OFFCURVE",
"162 22 OFFCURVE",
"141 35 CURVE SMOOTH",
"120 48 OFFCURVE",
"107 62 OFFCURVE",
"100 75 CURVE",
"93 97 OFFCURVE",
"88 120 OFFCURVE",
"83 144 CURVE SMOOTH",
"78 169 OFFCURVE",
"75 224 OFFCURVE",
"73 311 CURVE SMOOTH",
"72 400 OFFCURVE",
"73 458 OFFCURVE",
"76 486 CURVE",
"80 514 OFFCURVE",
"85 541 OFFCURVE",
"90 566 CURVE",
"98 594 OFFCURVE",
"114 617 OFFCURVE",
"137 635 CURVE",
"186 657 OFFCURVE",
"227 666 OFFCURVE",
"262 662 CURVE SMOOTH",
"297 659 OFFCURVE",
"321 654 OFFCURVE",
"334 649 CURVE",
"365 634 OFFCURVE",
"395 601 OFFCURVE",
"398 564 CURVE",
"399 541 OFFCURVE",
"402 508 OFFCURVE",
"402 507 CURVE"
);
}
);
width = 484;
}
);
leftKerningGroup = G;
note = Ocircumflex;
rightKerningGroup = O;
unicode = 00D4;
},
{
glyphname = Otilde;
layers = (
{
hints = (
{
place = "{31, 42}";
type = Stem;
},
{
place = "{408, 42}";
type = Stem;
}
);
layerId = "09B19460-4606-4A98-AA02-96D7DF647D82";
paths = (
{
closed = 1;
nodes = (
"80 746 LINE",
"93 813 OFFCURVE",
"114 862 OFFCURVE",
"163 874 CURVE",
"192 879 OFFCURVE",
"214 874 OFFCURVE",
"235 817 CURVE",
"248 774 OFFCURVE",
"265 749 OFFCURVE",
"284 743 CURVE SMOOTH",
"303 737 OFFCURVE",
"323 736 OFFCURVE",
"344 739 CURVE SMOOTH",
"414 750 OFFCURVE",
"449 834 OFFCURVE",
"438 900 CURVE",
"438 901 LINE",
"401 900 LINE",
"405 873 OFFCURVE",
"403 847 OFFCURVE",
"396 821 CURVE SMOOTH",
"389 795 OFFCURVE",
"370 779 OFFCURVE",
"338 772 CURVE SMOOTH",
"306 766 OFFCURVE",
"285 778 OFFCURVE",
"276 808 CURVE SMOOTH",
"267 839 OFFCURVE",
"260 859 OFFCURVE",
"254 868 CURVE",
"249 877 OFFCURVE",
"241 886 OFFCURVE",
"231 893 CURVE SMOOTH",
"188 922 OFFCURVE",
"132 910 OFFCURVE",
"96 874 CURVE",
"71 846 OFFCURVE",
"44 774 OFFCURVE",
"36 745 CURVE",
"56 746 OFFCURVE",
"64 746 OFFCURVE",
"80 745 CURVE"
);
},
{
closed = 1;
nodes = (
"429 615 OFFCURVE",
"415 636 OFFCURVE",
"396 653 CURVE",
"319 712 OFFCURVE",
"195 714 OFFCURVE",
"107 671 CURVE",
"98 666 OFFCURVE",
"91 660 OFFCURVE",
"84 653 CURVE",
"43 606 OFFCURVE",
"32 542 OFFCURVE",
"31 482 CURVE",
"24 377 OFFCURVE",
"32 272 OFFCURVE",
"36 168 CURVE SMOOTH",
"37 129 OFFCURVE",
"41 90 OFFCURVE",
"60 57 CURVE",
"84 4 OFFCURVE",
"137 -8 OFFCURVE",
"192 -13 CURVE SMOOTH",
"231 -16 OFFCURVE",
"269 -14 OFFCURVE",
"306 -3 CURVE SMOOTH",
"347 8 OFFCURVE",
"386 26 OFFCURVE",
"409 58 CURVE",
"433 97 OFFCURVE",
"444 146 OFFCURVE",
"447 193 CURVE SMOOTH",
"450 226 LINE SMOOTH",
"455 295 OFFCURVE",
"451 360 OFFCURVE",
"455 431 CURVE SMOOTH",
"456 464 OFFCURVE",
"456 497 OFFCURVE",
"453 530 CURVE",
"450 551 OFFCURVE",
"446 572 OFFCURVE",
"437 592 CURVE"
);
},
{
closed = 1;
nodes = (
"408 439 LINE",
"408 300 LINE",
"405 240 LINE",
"402 163 LINE",
"397 106 OFFCURVE",
"392 101 OFFCURVE",
"370 72 CURVE",
"360 61 OFFCURVE",
"348 50 OFFCURVE",
"333 41 CURVE SMOOTH",
"318 32 OFFCURVE",
"288 26 OFFCURVE",
"241 22 CURVE SMOOTH",
"195 18 OFFCURVE",
"162 22 OFFCURVE",
"141 35 CURVE SMOOTH",
"120 48 OFFCURVE",
"107 62 OFFCURVE",
"100 75 CURVE",
"93 97 OFFCURVE",
"88 120 OFFCURVE",
"83 144 CURVE SMOOTH",
"78 169 OFFCURVE",
"75 224 OFFCURVE",
"73 311 CURVE SMOOTH",
"72 400 OFFCURVE",
"73 458 OFFCURVE",
"76 486 CURVE",
"80 514 OFFCURVE",
"85 541 OFFCURVE",
"90 566 CURVE",
"98 594 OFFCURVE",
"114 617 OFFCURVE",
"137 635 CURVE",
"186 657 OFFCURVE",
"227 666 OFFCURVE",
"262 662 CURVE SMOOTH",
"297 659 OFFCURVE",
"321 654 OFFCURVE",
"334 649 CURVE",
"365 634 OFFCURVE",
"395 601 OFFCURVE",
"398 564 CURVE",
"399 541 OFFCURVE",
"402 508 OFFCURVE",
"402 507 CURVE"
);
}
);
width = 484;
}
);
leftKerningGroup = G;
note = Otilde;
rightKerningGroup = O;
unicode = 00D5;
},
{
glyphname = agrave;
layers = (
{
hints = (
{
horizontal = 1;
place = "{-2, 41}";
type = Stem;
},
{
horizontal = 1;
place = "{461, 36}";
type = Stem;
},
{
horizontal = 1;
place = "{742, -20}";
target = down;
type = TopGhost;
},
{
place = "{19, 45}";
type = Stem;
},
{
place = "{390, 49}";
type = Stem;
},
{
horizontal = 1;
place = "{-1, 21}";
target = up;
type = BottomGhost;
}
);
layerId = "09B19460-4606-4A98-AA02-96D7DF647D82";
paths = (
{
closed = 1;
nodes = (
"181 664 OFFCURVE",
"196 649 OFFCURVE",
"207 637 CURVE",
"230 614 OFFCURVE",
"249 597 OFFCURVE",
"256 586 CURVE",
"293 582 OFFCURVE",
"312 585 OFFCURVE",
"321 588 CURVE",
"298 609 OFFCURVE",
"266 647 OFFCURVE",
"238 672 CURVE",
"210 699 OFFCURVE",
"185 725 OFFCURVE",
"169 742 CURVE",
"136 707 LINE",
"138 707 OFFCURVE",
"148 699 OFFCURVE",
"163 682 CURVE"
);
},
{
closed = 1;
nodes = (
"135 706 LINE",
"136 707 LINE"
);
},
{
closed = 1;
nodes = (
"441 474 LINE SMOOTH",
"441 482 OFFCURVE",
"440 490 OFFCURVE",
"439 498 CURVE",
"404 500 LINE",
"403 501 OFFCURVE",
"400 501 OFFCURVE",
"395 500 CURVE",
"391 500 OFFCURVE",
"389 500 OFFCURVE",
"389 499 CURVE SMOOTH",
"389 482 OFFCURVE",
"388 465 OFFCURVE",
"385 448 CURVE",
"372 472 OFFCURVE",
"361 479 OFFCURVE",
"341 488 CURVE",
"331 493 OFFCURVE",
"307 496 OFFCURVE",
"269 497 CURVE SMOOTH",
"231 498 OFFCURVE",
"204 498 OFFCURVE",
"187 497 CURVE SMOOTH",
"93 494 OFFCURVE",
"19 399 OFFCURVE",
"19 266 CURVE SMOOTH",
"19 159 OFFCURVE",
"63 -2 OFFCURVE",
"166 -2 CURVE SMOOTH",
"189 -2 OFFCURVE",
"227 -1 OFFCURVE",
"279 0 CURVE SMOOTH",
"332 1 OFFCURVE",
"369 20 OFFCURVE",
"391 55 CURVE",
"391 36 OFFCURVE",
"387 1 OFFCURVE",
"399 -2 CURVE",
"398 -1 OFFCURVE",
"407 -1 OFFCURVE",
"426 -1 CURVE",
"442 2 OFFCURVE",
"439 23 OFFCURVE",
"439 40 CURVE",
"448 183 OFFCURVE",
"437 320 OFFCURVE",
"441 464 CURVE SMOOTH"
);
},
{
closed = 1;
nodes = (
"337 49 OFFCURVE",
"299 38 OFFCURVE",
"236 39 CURVE",
"173 34 OFFCURVE",
"129 49 OFFCURVE",
"105 85 CURVE SMOOTH",
"81 121 OFFCURVE",
"67 172 OFFCURVE",
"64 239 CURVE",
"64 272 OFFCURVE",
"65 308 OFFCURVE",
"74 341 CURVE",
"81 372 OFFCURVE",
"100 401 OFFCURVE",
"130 426 CURVE SMOOTH",
"160 451 OFFCURVE",
"198 463 OFFCURVE",
"243 461 CURVE SMOOTH",
"286 458 OFFCURVE",
"315 453 OFFCURVE",
"328 444 CURVE",
"341 436 OFFCURVE",
"353 427 OFFCURVE",
"363 417 CURVE",
"384 398 OFFCURVE",
"390 342 OFFCURVE",
"390 253 CURVE SMOOTH",
"390 181 OFFCURVE",
"397 122 OFFCURVE",
"366 85 CURVE SMOOTH"
);
}
);
width = 476;
}
);
leftKerningGroup = agrave;
note = agrave;
rightKerningGroup = q;
unicode = 00E0;
},
{
glyphname = aacute;
layers = (
{
hints = (
{
horizontal = 1;
place = "{-1, 21}";
target = up;
type = BottomGhost;
},
{
horizontal = 1;
place = "{461, 36}";
type = Stem;
},
{
horizontal = 1;
place = "{737, -20}";
target = down;
type = TopGhost;
},
{
place = "{19, 45}";
type = Stem;
},
{
place = "{390, 51}";
type = Stem;
},
{
horizontal = 1;
place = "{-2, 41}";
type = Stem;
}
);
layerId = "09B19460-4606-4A98-AA02-96D7DF647D82";
paths = (
{
closed = 1;
nodes = (
"263 592 OFFCURVE",
"282 609 OFFCURVE",
"305 632 CURVE SMOOTH",
"348 677 LINE SMOOTH",
"364 694 OFFCURVE",
"374 702 OFFCURVE",
"376 702 CURVE",
"343 737 LINE",
"327 720 OFFCURVE",
"302 694 OFFCURVE",
"274 667 CURVE",
"246 642 OFFCURVE",
"214 604 OFFCURVE",
"191 583 CURVE",
"200 580 OFFCURVE",
"219 577 OFFCURVE",
"256 581 CURVE"
);
},
{
closed = 1;
nodes = (
"376 702 LINE",
"377 701 LINE"
);
},
{
closed = 1;
nodes = (
"441 474 LINE SMOOTH",
"441 482 OFFCURVE",
"440 490 OFFCURVE",
"439 498 CURVE",
"404 500 LINE",
"403 501 OFFCURVE",
"400 501 OFFCURVE",
"395 500 CURVE",
"391 500 OFFCURVE",
"389 500 OFFCURVE",
"389 499 CURVE SMOOTH",
"389 482 OFFCURVE",
"388 465 OFFCURVE",
"385 448 CURVE",
"372 472 OFFCURVE",
"361 479 OFFCURVE",
"341 488 CURVE",
"331 493 OFFCURVE",
"307 496 OFFCURVE",
"269 497 CURVE SMOOTH",
"231 498 OFFCURVE",
"204 498 OFFCURVE",
"187 497 CURVE SMOOTH",
"93 494 OFFCURVE",
"19 399 OFFCURVE",
"19 266 CURVE SMOOTH",
"19 159 OFFCURVE",
"63 -2 OFFCURVE",
"166 -2 CURVE SMOOTH",
"189 -2 OFFCURVE",
"227 -1 OFFCURVE",
"279 0 CURVE SMOOTH",
"332 1 OFFCURVE",
"369 20 OFFCURVE",
"391 55 CURVE",
"391 36 OFFCURVE",
"387 1 OFFCURVE",
"399 -2 CURVE",
"398 -1 OFFCURVE",
"407 -1 OFFCURVE",
"426 -1 CURVE",
"442 2 OFFCURVE",
"439 23 OFFCURVE",
"439 40 CURVE",
"448 183 OFFCURVE",
"437 320 OFFCURVE",
"441 464 CURVE SMOOTH"
);
},
{
closed = 1;
nodes = (
"337 49 OFFCURVE",
"299 38 OFFCURVE",
"236 39 CURVE",
"173 34 OFFCURVE",
"129 49 OFFCURVE",
"105 85 CURVE SMOOTH",
"81 121 OFFCURVE",
"67 172 OFFCURVE",
"64 239 CURVE",
"64 272 OFFCURVE",
"65 308 OFFCURVE",
"74 341 CURVE",
"81 372 OFFCURVE",
"100 401 OFFCURVE",
"130 426 CURVE SMOOTH",
"160 451 OFFCURVE",
"198 463 OFFCURVE",
"243 461 CURVE SMOOTH",
"286 458 OFFCURVE",
"315 453 OFFCURVE",
"328 444 CURVE",
"341 436 OFFCURVE",
"353 427 OFFCURVE",
"363 417 CURVE",
"384 398 OFFCURVE",
"390 342 OFFCURVE",
"390 253 CURVE SMOOTH",
"390 181 OFFCURVE",
"397 122 OFFCURVE",
"366 85 CURVE SMOOTH"
);
}
);
width = 476;
}
);
leftKerningGroup = agrave;
note = aacute;
rightKerningGroup = q;
unicode = 00E1;
},
{
glyphname = acircumflex;
layers = (
{
hints = (
{
horizontal = 1;
place = "{-2, 41}";
type = Stem;
},
{
horizontal = 1;
place = "{461, 36}";
type = Stem;
},
{
horizontal = 1;
place = "{756, -20}";
target = down;
type = TopGhost;
},
{
place = "{19, 45}";
type = Stem;
},
{
place = "{390, 49}";
type = Stem;
},
{
horizontal = 1;
place = "{-1, 21}";
target = up;
type = BottomGhost;
}
);
layerId = "09B19460-4606-4A98-AA02-96D7DF647D82";
paths = (
{
closed = 1;
nodes = (
"253 756 LINE",
"174 682 LINE SMOOTH",
"151 660 OFFCURVE",
"124 631 OFFCURVE",
"93 594 CURVE",
"134 593 OFFCURVE",
"139 593 OFFCURVE",
"151 594 CURVE",
"154 595 OFFCURVE",
"165 606 OFFCURVE",
"186 628 CURVE SMOOTH",
"225 670 LINE SMOOTH",
"236 682 OFFCURVE",
"248 697 OFFCURVE",
"255 698 CURVE",
"260 695 OFFCURVE",
"272 684 OFFCURVE",
"281 672 CURVE",
"326 627 LINE SMOOTH",
"352 602 OFFCURVE",
"366 590 OFFCURVE",
"369 590 CURVE",
"394 594 OFFCURVE",
"411 596 OFFCURVE",
"414 595 CURVE"
);
},
{
closed = 1;
nodes = (
"404 500 LINE",
"403 501 OFFCURVE",
"400 501 OFFCURVE",
"395 500 CURVE",
"391 500 OFFCURVE",
"389 500 OFFCURVE",
"389 499 CURVE SMOOTH",
"389 482 OFFCURVE",
"388 465 OFFCURVE",
"385 448 CURVE",
"372 472 OFFCURVE",
"361 479 OFFCURVE",
"341 488 CURVE",
"331 493 OFFCURVE",
"307 496 OFFCURVE",
"269 497 CURVE SMOOTH",
"231 498 OFFCURVE",
"204 498 OFFCURVE",
"187 497 CURVE SMOOTH",
"93 494 OFFCURVE",
"19 399 OFFCURVE",
"19 266 CURVE SMOOTH",
"19 159 OFFCURVE",
"63 -2 OFFCURVE",
"166 -2 CURVE SMOOTH",
"189 -2 OFFCURVE",
"227 -1 OFFCURVE",
"279 0 CURVE SMOOTH",
"332 1 OFFCURVE",
"369 20 OFFCURVE",
"391 55 CURVE",
"391 36 OFFCURVE",
"387 1 OFFCURVE",
"399 -2 CURVE",
"398 -1 OFFCURVE",
"407 -1 OFFCURVE",
"426 -1 CURVE",
"442 2 OFFCURVE",
"439 23 OFFCURVE",
"439 40 CURVE",
"448 183 OFFCURVE",
"437 320 OFFCURVE",
"441 464 CURVE SMOOTH",
"441 474 LINE SMOOTH",
"441 482 OFFCURVE",
"440 490 OFFCURVE",
"439 498 CURVE"
);
},
{
closed = 1;
nodes = (
"81 372 OFFCURVE",
"100 401 OFFCURVE",
"130 426 CURVE SMOOTH",
"160 451 OFFCURVE",
"198 463 OFFCURVE",
"243 461 CURVE SMOOTH",
"286 458 OFFCURVE",
"315 453 OFFCURVE",
"328 444 CURVE",
"341 436 OFFCURVE",
"353 427 OFFCURVE",
"363 417 CURVE",
"384 398 OFFCURVE",
"390 342 OFFCURVE",
"390 253 CURVE SMOOTH",
"390 181 OFFCURVE",
"397 122 OFFCURVE",
"366 85 CURVE SMOOTH",
"337 49 OFFCURVE",
"299 38 OFFCURVE",
"236 39 CURVE",
"173 34 OFFCURVE",
"129 49 OFFCURVE",
"105 85 CURVE SMOOTH",
"81 121 OFFCURVE",
"67 172 OFFCURVE",
"64 239 CURVE",
"64 272 OFFCURVE",
"65 308 OFFCURVE",
"74 341 CURVE"
);
}
);
width = 476;
}
);
leftKerningGroup = agrave;
note = acircumflex;
rightKerningGroup = q;
unicode = 00E2;
},
{
glyphname = ograve;
layers = (
{
hints = (
{
horizontal = 1;
place = "{-7, 21}";
target = up;
type = BottomGhost;
},
{
horizontal = 1;
place = "{514, -20}";
target = down;
type = TopGhost;
},
{
horizontal = 1;
place = "{743, -20}";
target = down;
type = TopGhost;
},
{
place = "{379, 46}";
type = Stem;
}
);
layerId = "09B19460-4606-4A98-AA02-96D7DF647D82";
paths = (
{
closed = 1;
nodes = (
"144 665 OFFCURVE",
"159 650 OFFCURVE",
"170 638 CURVE",
"193 615 OFFCURVE",
"212 598 OFFCURVE",
"219 587 CURVE",
"256 583 OFFCURVE",
"275 586 OFFCURVE",
"284 589 CURVE",
"261 610 OFFCURVE",
"229 648 OFFCURVE",
"201 673 CURVE",
"173 700 OFFCURVE",
"148 726 OFFCURVE",
"132 743 CURVE",
"99 708 LINE",
"101 708 OFFCURVE",
"111 700 OFFCURVE",
"126 683 CURVE"
);
},
{
closed = 1;
nodes = (
"98 707 LINE",
"99 708 LINE"
);
},
{
closed = 1;
nodes = (
"356 497 OFFCURVE",
"316 510 OFFCURVE",
"273 513 CURVE",
"245 516 OFFCURVE",
"222 511 OFFCURVE",
"195 514 CURVE",
"132 514 OFFCURVE",
"64 497 OFFCURVE",
"45 456 CURVE",
"34 427 OFFCURVE",
"30 412 OFFCURVE",
"29 397 CURVE",
"25 372 OFFCURVE",
"24 349 OFFCURVE",
"24 325 CURVE",
"32 238 OFFCURVE",
"3 101 OFFCURVE",
"75 37 CURVE",
"98 14 OFFCURVE",
"127 -1 OFFCURVE",
"161 -7 CURVE",
"238 -7 OFFCURVE",
"347 -28 OFFCURVE",
"393 37 CURVE",
"419 63 OFFCURVE",
"422 194 OFFCURVE",
"425 272 CURVE",
"422 360 OFFCURVE",
"422 445 OFFCURVE",
"384 470 CURVE"
);
},
{
closed = 1;
nodes = (
"379 92 OFFCURVE",
"361 53 OFFCURVE",
"326 41 CURVE SMOOTH",
"279 25 OFFCURVE",
"221 23 OFFCURVE",
"177 28 CURVE SMOOTH",
"156 31 OFFCURVE",
"135 39 OFFCURVE",
"114 51 CURVE SMOOTH",
"94 63 OFFCURVE",
"81 90 OFFCURVE",
"76 133 CURVE SMOOTH",
"69 202 OFFCURVE",
"65 253 OFFCURVE",
"64 286 CURVE SMOOTH",
"63 319 OFFCURVE",
"64 347 OFFCURVE",
"67 369 CURVE SMOOTH",
"70 392 OFFCURVE",
"77 413 OFFCURVE",
"90 432 CURVE",
"107 454 OFFCURVE",
"142 469 OFFCURVE",
"194 476 CURVE",
"238 480 OFFCURVE",
"279 476 OFFCURVE",
"318 465 CURVE SMOOTH",
"357 454 OFFCURVE",
"377 425 OFFCURVE",
"377 378 CURVE",
"386 271 OFFCURVE",
"379 208 OFFCURVE",
"379 157 CURVE SMOOTH"
);
}
);
width = 448;
}
);
leftKerningGroup = o;
note = ograve;
rightKerningGroup = o;
unicode = 00F2;
},
{
glyphname = oacute;
layers = (
{
hints = (
{
horizontal = 1;
place = "{-7, 21}";
target = up;
type = BottomGhost;
},
{
horizontal = 1;
place = "{514, -20}";
target = down;
type = TopGhost;
},
{
horizontal = 1;
place = "{738, -20}";
target = down;
type = TopGhost;
},
{
place = "{379, 46}";
type = Stem;
}
);
layerId = "09B19460-4606-4A98-AA02-96D7DF647D82";
paths = (
{
closed = 1;
nodes = (
"248 593 OFFCURVE",
"267 610 OFFCURVE",
"290 633 CURVE SMOOTH",
"333 678 LINE SMOOTH",
"349 695 OFFCURVE",
"359 703 OFFCURVE",
"361 703 CURVE",
"328 738 LINE",
"312 721 OFFCURVE",
"287 695 OFFCURVE",
"259 668 CURVE",
"231 643 OFFCURVE",
"199 605 OFFCURVE",
"176 584 CURVE",
"185 581 OFFCURVE",
"204 578 OFFCURVE",
"241 582 CURVE"
);
},
{
closed = 1;
nodes = (
"361 703 LINE",
"362 702 LINE"
);
},
{
closed = 1;
nodes = (
"356 497 OFFCURVE",
"316 510 OFFCURVE",
"273 513 CURVE",
"245 516 OFFCURVE",
"222 511 OFFCURVE",
"195 514 CURVE",
"132 514 OFFCURVE",
"64 497 OFFCURVE",
"45 456 CURVE",
"34 427 OFFCURVE",
"30 412 OFFCURVE",
"29 397 CURVE",
"25 372 OFFCURVE",
"24 349 OFFCURVE",
"24 325 CURVE",
"32 238 OFFCURVE",
"3 101 OFFCURVE",
"75 37 CURVE",
"98 14 OFFCURVE",
"127 -1 OFFCURVE",
"161 -7 CURVE",
"238 -7 OFFCURVE",
"347 -28 OFFCURVE",
"393 37 CURVE",
"419 63 OFFCURVE",
"422 194 OFFCURVE",
"425 272 CURVE",
"422 360 OFFCURVE",
"422 445 OFFCURVE",
"384 470 CURVE"
);
},
{
closed = 1;
nodes = (
"379 92 OFFCURVE",
"361 53 OFFCURVE",
"326 41 CURVE SMOOTH",
"279 25 OFFCURVE",
"221 23 OFFCURVE",
"177 28 CURVE SMOOTH",
"156 31 OFFCURVE",
"135 39 OFFCURVE",
"114 51 CURVE SMOOTH",
"94 63 OFFCURVE",
"81 90 OFFCURVE",
"76 133 CURVE SMOOTH",
"69 202 OFFCURVE",
"65 253 OFFCURVE",
"64 286 CURVE SMOOTH",
"63 319 OFFCURVE",
"64 347 OFFCURVE",
"67 369 CURVE SMOOTH",
"70 392 OFFCURVE",
"77 413 OFFCURVE",
"90 432 CURVE",
"107 454 OFFCURVE",
"142 469 OFFCURVE",
"194 476 CURVE",
"238 480 OFFCURVE",
"279 476 OFFCURVE",
"318 465 CURVE SMOOTH",
"357 454 OFFCURVE",
"377 425 OFFCURVE",
"377 378 CURVE",
"386 271 OFFCURVE",
"379 208 OFFCURVE",
"379 157 CURVE SMOOTH"
);
}
);
width = 448;
}
);
leftKerningGroup = o;
note = oacute;
rightKerningGroup = o;
unicode = 00F3;
},
{
glyphname = ocircumflex;
layers = (
{
hints = (
{
horizontal = 1;
place = "{-7, 21}";
target = up;
type = BottomGhost;
},
{
horizontal = 1;
place = "{514, -20}";
target = down;
type = TopGhost;
},
{
horizontal = 1;
place = "{755, -20}";
target = down;
type = TopGhost;
},
{
place = "{379, 46}";
type = Stem;
}
);
layerId = "09B19460-4606-4A98-AA02-96D7DF647D82";
paths = (
{
closed = 1;
nodes = (
"231 755 LINE",
"152 681 LINE SMOOTH",
"129 659 OFFCURVE",
"102 630 OFFCURVE",
"71 593 CURVE",
"112 592 OFFCURVE",
"117 592 OFFCURVE",
"129 593 CURVE",
"132 594 OFFCURVE",
"143 605 OFFCURVE",
"164 627 CURVE SMOOTH",
"203 669 LINE SMOOTH",
"214 681 OFFCURVE",
"226 696 OFFCURVE",
"233 697 CURVE",
"238 694 OFFCURVE",
"250 683 OFFCURVE",
"259 671 CURVE",
"304 626 LINE SMOOTH",
"330 601 OFFCURVE",
"344 589 OFFCURVE",
"347 589 CURVE",
"372 593 OFFCURVE",
"389 595 OFFCURVE",
"392 594 CURVE"
);
},
{
closed = 1;
nodes = (
"34 427 OFFCURVE",
"30 412 OFFCURVE",
"29 397 CURVE",
"25 372 OFFCURVE",
"24 349 OFFCURVE",
"24 325 CURVE",
"32 238 OFFCURVE",
"3 101 OFFCURVE",
"75 37 CURVE",
"98 14 OFFCURVE",
"127 -1 OFFCURVE",
"161 -7 CURVE",
"238 -7 OFFCURVE",
"347 -28 OFFCURVE",
"393 37 CURVE",
"419 63 OFFCURVE",
"422 194 OFFCURVE",
"425 272 CURVE",
"422 360 OFFCURVE",
"422 445 OFFCURVE",
"384 470 CURVE",
"356 497 OFFCURVE",
"316 510 OFFCURVE",
"273 513 CURVE",
"245 516 OFFCURVE",
"222 511 OFFCURVE",
"195 514 CURVE",
"132 514 OFFCURVE",
"64 497 OFFCURVE",
"45 456 CURVE"
);
},
{
closed = 1;
nodes = (
"107 454 OFFCURVE",
"142 469 OFFCURVE",
"194 476 CURVE",
"238 480 OFFCURVE",
"279 476 OFFCURVE",
"318 465 CURVE SMOOTH",
"357 454 OFFCURVE",
"377 425 OFFCURVE",
"377 378 CURVE",
"386 271 OFFCURVE",
"379 208 OFFCURVE",
"379 157 CURVE SMOOTH",
"379 92 OFFCURVE",
"361 53 OFFCURVE",
"326 41 CURVE SMOOTH",
"279 25 OFFCURVE",
"221 23 OFFCURVE",
"177 28 CURVE SMOOTH",
"156 31 OFFCURVE",
"135 39 OFFCURVE",
"114 51 CURVE SMOOTH",
"94 63 OFFCURVE",
"81 90 OFFCURVE",
"76 133 CURVE SMOOTH",
"69 202 OFFCURVE",
"65 253 OFFCURVE",
"64 286 CURVE SMOOTH",
"63 319 OFFCURVE",
"64 347 OFFCURVE",
"67 369 CURVE SMOOTH",
"70 392 OFFCURVE",
"77 413 OFFCURVE",
"90 432 CURVE"
);
}
);
width = 448;
}
);
leftKerningGroup = o;
note = ocircumflex;
rightKerningGroup = o;
unicode = 00F4;
},
{
glyphname = otilde;
layers = (
{
hints = (
{
horizontal = 1;
place = "{-7, 21}";
target = up;
type = BottomGhost;
},
{
horizontal = 1;
place = "{514, -20}";
target = down;
type = TopGhost;
},
{
place = "{379, 46}";
type = Stem;
}
);
layerId = "09B19460-4606-4A98-AA02-96D7DF647D82";
paths = (
{
closed = 1;
nodes = (
"67 593 LINE",
"80 660 OFFCURVE",
"101 709 OFFCURVE",
"150 721 CURVE",
"179 726 OFFCURVE",
"201 721 OFFCURVE",
"222 664 CURVE",
"235 621 OFFCURVE",
"252 596 OFFCURVE",
"271 590 CURVE SMOOTH",
"290 584 OFFCURVE",
"310 583 OFFCURVE",
"331 586 CURVE SMOOTH",
"401 597 OFFCURVE",
"436 681 OFFCURVE",
"425 747 CURVE",
"425 748 LINE",
"388 747 LINE",
"392 720 OFFCURVE",
"390 694 OFFCURVE",
"383 668 CURVE SMOOTH",
"376 642 OFFCURVE",
"357 626 OFFCURVE",
"325 619 CURVE SMOOTH",
"293 613 OFFCURVE",
"272 625 OFFCURVE",
"263 655 CURVE SMOOTH",
"254 686 OFFCURVE",
"247 706 OFFCURVE",
"241 715 CURVE",
"236 724 OFFCURVE",
"228 733 OFFCURVE",
"218 740 CURVE SMOOTH",
"175 769 OFFCURVE",
"119 757 OFFCURVE",
"83 721 CURVE",
"58 693 OFFCURVE",
"31 621 OFFCURVE",
"23 592 CURVE",
"43 593 OFFCURVE",
"51 593 OFFCURVE",
"67 592 CURVE"
);
},
{
closed = 1;
nodes = (
"34 427 OFFCURVE",
"30 412 OFFCURVE",
"29 397 CURVE",
"25 372 OFFCURVE",
"24 349 OFFCURVE",
"24 325 CURVE",
"32 238 OFFCURVE",
"3 101 OFFCURVE",
"75 37 CURVE",
"98 14 OFFCURVE",
"127 -1 OFFCURVE",
"161 -7 CURVE",
"238 -7 OFFCURVE",
"347 -28 OFFCURVE",
"393 37 CURVE",
"419 63 OFFCURVE",
"422 194 OFFCURVE",
"425 272 CURVE",
"422 360 OFFCURVE",
"422 445 OFFCURVE",
"384 470 CURVE",
"356 497 OFFCURVE",
"316 510 OFFCURVE",
"273 513 CURVE",
"245 516 OFFCURVE",
"222 511 OFFCURVE",
"195 514 CURVE",
"132 514 OFFCURVE",
"64 497 OFFCURVE",
"45 456 CURVE"
);
},
{
closed = 1;
nodes = (
"107 454 OFFCURVE",
"142 469 OFFCURVE",
"194 476 CURVE",
"238 480 OFFCURVE",
"279 476 OFFCURVE",
"318 465 CURVE SMOOTH",
"357 454 OFFCURVE",
"377 425 OFFCURVE",
"377 378 CURVE",
"386 271 OFFCURVE",
"379 208 OFFCURVE",
"379 157 CURVE SMOOTH",
"379 92 OFFCURVE",
"361 53 OFFCURVE",
"326 41 CURVE SMOOTH",
"279 25 OFFCURVE",
"221 23 OFFCURVE",
"177 28 CURVE SMOOTH",
"156 31 OFFCURVE",
"135 39 OFFCURVE",
"114 51 CURVE SMOOTH",
"94 63 OFFCURVE",
"81 90 OFFCURVE",
"76 133 CURVE SMOOTH",
"69 202 OFFCURVE",
"65 253 OFFCURVE",
"64 286 CURVE SMOOTH",
"63 319 OFFCURVE",
"64 347 OFFCURVE",
"67 369 CURVE SMOOTH",
"70 392 OFFCURVE",
"77 413 OFFCURVE",
"90 432 CURVE"
);
}
);
width = 448;
}
);
leftKerningGroup = o;
note = otilde;
rightKerningGroup = o;
unicode = 00F5;
},
{
glyphname = Edieresis;
layers = (
{
hints = (
{
horizontal = 1;
place = "{3, 38}";
type = Stem;
},
{
horizontal = 1;
place = "{324, 43}";
type = Stem;
},
{
horizontal = 1;
place = "{689, 70}";
type = Stem;
},
{
place = "{45, 41}";
type = Stem;
},
{
horizontal = 1;
place = "{653, 36}";
type = Stem;
}
);
layerId = "09B19460-4606-4A98-AA02-96D7DF647D82";
paths = (
{
closed = 1;
nodes = (
"134 760 LINE",
"173 759 LINE",
"175 759 LINE",
"175 761 LINE SMOOTH",
"175 779 OFFCURVE",
"181 860 OFFCURVE",
"181 862 CURVE",
"172 866 OFFCURVE",
"142 865 OFFCURVE",
"130 861 CURVE",
"130 844 OFFCURVE",
"126 786 OFFCURVE",
"131 760 CURVE"
);
},
{
closed = 1;
nodes = (
"292 760 LINE",
"331 759 LINE",
"333 759 LINE",
"333 761 LINE SMOOTH",
"333 779 OFFCURVE",
"339 860 OFFCURVE",
"339 862 CURVE",
"330 866 OFFCURVE",
"300 865 OFFCURVE",
"288 861 CURVE",
"288 844 OFFCURVE",
"284 786 OFFCURVE",
"289 760 CURVE"
);
},
{
closed = 1;
nodes = (
"95 653 LINE SMOOTH",
"189 656 OFFCURVE",
"247 657 OFFCURVE",
"269 657 CURVE SMOOTH",
"291 657 OFFCURVE",
"313 657 OFFCURVE",
"335 656 CURVE",
"379 656 OFFCURVE",
"416 660 OFFCURVE",
"459 657 CURVE",
"460 695 LINE SMOOTH",
"460 701 OFFCURVE",
"201 697 OFFCURVE",
"46 689 CURVE",
"33 460 OFFCURVE",
"45 237 OFFCURVE",
"45 5 CURVE",
"174 -6 OFFCURVE",
"319 4 OFFCURVE",
"455 3 CURVE",
"457 39 LINE",
"457 41 LINE",
"412 40 OFFCURVE",
"368 40 OFFCURVE",
"325 42 CURVE SMOOTH",
"282 45 OFFCURVE",
"203 46 OFFCURVE",
"87 45 CURVE",
"86 46 LINE",
"91 205 OFFCURVE",
"85 280 OFFCURVE",
"92 319 CURVE",
"95 322 OFFCURVE",
"120 323 OFFCURVE",
"165 324 CURVE SMOOTH",
"210 325 OFFCURVE",
"239 326 OFFCURVE",
"250 325 CURVE SMOOTH",
"262 324 OFFCURVE",
"270 324 OFFCURVE",
"274 325 CURVE SMOOTH",
"278 326 OFFCURVE",
"294 328 OFFCURVE",
"320 329 CURVE",
"320 332 OFFCURVE",
"320 345 OFFCURVE",
"319 364 CURVE",
"319 365 LINE",
"298 366 OFFCURVE",
"278 366 OFFCURVE",
"257 366 CURVE SMOOTH",
"236 366 OFFCURVE",
"180 366 OFFCURVE",
"88 367 CURVE",
"87 368 LINE",
"82 386 OFFCURVE",
"82 433 OFFCURVE",
"86 509 CURVE SMOOTH",
"90 585 OFFCURVE",
"92 633 OFFCURVE",
"91 652 CURVE",
"92 653 LINE"
);
},
{
closed = 1;
nodes = (
"320 329 LINE",
"321 328 OFFCURVE",
"321 328 OFFCURVE",
"321 329 CURVE"
);
}
);
width = 481;
}
);
note = Edieresis;
rightKerningGroup = E;
unicode = 00CB;
},
{
glyphname = exclamdown;
layers = (
{
hints = (
{
horizontal = 1;
place = "{511, -20}";
target = down;
type = TopGhost;
},
{
horizontal = 1;
place = "{631, -20}";
target = down;
type = TopGhost;
},
{
place = "{81, 52}";
type = Stem;
}
);
layerId = "09B19460-4606-4A98-AA02-96D7DF647D82";
paths = (
{
closed = 1;
nodes = (
"77 631 LINE SMOOTH",
"68 631 OFFCURVE",
"80 551 OFFCURVE",
"80 514 CURVE SMOOTH",
"80 513 LINE",
"96 506 OFFCURVE",
"110 511 OFFCURVE",
"130 511 CURVE",
"129 548 OFFCURVE",
"127 592 OFFCURVE",
"127 631 CURVE"
);
},
{
closed = 1;
nodes = (
"87 -70 LINE",
"106 -73 OFFCURVE",
"109 -75 OFFCURVE",
"133 -72 CURVE",
"130 99 OFFCURVE",
"126 286 OFFCURVE",
"134 457 CURVE",
"110 461 OFFCURVE",
"105 461 OFFCURVE",
"82 462 CURVE",
"81 462 LINE",
"84 286 OFFCURVE",
"73 112 OFFCURVE",
"84 -70 CURVE"
);
}
);
width = 216;
}
);
note = exclamdown;
unicode = 00A1;
},
{
glyphname = Odieresis;
layers = (
{
hints = (
{
place = "{31, 42}";
type = Stem;
},
{
place = "{408, 42}";
type = Stem;
}
);
layerId = "09B19460-4606-4A98-AA02-96D7DF647D82";
paths = (
{
closed = 1;
nodes = (
"149 760 LINE",
"188 759 LINE",
"190 759 LINE",
"190 761 LINE SMOOTH",
"190 779 OFFCURVE",
"196 860 OFFCURVE",
"196 862 CURVE",
"187 866 OFFCURVE",
"157 865 OFFCURVE",
"145 861 CURVE",
"145 844 OFFCURVE",
"141 786 OFFCURVE",
"146 760 CURVE"
);
},
{
closed = 1;
nodes = (
"307 760 LINE",
"346 759 LINE",
"348 759 LINE",
"348 761 LINE SMOOTH",
"348 779 OFFCURVE",
"354 860 OFFCURVE",
"354 862 CURVE",
"345 866 OFFCURVE",
"315 865 OFFCURVE",
"303 861 CURVE",
"303 844 OFFCURVE",
"299 786 OFFCURVE",
"304 760 CURVE"
);
},
{
closed = 1;
nodes = (
"429 615 OFFCURVE",
"415 636 OFFCURVE",
"396 653 CURVE",
"319 712 OFFCURVE",
"195 714 OFFCURVE",
"107 671 CURVE",
"98 666 OFFCURVE",
"91 660 OFFCURVE",
"84 653 CURVE",
"43 606 OFFCURVE",
"32 542 OFFCURVE",
"31 482 CURVE",
"24 377 OFFCURVE",
"32 272 OFFCURVE",
"36 168 CURVE SMOOTH",
"37 129 OFFCURVE",
"41 90 OFFCURVE",
"60 57 CURVE",
"84 4 OFFCURVE",
"137 -8 OFFCURVE",
"192 -13 CURVE SMOOTH",
"231 -16 OFFCURVE",
"269 -14 OFFCURVE",
"306 -3 CURVE SMOOTH",
"347 8 OFFCURVE",
"386 26 OFFCURVE",
"409 58 CURVE",
"433 97 OFFCURVE",
"444 146 OFFCURVE",
"447 193 CURVE SMOOTH",
"450 226 LINE SMOOTH",
"455 295 OFFCURVE",
"451 360 OFFCURVE",
"455 431 CURVE SMOOTH",
"456 464 OFFCURVE",
"456 497 OFFCURVE",
"453 530 CURVE",
"450 551 OFFCURVE",
"446 572 OFFCURVE",
"437 592 CURVE"
);
},
{
closed = 1;
nodes = (
"408 439 LINE",
"408 300 LINE",
"405 240 LINE",
"402 163 LINE",
"397 106 OFFCURVE",
"392 101 OFFCURVE",
"370 72 CURVE",
"360 61 OFFCURVE",
"348 50 OFFCURVE",
"333 41 CURVE SMOOTH",
"318 32 OFFCURVE",
"288 26 OFFCURVE",
"241 22 CURVE SMOOTH",
"195 18 OFFCURVE",
"162 22 OFFCURVE",
"141 35 CURVE SMOOTH",
"120 48 OFFCURVE",
"107 62 OFFCURVE",
"100 75 CURVE",
"93 97 OFFCURVE",
"88 120 OFFCURVE",
"83 144 CURVE SMOOTH",
"78 169 OFFCURVE",
"75 224 OFFCURVE",
"73 311 CURVE SMOOTH",
"72 400 OFFCURVE",
"73 458 OFFCURVE",
"76 486 CURVE",
"80 514 OFFCURVE",
"85 541 OFFCURVE",
"90 566 CURVE",
"98 594 OFFCURVE",
"114 617 OFFCURVE",
"137 635 CURVE",
"186 657 OFFCURVE",
"227 666 OFFCURVE",
"262 662 CURVE SMOOTH",
"297 659 OFFCURVE",
"321 654 OFFCURVE",
"334 649 CURVE",
"365 634 OFFCURVE",
"395 601 OFFCURVE",
"398 564 CURVE",
"399 541 OFFCURVE",
"402 508 OFFCURVE",
"402 507 CURVE"
);
}
);
width = 484;
}
);
leftKerningGroup = G;
note = Odieresis;
rightKerningGroup = O;
unicode = 00D6;
},
{
glyphname = Udieresis;
layers = (
{
hints = (
{
place = "{40, 54}";
type = Stem;
},
{
place = "{420, 49}";
type = Stem;
}
);
layerId = "09B19460-4606-4A98-AA02-96D7DF647D82";
paths = (
{
closed = 1;
nodes = (
"157 760 LINE",
"196 759 LINE",
"198 759 LINE",
"198 761 LINE SMOOTH",
"198 779 OFFCURVE",
"204 860 OFFCURVE",
"204 862 CURVE",
"195 866 OFFCURVE",
"165 865 OFFCURVE",
"153 861 CURVE",
"153 844 OFFCURVE",
"149 786 OFFCURVE",
"154 760 CURVE"
);
},
{
closed = 1;
nodes = (
"315 760 LINE",
"354 759 LINE",
"356 759 LINE",
"356 761 LINE SMOOTH",
"356 779 OFFCURVE",
"362 860 OFFCURVE",
"362 862 CURVE",
"353 866 OFFCURVE",
"323 865 OFFCURVE",
"311 861 CURVE",
"311 844 OFFCURVE",
"307 786 OFFCURVE",
"312 760 CURVE"
);
},
{
closed = 1;
nodes = (
"461 674 OFFCURVE",
"445 674 OFFCURVE",
"420 671 CURVE",
"416 516 OFFCURVE",
"425 356 OFFCURVE",
"414 219 CURVE SMOOTH",
"409 150 OFFCURVE",
"388 99 OFFCURVE",
"350 66 CURVE SMOOTH",
"313 33 OFFCURVE",
"263 24 OFFCURVE",
"202 39 CURVE SMOOTH",
"141 55 OFFCURVE",
"106 100 OFFCURVE",
"97 173 CURVE SMOOTH",
"89 246 OFFCURVE",
"88 415 OFFCURVE",
"94 680 CURVE",
"40 680 LINE",
"41 679 LINE",
"42 591 OFFCURVE",
"42 502 OFFCURVE",
"40 413 CURVE SMOOTH",
"38 324 OFFCURVE",
"39 242 OFFCURVE",
"44 168 CURVE SMOOTH",
"47 107 OFFCURVE",
"76 43 OFFCURVE",
"124 16 CURVE",
"173 -9 OFFCURVE",
"237 -19 OFFCURVE",
"293 -14 CURVE SMOOTH",
"389 -5 OFFCURVE",
"446 63 OFFCURVE",
"457 151 CURVE SMOOTH",
"476 323 OFFCURVE",
"477 498 OFFCURVE",
"469 669 CURVE"
);
}
);
width = 505;
}
);
leftKerningGroup = U;
note = Udieresis;
rightKerningGroup = U;
unicode = 00DC;
},
{
glyphname = atilde;
layers = (
{
hints = (
{
horizontal = 1;
place = "{-2, 41}";
type = Stem;
},
{
horizontal = 1;
place = "{461, 36}";
type = Stem;
},
{
place = "{19, 45}";
type = Stem;
},
{
place = "{390, 49}";
type = Stem;
},
{
horizontal = 1;
place = "{-1, 21}";
target = up;
type = BottomGhost;
}
);
layerId = "09B19460-4606-4A98-AA02-96D7DF647D82";
paths = (
{
closed = 1;
nodes = (
"89 592 LINE",
"102 659 OFFCURVE",
"123 708 OFFCURVE",
"172 720 CURVE",
"201 725 OFFCURVE",
"223 720 OFFCURVE",
"244 663 CURVE",
"257 620 OFFCURVE",
"274 595 OFFCURVE",
"293 589 CURVE SMOOTH",
"312 583 OFFCURVE",
"332 582 OFFCURVE",
"353 585 CURVE SMOOTH",
"423 596 OFFCURVE",
"458 680 OFFCURVE",
"447 746 CURVE",
"447 747 LINE",
"410 746 LINE",
"414 719 OFFCURVE",
"412 693 OFFCURVE",
"405 667 CURVE SMOOTH",
"398 641 OFFCURVE",
"379 625 OFFCURVE",
"347 618 CURVE SMOOTH",
"315 612 OFFCURVE",
"294 624 OFFCURVE",
"285 654 CURVE SMOOTH",
"276 685 OFFCURVE",
"269 705 OFFCURVE",
"263 714 CURVE",
"258 723 OFFCURVE",
"250 732 OFFCURVE",
"240 739 CURVE SMOOTH",
"197 768 OFFCURVE",
"141 756 OFFCURVE",
"105 720 CURVE",
"80 692 OFFCURVE",
"53 620 OFFCURVE",
"45 591 CURVE",
"65 592 OFFCURVE",
"73 592 OFFCURVE",
"89 591 CURVE"
);
},
{
closed = 1;
nodes = (
"404 500 LINE",
"403 501 OFFCURVE",
"400 501 OFFCURVE",
"395 500 CURVE",
"391 500 OFFCURVE",
"389 500 OFFCURVE",
"389 499 CURVE SMOOTH",
"389 482 OFFCURVE",
"388 465 OFFCURVE",
"385 448 CURVE",
"372 472 OFFCURVE",
"361 479 OFFCURVE",
"341 488 CURVE",
"331 493 OFFCURVE",
"307 496 OFFCURVE",
"269 497 CURVE SMOOTH",
"231 498 OFFCURVE",
"204 498 OFFCURVE",
"187 497 CURVE SMOOTH",
"93 494 OFFCURVE",
"19 399 OFFCURVE",
"19 266 CURVE SMOOTH",
"19 159 OFFCURVE",
"63 -2 OFFCURVE",
"166 -2 CURVE SMOOTH",
"189 -2 OFFCURVE",
"227 -1 OFFCURVE",
"279 0 CURVE SMOOTH",
"332 1 OFFCURVE",
"369 20 OFFCURVE",
"391 55 CURVE",
"391 36 OFFCURVE",
"387 1 OFFCURVE",
"399 -2 CURVE",
"398 -1 OFFCURVE",
"407 -1 OFFCURVE",
"426 -1 CURVE",
"442 2 OFFCURVE",
"439 23 OFFCURVE",
"439 40 CURVE",
"448 183 OFFCURVE",
"437 320 OFFCURVE",
"441 464 CURVE SMOOTH",
"441 474 LINE SMOOTH",
"441 482 OFFCURVE",
"440 490 OFFCURVE",
"439 498 CURVE"
);
},
{
closed = 1;
nodes = (
"81 372 OFFCURVE",
"100 401 OFFCURVE",
"130 426 CURVE SMOOTH",
"160 451 OFFCURVE",
"198 463 OFFCURVE",
"243 461 CURVE SMOOTH",
"286 458 OFFCURVE",
"315 453 OFFCURVE",
"328 444 CURVE",
"341 436 OFFCURVE",
"353 427 OFFCURVE",
"363 417 CURVE",
"384 398 OFFCURVE",
"390 342 OFFCURVE",
"390 253 CURVE SMOOTH",
"390 181 OFFCURVE",
"397 122 OFFCURVE",
"366 85 CURVE SMOOTH",
"337 49 OFFCURVE",
"299 38 OFFCURVE",
"236 39 CURVE",
"173 34 OFFCURVE",
"129 49 OFFCURVE",
"105 85 CURVE SMOOTH",
"81 121 OFFCURVE",
"67 172 OFFCURVE",
"64 239 CURVE",
"64 272 OFFCURVE",
"65 308 OFFCURVE",
"74 341 CURVE"
);
}
);
width = 476;
}
);
leftKerningGroup = agrave;
note = atilde;
rightKerningGroup = q;
unicode = 00E3;
},
{
glyphname = adieresis;
layers = (
{
hints = (
{
horizontal = 1;
place = "{-1, 21}";
target = up;
type = BottomGhost;
},
{
horizontal = 1;
place = "{497, 138}";
type = Stem;
},
{
place = "{19, 45}";
type = Stem;
},
{
place = "{390, 49}";
type = Stem;
},
{
horizontal = 1;
place = "{461, 36}";
type = Stem;
},
{
horizontal = 1;
place = "{-2, 41}";
type = Stem;
}
);
layerId = "09B19460-4606-4A98-AA02-96D7DF647D82";
paths = (
{
closed = 1;
nodes = (
"179 636 LINE",
"218 635 LINE",
"220 635 LINE",
"220 637 LINE SMOOTH",
"220 655 OFFCURVE",
"226 736 OFFCURVE",
"226 738 CURVE",
"217 742 OFFCURVE",
"187 741 OFFCURVE",
"175 737 CURVE",
"175 720 OFFCURVE",
"171 662 OFFCURVE",
"176 636 CURVE"
);
},
{
closed = 1;
nodes = (
"337 636 LINE",
"376 635 LINE",
"378 635 LINE",
"378 637 LINE SMOOTH",
"378 655 OFFCURVE",
"384 736 OFFCURVE",
"384 738 CURVE",
"375 742 OFFCURVE",
"345 741 OFFCURVE",
"333 737 CURVE",
"333 720 OFFCURVE",
"329 662 OFFCURVE",
"334 636 CURVE"
);
},
{
closed = 1;
nodes = (
"404 500 LINE",
"403 501 OFFCURVE",
"400 501 OFFCURVE",
"395 500 CURVE",
"391 500 OFFCURVE",
"389 500 OFFCURVE",
"389 499 CURVE SMOOTH",
"389 482 OFFCURVE",
"388 465 OFFCURVE",
"385 448 CURVE",
"372 472 OFFCURVE",
"361 479 OFFCURVE",
"341 488 CURVE",
"331 493 OFFCURVE",
"307 496 OFFCURVE",
"269 497 CURVE SMOOTH",
"231 498 OFFCURVE",
"204 498 OFFCURVE",
"187 497 CURVE SMOOTH",
"93 494 OFFCURVE",
"19 399 OFFCURVE",
"19 266 CURVE SMOOTH",
"19 159 OFFCURVE",
"63 -2 OFFCURVE",
"166 -2 CURVE SMOOTH",
"189 -2 OFFCURVE",
"227 -1 OFFCURVE",
"279 0 CURVE SMOOTH",
"332 1 OFFCURVE",
"369 20 OFFCURVE",
"391 55 CURVE",
"391 36 OFFCURVE",
"387 1 OFFCURVE",
"399 -2 CURVE",
"398 -1 OFFCURVE",
"407 -1 OFFCURVE",
"426 -1 CURVE",
"442 2 OFFCURVE",
"439 23 OFFCURVE",
"439 40 CURVE",
"448 183 OFFCURVE",
"437 320 OFFCURVE",
"441 464 CURVE SMOOTH",
"441 474 LINE SMOOTH",
"441 482 OFFCURVE",
"440 490 OFFCURVE",
"439 498 CURVE"
);
},
{
closed = 1;
nodes = (
"81 372 OFFCURVE",
"100 401 OFFCURVE",
"130 426 CURVE SMOOTH",
"160 451 OFFCURVE",
"198 463 OFFCURVE",
"243 461 CURVE SMOOTH",
"286 458 OFFCURVE",
"315 453 OFFCURVE",
"328 444 CURVE",
"341 436 OFFCURVE",
"353 427 OFFCURVE",
"363 417 CURVE",
"384 398 OFFCURVE",
"390 342 OFFCURVE",
"390 253 CURVE SMOOTH",
"390 181 OFFCURVE",
"397 122 OFFCURVE",
"366 85 CURVE SMOOTH",
"337 49 OFFCURVE",
"299 38 OFFCURVE",
"236 39 CURVE",
"173 34 OFFCURVE",
"129 49 OFFCURVE",
"105 85 CURVE SMOOTH",
"81 121 OFFCURVE",
"67 172 OFFCURVE",
"64 239 CURVE",
"64 272 OFFCURVE",
"65 308 OFFCURVE",
"74 341 CURVE"
);
}
);
width = 476;
}
);
leftKerningGroup = agrave;
note = adieresis;
rightKerningGroup = q;
unicode = 00E4;
},
{
glyphname = edieresis;
layers = (
{
hints = (
{
horizontal = 1;
place = "{-13, 32}";
type = Stem;
},
{
horizontal = 1;
place = "{247, 41}";
type = Stem;
},
{
horizontal = 1;
place = "{479, 36}";
type = Stem;
},
{
horizontal = 1;
place = "{651, 105}";
type = Stem;
},
{
place = "{20, 48}";
type = Stem;
},
{
place = "{391, 35}";
type = Stem;
}
);
layerId = "09B19460-4606-4A98-AA02-96D7DF647D82";
paths = (
{
closed = 1;
nodes = (
"128 652 LINE",
"167 651 LINE",
"169 651 LINE",
"169 653 LINE SMOOTH",
"169 671 OFFCURVE",
"175 752 OFFCURVE",
"175 754 CURVE",
"171 757 OFFCURVE",
"163 756 OFFCURVE",
"154 756 CURVE SMOOTH",
"111 756 OFFCURVE",
"122 738 OFFCURVE",
"122 692 CURVE SMOOTH",
"122 675 OFFCURVE",
"123 662 OFFCURVE",
"125 652 CURVE"
);
},
{
closed = 1;
nodes = (
"327 651 LINE",
"327 653 LINE SMOOTH",
"327 671 OFFCURVE",
"333 752 OFFCURVE",
"333 754 CURVE",
"329 757 OFFCURVE",
"321 756 OFFCURVE",
"312 756 CURVE SMOOTH",
"269 756 OFFCURVE",
"280 738 OFFCURVE",
"280 692 CURVE SMOOTH",
"280 675 OFFCURVE",
"281 662 OFFCURVE",
"283 651 CURVE"
);
},
{
closed = 1;
nodes = (
"337 247 OFFCURVE",
"411 254 OFFCURVE",
"424 259 CURVE",
"425 274 OFFCURVE",
"426 287 OFFCURVE",
"426 302 CURVE SMOOTH",
"426 420 OFFCURVE",
"386 515 OFFCURVE",
"223 515 CURVE SMOOTH",
"146 515 OFFCURVE",
"69 483 OFFCURVE",
"43 423 CURVE",
"24 372 OFFCURVE",
"20 313 OFFCURVE",
"20 257 CURVE SMOOTH",
"20 156 OFFCURVE",
"47 54 OFFCURVE",
"112 8 CURVE",
"152 -15 OFFCURVE",
"204 -13 OFFCURVE",
"261 -13 CURVE SMOOTH",
"314 -13 OFFCURVE",
"366 -6 OFFCURVE",
"394 34 CURVE",
"413 50 OFFCURVE",
"417 122 OFFCURVE",
"422 190 CURVE",
"419 191 OFFCURVE",
"414 191 OFFCURVE",
"408 191 CURVE SMOOTH",
"397 191 OFFCURVE",
"387 190 OFFCURVE",
"379 190 CURVE SMOOTH",
"375 190 LINE",
"375 176 LINE SMOOTH",
"375 152 OFFCURVE",
"374 121 OFFCURVE",
"367 85 CURVE SMOOTH",
"359 41 OFFCURVE",
"317 19 OFFCURVE",
"241 19 CURVE SMOOTH",
"179 19 OFFCURVE",
"137 33 OFFCURVE",
"116 60 CURVE SMOOTH",
"71 118 OFFCURVE",
"70 163 OFFCURVE",
"67 188 CURVE",
"66 201 OFFCURVE",
"65 217 OFFCURVE",
"65 237 CURVE SMOOTH",
"65 255 LINE",
"71 254 OFFCURVE",
"167 247 OFFCURVE",
"274 247 CURVE SMOOTH"
);
},
{
closed = 1;
nodes = (
"273 479 OFFCURVE",
"286 478 OFFCURVE",
"315 467 CURVE",
"371 427 OFFCURVE",
"391 356 OFFCURVE",
"391 303 CURVE SMOOTH",
"391 291 OFFCURVE",
"386 288 OFFCURVE",
"315 288 CURVE SMOOTH",
"302 288 OFFCURVE",
"286 289 OFFCURVE",
"267 289 CURVE SMOOTH",
"231 289 OFFCURVE",
"202 286 OFFCURVE",
"179 286 CURVE SMOOTH",
"112 286 OFFCURVE",
"68 288 OFFCURVE",
"68 311 CURVE SMOOTH",
"68 403 OFFCURVE",
"110 479 OFFCURVE",
"242 479 CURVE SMOOTH"
);
}
);
width = 444;
}
);
leftKerningGroup = egrave;
note = edieresis;
rightKerningGroup = egrave;
unicode = 00EB;
},
{
glyphname = idieresis;
layers = (
{
hints = (
{
horizontal = 1;
place = "{-2, 21}";
target = up;
type = BottomGhost;
},
{
place = "{83, 56}";
type = Stem;
}
);
layerId = "09B19460-4606-4A98-AA02-96D7DF647D82";
paths = (
{
closed = 1;
nodes = (
"4 651 LINE",
"43 650 LINE",
"45 650 LINE",
"45 652 LINE SMOOTH",
"45 670 OFFCURVE",
"51 751 OFFCURVE",
"51 753 CURVE",
"42 757 OFFCURVE",
"12 756 OFFCURVE",
"0 752 CURVE",
"0 735 OFFCURVE",
"-4 677 OFFCURVE",
"1 651 CURVE"
);
},
{
closed = 1;
nodes = (
"162 651 LINE",
"201 650 LINE",
"203 650 LINE",
"203 652 LINE SMOOTH",
"203 670 OFFCURVE",
"209 751 OFFCURVE",
"209 753 CURVE",
"200 757 OFFCURVE",
"170 756 OFFCURVE",
"158 752 CURVE",
"158 735 OFFCURVE",
"154 677 OFFCURVE",
"159 651 CURVE"
);
},
{
closed = 1;
nodes = (
"139 503 LINE",
"107 504 OFFCURVE",
"90 505 OFFCURVE",
"87 504 CURVE",
"87 503 LINE",
"79 424 OFFCURVE",
"83 337 OFFCURVE",
"83 266 CURVE SMOOTH",
"83 -2 LINE",
"92 1 OFFCURVE",
"103 3 OFFCURVE",
"139 0 CURVE",
"128 169 OFFCURVE",
"138 339 OFFCURVE",
"139 500 CURVE SMOOTH"
);
}
);
width = 207;
}
);
note = idieresis;
unicode = 00EF;
},
{
glyphname = odieresis;
layers = (
{
hints = (
{
horizontal = 1;
place = "{-7, 21}";
target = up;
type = BottomGhost;
},
{
horizontal = 1;
place = "{514, 137}";
type = Stem;
},
{
place = "{379, 46}";
type = Stem;
}
);
layerId = "09B19460-4606-4A98-AA02-96D7DF647D82";
paths = (
{
closed = 1;
nodes = (
"125 652 LINE",
"164 651 LINE",
"166 651 LINE",
"166 653 LINE SMOOTH",
"166 671 OFFCURVE",
"172 752 OFFCURVE",
"172 754 CURVE",
"163 758 OFFCURVE",
"133 757 OFFCURVE",
"121 753 CURVE",
"121 736 OFFCURVE",
"117 678 OFFCURVE",
"122 652 CURVE"
);
},
{
closed = 1;
nodes = (
"283 652 LINE",
"322 651 LINE",
"324 651 LINE",
"324 653 LINE SMOOTH",
"324 671 OFFCURVE",
"330 752 OFFCURVE",
"330 754 CURVE",
"321 758 OFFCURVE",
"291 757 OFFCURVE",
"279 753 CURVE",
"279 736 OFFCURVE",
"275 678 OFFCURVE",
"280 652 CURVE"
);
},
{
closed = 1;
nodes = (
"34 427 OFFCURVE",
"30 412 OFFCURVE",
"29 397 CURVE",
"25 372 OFFCURVE",
"24 349 OFFCURVE",
"24 325 CURVE",
"32 238 OFFCURVE",
"3 101 OFFCURVE",
"75 37 CURVE",
"98 14 OFFCURVE",
"127 -1 OFFCURVE",
"161 -7 CURVE",
"238 -7 OFFCURVE",
"347 -28 OFFCURVE",
"393 37 CURVE",
"419 63 OFFCURVE",
"422 194 OFFCURVE",
"425 272 CURVE",
"422 360 OFFCURVE",
"422 445 OFFCURVE",
"384 470 CURVE",
"356 497 OFFCURVE",
"316 510 OFFCURVE",
"273 513 CURVE",
"245 516 OFFCURVE",
"222 511 OFFCURVE",
"195 514 CURVE",
"132 514 OFFCURVE",
"64 497 OFFCURVE",
"45 456 CURVE"
);
},
{
closed = 1;
nodes = (
"107 454 OFFCURVE",
"142 469 OFFCURVE",
"194 476 CURVE",
"238 480 OFFCURVE",
"279 476 OFFCURVE",
"318 465 CURVE SMOOTH",
"357 454 OFFCURVE",
"377 425 OFFCURVE",
"377 378 CURVE",
"386 271 OFFCURVE",
"379 208 OFFCURVE",
"379 157 CURVE SMOOTH",
"379 92 OFFCURVE",
"361 53 OFFCURVE",
"326 41 CURVE SMOOTH",
"279 25 OFFCURVE",
"221 23 OFFCURVE",
"177 28 CURVE SMOOTH",
"156 31 OFFCURVE",
"135 39 OFFCURVE",
"114 51 CURVE SMOOTH",
"94 63 OFFCURVE",
"81 90 OFFCURVE",
"76 133 CURVE SMOOTH",
"69 202 OFFCURVE",
"65 253 OFFCURVE",
"64 286 CURVE SMOOTH",
"63 319 OFFCURVE",
"64 347 OFFCURVE",
"67 369 CURVE SMOOTH",
"70 392 OFFCURVE",
"77 413 OFFCURVE",
"90 432 CURVE"
);
}
);
width = 448;
}
);
leftKerningGroup = o;
note = odieresis;
rightKerningGroup = o;
unicode = 00F6;
},
{
glyphname = udieresis;
layers = (
{
hints = (
{
place = "{31, 43}";
type = Stem;
},
{
place = "{370, 43}";
type = Stem;
}
);
layerId = "09B19460-4606-4A98-AA02-96D7DF647D82";
paths = (
{
closed = 1;
nodes = (
"125 652 LINE",
"164 651 LINE",
"166 651 LINE",
"166 653 LINE SMOOTH",
"166 671 OFFCURVE",
"172 752 OFFCURVE",
"172 754 CURVE",
"163 758 OFFCURVE",
"133 757 OFFCURVE",
"121 753 CURVE",
"121 736 OFFCURVE",
"117 678 OFFCURVE",
"122 652 CURVE"
);
},
{
closed = 1;
nodes = (
"283 652 LINE",
"322 651 LINE",
"324 651 LINE",
"324 653 LINE SMOOTH",
"324 671 OFFCURVE",
"330 752 OFFCURVE",
"330 754 CURVE",
"321 758 OFFCURVE",
"291 757 OFFCURVE",
"279 753 CURVE",
"279 736 OFFCURVE",
"275 678 OFFCURVE",
"280 652 CURVE"
);
},
{
closed = 1;
nodes = (
"369 44 OFFCURVE",
"369 26 OFFCURVE",
"370 0 CURVE",
"370 -4 OFFCURVE",
"379 -4 OFFCURVE",
"386 -3 CURVE",
"413 2 LINE",
"418 178 OFFCURVE",
"412 339 OFFCURVE",
"412 503 CURVE",
"395 502 OFFCURVE",
"381 499 OFFCURVE",
"369 496 CURVE",
"369 492 LINE",
"370 470 OFFCURVE",
"370 448 OFFCURVE",
"370 426 CURVE",
"371 404 OFFCURVE",
"371 369 OFFCURVE",
"372 322 CURVE SMOOTH",
"375 217 LINE SMOOTH",
"376 194 OFFCURVE",
"375 168 OFFCURVE",
"373 138 CURVE SMOOTH",
"371 109 OFFCURVE",
"346 83 OFFCURVE",
"298 62 CURVE SMOOTH",
"251 41 OFFCURVE",
"201 34 OFFCURVE",
"150 40 CURVE SMOOTH",
"99 46 OFFCURVE",
"73 85 OFFCURVE",
"74 158 CURVE SMOOTH",
"75 231 OFFCURVE",
"75 282 OFFCURVE",
"75 311 CURVE SMOOTH",
"75 386 LINE SMOOTH",
"76 427 OFFCURVE",
"77 467 OFFCURVE",
"74 498 CURVE",
"34 498 LINE",
"38 430 OFFCURVE",
"33 323 OFFCURVE",
"31 229 CURVE",
"34 131 OFFCURVE",
"26 65 OFFCURVE",
"59 33 CURVE",
"87 0 OFFCURVE",
"162 -6 OFFCURVE",
"270 11 CURVE SMOOTH",
"339 24 OFFCURVE",
"361 49 OFFCURVE",
"368 53 CURVE"
);
}
);
width = 449;
}
);
leftKerningGroup = u;
note = udieresis;
rightKerningGroup = q;
unicode = 00FC;
},
{
glyphname = yacute;
layers = (
{
hints = (
{
horizontal = 1;
place = "{740, -20}";
target = down;
type = TopGhost;
}
);
layerId = "09B19460-4606-4A98-AA02-96D7DF647D82";
paths = (
{
closed = 1;
nodes = (
"228 595 OFFCURVE",
"247 612 OFFCURVE",
"270 635 CURVE SMOOTH",
"313 680 LINE SMOOTH",
"329 697 OFFCURVE",
"339 705 OFFCURVE",
"341 705 CURVE",
"308 740 LINE",
"292 723 OFFCURVE",
"267 697 OFFCURVE",
"239 670 CURVE",
"211 645 OFFCURVE",
"179 607 OFFCURVE",
"156 586 CURVE",
"165 583 OFFCURVE",
"184 580 OFFCURVE",
"221 584 CURVE"
);
},
{
closed = 1;
nodes = (
"341 705 LINE",
"342 704 LINE"
);
},
{
closed = 1;
nodes = (
"391 496 LINE",
"383 476 OFFCURVE",
"360 383 OFFCURVE",
"323 218 CURVE SMOOTH",
"286 53 OFFCURVE",
"255 -30 OFFCURVE",
"230 -33 CURVE",
"211 -20 OFFCURVE",
"153 157 OFFCURVE",
"55 498 CURVE",
"41 501 OFFCURVE",
"24 501 OFFCURVE",
"3 500 CURVE",
"24 425 OFFCURVE",
"44 356 OFFCURVE",
"64 294 CURVE SMOOTH",
"178 -53 LINE",
"185 -79 OFFCURVE",
"171 -100 OFFCURVE",
"135 -116 CURVE SMOOTH",
"99 -132 OFFCURVE",
"52 -136 OFFCURVE",
"-7 -129 CURVE",
"-13 -145 OFFCURVE",
"-13 -161 OFFCURVE",
"-6 -177 CURVE",
"220 -190 OFFCURVE",
"298 -71 OFFCURVE",
"338 69 CURVE SMOOTH",
"359 138 OFFCURVE",
"371 212 OFFCURVE",
"387 279 CURVE SMOOTH",
"404 347 OFFCURVE",
"420 419 OFFCURVE",
"441 499 CURVE"
);
}
);
width = 449;
}
);
leftKerningGroup = y;
note = yacute;
rightKerningGroup = y;
unicode = 00FD;
},
{
glyphname = ydieresis;
layers = (
{
hints = (
{
horizontal = 1;
place = "{-177, 44.84}";
type = Stem;
},
{
horizontal = 1;
place = "{652, 101}";
type = Stem;
},
{
place = "{121, 45}";
type = Stem;
},
{
place = "{279, 45}";
type = Stem;
}
);
layerId = "09B19460-4606-4A98-AA02-96D7DF647D82";
paths = (
{
closed = 1;
nodes = (
"125 652 LINE",
"164 651 LINE",
"166 651 LINE",
"166 653 LINE SMOOTH",
"166 671 OFFCURVE",
"172 752 OFFCURVE",
"172 754 CURVE",
"163 758 OFFCURVE",
"133 757 OFFCURVE",
"121 753 CURVE",
"121 736 OFFCURVE",
"117 678 OFFCURVE",
"122 652 CURVE"
);
},
{
closed = 1;
nodes = (
"283 652 LINE",
"322 651 LINE",
"324 651 LINE",
"324 653 LINE SMOOTH",
"324 671 OFFCURVE",
"330 752 OFFCURVE",
"330 754 CURVE",
"321 758 OFFCURVE",
"291 757 OFFCURVE",
"279 753 CURVE",
"279 736 OFFCURVE",
"275 678 OFFCURVE",
"280 652 CURVE"
);
},
{
closed = 1;
nodes = (
"41 501 OFFCURVE",
"24 501 OFFCURVE",
"3 500 CURVE",
"24 425 OFFCURVE",
"44 356 OFFCURVE",
"64 294 CURVE SMOOTH",
"178 -53 LINE",
"185 -79 OFFCURVE",
"171 -100 OFFCURVE",
"135 -116 CURVE SMOOTH",
"99 -132 OFFCURVE",
"52 -136 OFFCURVE",
"-7 -129 CURVE",
"-13 -145 OFFCURVE",
"-13 -161 OFFCURVE",
"-6 -177 CURVE",
"220 -190 OFFCURVE",
"298 -71 OFFCURVE",
"338 69 CURVE SMOOTH",
"359 138 OFFCURVE",
"371 212 OFFCURVE",
"387 279 CURVE SMOOTH",
"404 347 OFFCURVE",
"420 419 OFFCURVE",
"441 499 CURVE",
"391 496 LINE",
"383 476 OFFCURVE",
"360 383 OFFCURVE",
"323 218 CURVE SMOOTH",
"286 53 OFFCURVE",
"255 -30 OFFCURVE",
"230 -33 CURVE",
"211 -20 OFFCURVE",
"153 157 OFFCURVE",
"55 498 CURVE"
);
}
);
width = 449;
}
);
leftKerningGroup = y;
note = ydieresis;
rightKerningGroup = y;
unicode = 00FF;
},
{
glyphname = Igrave;
layers = (
{
hints = (
{
horizontal = 1;
place = "{-4, 21}";
target = up;
type = BottomGhost;
},
{
horizontal = 1;
place = "{904, -20}";
target = down;
type = TopGhost;
},
{
place = "{95, 59}";
type = Stem;
}
);
layerId = "09B19460-4606-4A98-AA02-96D7DF647D82";
paths = (
{
closed = 1;
nodes = (
"148 771 OFFCURVE",
"116 809 OFFCURVE",
"88 834 CURVE",
"60 861 OFFCURVE",
"35 887 OFFCURVE",
"19 904 CURVE",
"-14 869 LINE",
"-12 869 OFFCURVE",
"-2 861 OFFCURVE",
"13 844 CURVE",
"31 826 OFFCURVE",
"46 811 OFFCURVE",
"57 799 CURVE",
"80 776 OFFCURVE",
"99 759 OFFCURVE",
"106 748 CURVE",
"143 744 OFFCURVE",
"162 747 OFFCURVE",
"171 750 CURVE"
);
},
{
closed = 1;
nodes = (
"-15 868 LINE",
"-14 869 LINE"
);
},
{
closed = 1;
nodes = (
"104 706 LINE",
"98 650 OFFCURVE",
"95 593 OFFCURVE",
"95 534 CURVE SMOOTH",
"96 476 OFFCURVE",
"96 392 OFFCURVE",
"97 282 CURVE SMOOTH",
"98 173 OFFCURVE",
"97 77 OFFCURVE",
"96 -4 CURVE",
"122 1 OFFCURVE",
"140 -2 OFFCURVE",
"154 1 CURVE",
"147 236 OFFCURVE",
"152 469 OFFCURVE",
"155 699 CURVE SMOOTH",
"155 703 LINE",
"128 706 LINE",
"125 706 OFFCURVE",
"125 709 OFFCURVE",
"104 708 CURVE"
);
}
);
width = 260;
}
);
note = Igrave;
rightKerningGroup = I;
unicode = 00CC;
},
{
glyphname = Iacute;
layers = (
{
hints = (
{
horizontal = 1;
place = "{-4, 21}";
target = up;
type = BottomGhost;
},
{
horizontal = 1;
place = "{904, -20}";
target = down;
type = TopGhost;
},
{
place = "{97, 57}";
type = Stem;
}
);
layerId = "09B19460-4606-4A98-AA02-96D7DF647D82";
paths = (
{
closed = 1;
nodes = (
"258 904 LINE",
"242 887 OFFCURVE",
"217 861 OFFCURVE",
"189 834 CURVE",
"161 809 OFFCURVE",
"129 771 OFFCURVE",
"106 750 CURVE",
"115 747 OFFCURVE",
"134 744 OFFCURVE",
"171 748 CURVE",
"178 759 OFFCURVE",
"197 776 OFFCURVE",
"220 799 CURVE SMOOTH",
"263 844 LINE SMOOTH",
"279 861 OFFCURVE",
"289 869 OFFCURVE",
"291 869 CURVE"
);
},
{
closed = 1;
nodes = (
"291 869 LINE",
"292 868 LINE"
);
},
{
closed = 1;
nodes = (
"104 706 LINE",
"98 650 OFFCURVE",
"95 593 OFFCURVE",
"95 534 CURVE SMOOTH",
"96 476 OFFCURVE",
"96 392 OFFCURVE",
"97 282 CURVE SMOOTH",
"98 173 OFFCURVE",
"97 77 OFFCURVE",
"96 -4 CURVE",
"122 1 OFFCURVE",
"140 -2 OFFCURVE",
"154 1 CURVE",
"147 236 OFFCURVE",
"152 469 OFFCURVE",
"155 699 CURVE SMOOTH",
"155 703 LINE",
"128 706 LINE",
"125 706 OFFCURVE",
"125 709 OFFCURVE",
"104 708 CURVE"
);
}
);
width = 259;
}
);
note = Iacute;
rightKerningGroup = I;
unicode = 00CD;
},
{
glyphname = Icircumflex;
layers = (
{
hints = (
{
horizontal = 1;
place = "{-4, 21}";
target = up;
type = BottomGhost;
},
{
horizontal = 1;
place = "{915, -20}";
target = down;
type = TopGhost;
},
{
place = "{95, 59}";
type = Stem;
}
);
layerId = "09B19460-4606-4A98-AA02-96D7DF647D82";
paths = (
{
closed = 1;
nodes = (
"141 915 LINE",
"62 841 LINE SMOOTH",
"39 819 OFFCURVE",
"12 790 OFFCURVE",
"-19 753 CURVE",
"22 752 OFFCURVE",
"27 752 OFFCURVE",
"39 753 CURVE",
"42 754 OFFCURVE",
"53 765 OFFCURVE",
"74 787 CURVE SMOOTH",
"113 829 LINE SMOOTH",
"124 841 OFFCURVE",
"136 856 OFFCURVE",
"143 857 CURVE",
"148 854 OFFCURVE",
"160 843 OFFCURVE",
"169 831 CURVE",
"214 786 LINE SMOOTH",
"240 761 OFFCURVE",
"254 749 OFFCURVE",
"257 749 CURVE",
"282 753 OFFCURVE",
"299 755 OFFCURVE",
"302 754 CURVE"
);
},
{
closed = 1;
nodes = (
"155 703 LINE",
"128 706 LINE",
"125 706 OFFCURVE",
"125 709 OFFCURVE",
"104 708 CURVE",
"104 706 LINE",
"98 650 OFFCURVE",
"95 593 OFFCURVE",
"95 534 CURVE SMOOTH",
"96 476 OFFCURVE",
"96 392 OFFCURVE",
"97 282 CURVE SMOOTH",
"98 173 OFFCURVE",
"97 77 OFFCURVE",
"96 -4 CURVE",
"122 1 OFFCURVE",
"140 -2 OFFCURVE",
"154 1 CURVE",
"147 236 OFFCURVE",
"152 469 OFFCURVE",
"155 699 CURVE SMOOTH"
);
}
);
width = 260;
}
);
note = Icircumflex;
rightKerningGroup = I;
unicode = 00CE;
},
{
glyphname = d;
layers = (
{
hints = (
{
horizontal = 1;
place = "{3, 44}";
type = Stem;
},
{
horizontal = 1;
place = "{471, 34}";
type = Stem;
},
{
place = "{21, 46}";
type = Stem;
},
{
place = "{379, 44}";
type = Stem;
}
);
layerId = "09B19460-4606-4A98-AA02-96D7DF647D82";
paths = (
{
closed = 1;
nodes = (
"376 689 LINE",
"375 676 OFFCURVE",
"375 656 OFFCURVE",
"376 631 CURVE SMOOTH",
"377 606 OFFCURVE",
"378 591 OFFCURVE",
"377 585 CURVE",
"379 417 LINE",
"378 423 OFFCURVE",
"367 438 OFFCURVE",
"346 463 CURVE SMOOTH",
"326 488 OFFCURVE",
"297 502 OFFCURVE",
"258 505 CURVE SMOOTH",
"219 508 OFFCURVE",
"181 506 OFFCURVE",
"143 499 CURVE SMOOTH",
"105 492 OFFCURVE",
"80 481 OFFCURVE",
"67 465 CURVE SMOOTH",
"32 419 OFFCURVE",
"21 356 OFFCURVE",
"21 285 CURVE SMOOTH",
"24 151 OFFCURVE",
"38 14 OFFCURVE",
"189 3 CURVE",
"214 0 OFFCURVE",
"247 1 OFFCURVE",
"289 6 CURVE SMOOTH",
"331 11 OFFCURVE",
"359 34 OFFCURVE",
"373 75 CURVE",
"377 52 OFFCURVE",
"378 20 OFFCURVE",
"378 7 CURVE SMOOTH",
"378 4 OFFCURVE",
"378 1 OFFCURVE",
"379 0 CURVE",
"399 -3 OFFCURVE",
"416 -2 OFFCURVE",
"429 1 CURVE",
"434 193 OFFCURVE",
"423 415 OFFCURVE",
"423 638 CURVE SMOOTH",
"423 704 LINE",
"392 707 OFFCURVE",
"377 705 OFFCURVE",
"376 700 CURVE"
);
},
{
closed = 1;
nodes = (
"67 326 LINE SMOOTH",
"70 417 OFFCURVE",
"107 466 OFFCURVE",
"178 471 CURVE SMOOTH",
"249 476 OFFCURVE",
"297 466 OFFCURVE",
"320 440 CURVE SMOOTH",
"367 388 OFFCURVE",
"370 335 OFFCURVE",
"373 260 CURVE",
"373 195 OFFCURVE",
"376 143 OFFCURVE",
"345 99 CURVE SMOOTH",
"314 56 OFFCURVE",
"285 47 OFFCURVE",
"224 47 CURVE SMOOTH",
"172 47 OFFCURVE",
"129 55 OFFCURVE",
"109 79 CURVE",
"99 92 OFFCURVE",
"90 110 OFFCURVE",
"82 133 CURVE",
"75 157 OFFCURVE",
"70 196 OFFCURVE",
"67 251 CURVE"
);
}
);
width = 463;
}
);
leftKerningGroup = d;
note = d;
unicode = 0064;
},
